AsbirMonoItalic-ItalicBlack.ufo
<glyph name="quotedbl" format="2">
  <advance width="600"/>
  <unicode hex="0022"/>
  <outline>
    <contour>
      <point x="344" y="312" type="line"/>
      <point x="454" y="312" type="line"/>
      <point x="555" y="624" type="line"/>
      <point x="573" y="710" type="line"/>
      <point x="431" y="710" type="line"/>
    </contour>
    <contour>
      <point x="151" y="312" type="line"/>
      <point x="261" y="312" type="line"/>
      <point x="356" y="710" type="line"/>
      <point x="214" y="710" type="line"/>
      <point x="196" y="624" type="line"/>
    </contour>
  </outline>
</glyph>
<glyph name="numbersign" format="2">
  <advance width="600"/>
  <unicode hex="0023"/>
  <outline>
    <contour>
      <point x="230" y="0" type="line"/>
      <point x="364" y="0" type="line"/>
      <point x="626" y="710" type="line"/>
      <point x="492" y="710" type="line"/>
    </contour>
    <contour>
      <point x="-4" y="158" type="line"/>
      <point x="500" y="158" type="line"/>
      <point x="547" y="292" type="line"/>
      <point x="43" y="292" type="line"/>
    </contour>
    <contour>
      <point x="10" y="0" type="line"/>
      <point x="144" y="0" type="line"/>
      <point x="405" y="710" type="line"/>
      <point x="271" y="710" type="line"/>
    </contour>
    <contour>
      <point x="88" y="412" type="line"/>
      <point x="592" y="412" type="line"/>
      <point x="639" y="546" type="line"/>
      <point x="135" y="546" type="line"/>
    </contour>
  </outline>
</glyph>
<glyph name="dollar" format="2">
  <advance width="600"/>
  <unicode hex="0024"/>
  <outline>
    <contour>
      <point x="184" y="-91" type="line"/>
      <point x="264" y="-91" type="line"/>
      <point x="455" y="805" type="line"/>
      <point x="375" y="805" type="line"/>
    </contour>
    <contour>
      <point x="246" y="-6" type="curve" smooth="yes"/>
      <point x="447" y="-6"/>
      <point x="547" y="102"/>
      <point x="547" y="238" type="curve" smooth="yes"/>
      <point x="547" y="322"/>
      <point x="506" y="395"/>
      <point x="374" y="426" type="curve" smooth="yes"/>
      <point x="289" y="446"/>
      <point x="264" y="456"/>
      <point x="264" y="502" type="curve" smooth="yes"/>
      <point x="264" y="544"/>
      <point x="294" y="572"/>
      <point x="352" y="572" type="curve" smooth="yes"/>
      <point x="409" y="572"/>
      <point x="429" y="555"/>
      <point x="429" y="517" type="curve" smooth="yes"/>
      <point x="429" y="497"/>
      <point x="427" y="481"/>
      <point x="425" y="473" type="curve"/>
      <point x="592" y="480" type="line"/>
      <point x="596" y="498"/>
      <point x="599" y="525"/>
      <point x="599" y="554" type="curve" smooth="yes"/>
      <point x="599" y="653"/>
      <point x="528" y="716"/>
      <point x="384" y="716" type="curve" smooth="yes"/>
      <point x="190" y="716"/>
      <point x="92" y="606"/>
      <point x="92" y="476" type="curve" smooth="yes"/>
      <point x="92" y="368"/>
      <point x="157" y="317"/>
      <point x="268" y="292" type="curve" smooth="yes"/>
      <point x="356" y="272"/>
      <point x="374" y="254"/>
      <point x="374" y="210" type="curve" smooth="yes"/>
      <point x="374" y="162"/>
      <point x="346" y="138"/>
      <point x="280" y="138" type="curve" smooth="yes"/>
      <point x="227" y="138"/>
      <point x="205" y="153"/>
      <point x="205" y="194" type="curve" smooth="yes"/>
      <point x="205" y="216"/>
      <point x="208" y="243"/>
      <point x="210" y="257" type="curve"/>
      <point x="36" y="249" type="line"/>
      <point x="31" y="225"/>
      <point x="28" y="202"/>
      <point x="28" y="161" type="curve" smooth="yes"/>
      <point x="28" y="64"/>
      <point x="93" y="-6"/>
    </contour>
  </outline>
</glyph>
<glyph name="percent" format="2">
  <advance width="600"/>
  <unicode hex="0025"/>
  <outline>
    <contour>
      <point x="178" y="366" type="curve" smooth="yes"/>
      <point x="298" y="366"/>
      <point x="370" y="482"/>
      <point x="370" y="602" type="curve" smooth="yes"/>
      <point x="370" y="678"/>
      <point x="331" y="718"/>
      <point x="253" y="718" type="curve" smooth="yes"/>
      <point x="133" y="718"/>
      <point x="62" y="601"/>
      <point x="62" y="481" type="curve" smooth="yes"/>
      <point x="62" y="405"/>
      <point x="100" y="366"/>
    </contour>
    <contour>
      <point x="197" y="452" type="curve" smooth="yes"/>
      <point x="181" y="452"/>
      <point x="173" y="464"/>
      <point x="173" y="489" type="curve" smooth="yes"/>
      <point x="173" y="559"/>
      <point x="206" y="632"/>
      <point x="235" y="632" type="curve" smooth="yes"/>
      <point x="251" y="632"/>
      <point x="259" y="620"/>
      <point x="259" y="594" type="curve" smooth="yes"/>
      <point x="259" y="524"/>
      <point x="226" y="452"/>
    </contour>
    <contour>
      <point x="-10" y="0" type="line"/>
      <point x="84" y="0" type="line"/>
      <point x="646" y="710" type="line"/>
      <point x="552" y="710" type="line"/>
    </contour>
    <contour>
      <point x="382" y="-8" type="curve" smooth="yes"/>
      <point x="502" y="-8"/>
      <point x="574" y="108"/>
      <point x="574" y="228" type="curve" smooth="yes"/>
      <point x="574" y="304"/>
      <point x="535" y="344"/>
      <point x="457" y="344" type="curve" smooth="yes"/>
      <point x="337" y="344"/>
      <point x="266" y="227"/>
      <point x="266" y="107" type="curve" smooth="yes"/>
      <point x="266" y="31"/>
      <point x="304" y="-8"/>
    </contour>
    <contour>
      <point x="401" y="78" type="curve" smooth="yes"/>
      <point x="385" y="78"/>
      <point x="377" y="90"/>
      <point x="377" y="115" type="curve" smooth="yes"/>
      <point x="377" y="185"/>
      <point x="410" y="258"/>
      <point x="439" y="258" type="curve" smooth="yes"/>
      <point x="455" y="258"/>
      <point x="463" y="246"/>
      <point x="463" y="220" type="curve" smooth="yes"/>
      <point x="463" y="150"/>
      <point x="430" y="78"/>
    </contour>
  </outline>
</glyph>
<glyph name="ampersand" format="2">
  <advance width="600"/>
  <unicode hex="0026"/>
  <outline>
    <contour>
      <point x="148" y="-16" type="curve" smooth="yes"/>
      <point x="241" y="-16"/>
      <point x="300" y="8"/>
      <point x="338" y="36" type="curve"/>
      <point x="357" y="0" type="line"/>
      <point x="533" y="0" type="line"/>
      <point x="470" y="120" type="line"/>
      <point x="520" y="160"/>
      <point x="582" y="240"/>
      <point x="600" y="316" type="curve"/>
      <point x="458" y="338" type="line"/>
      <point x="449" y="309"/>
      <point x="432" y="276"/>
      <point x="416" y="260" type="curve"/>
      <point x="371" y="348" type="line"/>
      <point x="477" y="405"/>
      <point x="570" y="480"/>
      <point x="570" y="599" type="curve" smooth="yes"/>
      <point x="570" y="675"/>
      <point x="519" y="726"/>
      <point x="394" y="726" type="curve" smooth="yes"/>
      <point x="228" y="726"/>
      <point x="132" y="619"/>
      <point x="132" y="498" type="curve" smooth="yes"/>
      <point x="132" y="453"/>
      <point x="150" y="417"/>
      <point x="168" y="384" type="curve"/>
      <point x="47" y="319"/>
      <point x="-14" y="239"/>
      <point x="-14" y="128" type="curve" smooth="yes"/>
      <point x="-14" y="40"/>
      <point x="42" y="-16"/>
    </contour>
    <contour>
      <point x="211" y="141" type="curve" smooth="yes"/>
      <point x="181" y="141"/>
      <point x="164" y="159"/>
      <point x="164" y="186" type="curve" smooth="yes"/>
      <point x="164" y="220"/>
      <point x="189" y="253"/>
      <point x="225" y="274" type="curve"/>
      <point x="282" y="164" type="line"/>
      <point x="263" y="148"/>
      <point x="240" y="141"/>
    </contour>
    <contour>
      <point x="319" y="456" type="curve"/>
      <point x="306" y="477"/>
      <point x="301" y="498"/>
      <point x="301" y="515" type="curve" smooth="yes"/>
      <point x="301" y="550"/>
      <point x="323" y="579"/>
      <point x="361" y="579" type="curve" smooth="yes"/>
      <point x="385" y="579"/>
      <point x="398" y="566"/>
      <point x="398" y="546" type="curve" smooth="yes"/>
      <point x="398" y="513"/>
      <point x="370" y="483"/>
    </contour>
  </outline>
</glyph>
<glyph name="quotesingle" format="2">
  <advance width="600"/>
  <unicode hex="0027"/>
  <outline>
    <contour>
      <point x="250" y="312" type="line"/>
      <point x="366" y="312" type="line"/>
      <point x="450" y="600" type="line"/>
      <point x="473" y="710" type="line"/>
      <point x="314" y="710" type="line"/>
      <point x="291" y="600" type="line"/>
    </contour>
  </outline>
</glyph>
<glyph name="parenleft" format="2">
  <advance width="600"/>
  <unicode hex="0028"/>
  <outline>
    <contour>
      <point x="249" y="-110" type="curve"/>
      <point x="417" y="-110" type="line"/>
      <point x="326" y="-22"/>
      <point x="286" y="82"/>
      <point x="286" y="226" type="curve" smooth="yes"/>
      <point x="286" y="420"/>
      <point x="385" y="594"/>
      <point x="599" y="750" type="curve"/>
      <point x="431" y="750" type="line"/>
      <point x="217" y="626"/>
      <point x="106" y="430"/>
      <point x="106" y="230" type="curve" smooth="yes"/>
      <point x="106" y="70"/>
      <point x="163" y="-50"/>
    </contour>
  </outline>
</glyph>
<glyph name="asterisk" format="2">
  <advance width="600"/>
  <unicode hex="002A"/>
  <outline>
    <contour>
      <point x="222" y="263" type="line"/>
      <point x="332" y="386" type="line"/>
      <point x="396" y="263" type="line"/>
      <point x="487" y="323" type="line"/>
      <point x="421" y="435" type="line"/>
      <point x="555" y="434" type="line"/>
      <point x="577" y="539" type="line"/>
      <point x="439" y="538" type="line"/>
      <point x="551" y="650" type="line"/>
      <point x="470" y="710" type="line"/>
      <point x="360" y="587" type="line"/>
      <point x="296" y="710" type="line"/>
      <point x="205" y="650" type="line"/>
      <point x="271" y="538" type="line"/>
      <point x="137" y="539" type="line"/>
      <point x="115" y="434" type="line"/>
      <point x="253" y="435" type="line"/>
      <point x="141" y="323" type="line"/>
    </contour>
  </outline>
</glyph>
<glyph name="plus" format="2">
  <advance width="600"/>
  <unicode hex="002B"/>
  <outline>
    <contour>
      <point x="170" y="32" type="line"/>
      <point x="328" y="32" type="line"/>
      <point x="434" y="530" type="line"/>
      <point x="276" y="530" type="line"/>
    </contour>
    <contour>
      <point x="36" y="206" type="line"/>
      <point x="536" y="206" type="line"/>
      <point x="568" y="356" type="line"/>
      <point x="68" y="356" type="line"/>
    </contour>
  </outline>
</glyph>
<glyph name="comma" format="2">
  <advance width="600"/>
  <unicode hex="002C"/>
  <outline>
    <contour>
      <point x="131" y="-162" type="line"/>
      <point x="229" y="-162" type="line"/>
      <point x="336" y="16" type="line"/>
      <point x="369" y="170" type="line"/>
      <point x="189" y="170" type="line"/>
      <point x="153" y="0" type="line"/>
      <point x="224" y="0" type="line"/>
    </contour>
  </outline>
</glyph>
<glyph name="hyphen" format="2">
  <advance width="600"/>
  <unicode hex="002D"/>
  <outline>
    <contour>
      <point x="99" y="216" type="line"/>
      <point x="479" y="216" type="line"/>
      <point x="511" y="368" type="line"/>
      <point x="131" y="368" type="line"/>
    </contour>
  </outline>
</glyph>
<glyph name="period" format="2">
  <advance width="600"/>
  <unicode hex="002E"/>
  <outline>
    <contour>
      <point x="153" y="0" type="line"/>
      <point x="333" y="0" type="line"/>
      <point x="369" y="170" type="line"/>
      <point x="189" y="170" type="line"/>
    </contour>
  </outline>
</glyph>
<glyph name="slash" format="2">
  <advance width="600"/>
  <unicode hex="002F"/>
  <outline>
    <contour>
      <point x="-9" y="-110" type="line"/>
      <point x="151" y="-110" type="line"/>
      <point x="630" y="750" type="line"/>
      <point x="470" y="750" type="line"/>
    </contour>
  </outline>
</glyph>
<glyph name="zero" format="2">
  <advance width="600"/>
  <unicode hex="0030"/>
  <outline>
    <contour>
      <point x="160.32" y="124" type="line"/>
      <point x="238.52" y="114" type="line"/>
      <point x="567.48" y="586" type="line"/>
      <point x="489.28" y="596" type="line"/>
    </contour>
    <component base="zero.ss09" yxScale="0.18"/>
  </outline>
</glyph>
<glyph name="one" format="2">
  <advance width="600"/>
  <unicode hex="0031"/>
  <outline>
    <contour>
      <point x="-17" y="0" type="line"/>
      <point x="503" y="0" type="line"/>
      <point x="536" y="158" type="line"/>
      <point x="317" y="158" type="line"/>
      <point x="372" y="90" type="line"/>
      <point x="503" y="710" type="line"/>
      <point x="343" y="710" type="line"/>
      <point x="322" y="610"/>
      <point x="279" y="574"/>
      <point x="195" y="574" type="curve" smooth="yes"/>
      <point x="129" y="574" type="line"/>
      <point x="97" y="426" type="line"/>
      <point x="263" y="426" type="line"/>
      <point x="192" y="90" type="line"/>
      <point x="275" y="158" type="line"/>
      <point x="16" y="158" type="line"/>
    </contour>
  </outline>
</glyph>
<glyph name="two" format="2">
  <advance width="600"/>
  <unicode hex="0032"/>
  <outline>
    <contour>
      <point x="-17" y="0" type="curve"/>
      <point x="503" y="0" type="line"/>
      <point x="536" y="158" type="line"/>
      <point x="217" y="158" type="line"/>
      <point x="227" y="182"/>
      <point x="255" y="204"/>
      <point x="375" y="262" type="curve" smooth="yes"/>
      <point x="526" y="335"/>
      <point x="613" y="405"/>
      <point x="613" y="552" type="curve" smooth="yes"/>
      <point x="613" y="649"/>
      <point x="553" y="726"/>
      <point x="406" y="726" type="curve" smooth="yes"/>
      <point x="218" y="726"/>
      <point x="132" y="636"/>
      <point x="88" y="486" type="curve"/>
      <point x="272" y="476" type="line"/>
      <point x="292" y="540"/>
      <point x="321" y="572"/>
      <point x="374" y="572" type="curve" smooth="yes"/>
      <point x="409" y="572"/>
      <point x="429" y="548"/>
      <point x="429" y="512" type="curve" smooth="yes"/>
      <point x="429" y="452"/>
      <point x="382" y="418"/>
      <point x="310" y="386" type="curve" smooth="yes"/>
      <point x="94" y="290"/>
      <point x="23" y="190"/>
    </contour>
  </outline>
</glyph>
<glyph name="three" format="2">
  <advance width="600"/>
  <unicode hex="0033"/>
  <outline>
    <contour>
      <point x="240" y="-16" type="curve" smooth="yes"/>
      <point x="417" y="-16"/>
      <point x="550" y="80"/>
      <point x="550" y="240" type="curve" smooth="yes"/>
      <point x="550" y="318"/>
      <point x="502" y="376"/>
      <point x="411" y="388" type="curve"/>
      <point x="406" y="368" type="line"/>
      <point x="529" y="387"/>
      <point x="598" y="453"/>
      <point x="598" y="556" type="curve" smooth="yes"/>
      <point x="598" y="661"/>
      <point x="530" y="726"/>
      <point x="390" y="726" type="curve" smooth="yes"/>
      <point x="228" y="726"/>
      <point x="139" y="652"/>
      <point x="96" y="516" type="curve"/>
      <point x="274" y="508" type="line"/>
      <point x="288" y="551"/>
      <point x="314" y="574"/>
      <point x="360" y="574" type="curve" smooth="yes"/>
      <point x="397" y="574"/>
      <point x="414" y="556"/>
      <point x="414" y="514" type="curve" smooth="yes"/>
      <point x="414" y="460"/>
      <point x="377" y="432"/>
      <point x="321" y="432" type="curve" smooth="yes"/>
      <point x="269" y="432" type="line"/>
      <point x="241" y="300" type="line"/>
      <point x="294" y="300" type="line" smooth="yes"/>
      <point x="344" y="300"/>
      <point x="366" y="279"/>
      <point x="366" y="240" type="curve" smooth="yes"/>
      <point x="366" y="174"/>
      <point x="328" y="138"/>
      <point x="272" y="138" type="curve" smooth="yes"/>
      <point x="227" y="138"/>
      <point x="206" y="161"/>
      <point x="206" y="212" type="curve"/>
      <point x="24" y="204" type="line"/>
      <point x="24" y="54"/>
      <point x="90" y="-16"/>
    </contour>
  </outline>
</glyph>
<glyph name="four" format="2">
  <advance width="600"/>
  <unicode hex="0034"/>
  <outline>
    <contour>
      <point x="260" y="0" type="line"/>
      <point x="440" y="0" type="line"/>
      <point x="468" y="134" type="line"/>
      <point x="551" y="134" type="line"/>
      <point x="583" y="284" type="line"/>
      <point x="500" y="284" type="line"/>
      <point x="590" y="710" type="line"/>
      <point x="381" y="710" type="line"/>
      <point x="21" y="277" type="line"/>
      <point x="-9" y="134" type="line"/>
      <point x="288" y="134" type="line"/>
    </contour>
    <contour>
      <point x="190" y="284" type="line"/>
      <point x="364" y="490" type="line"/>
      <point x="320" y="284" type="line"/>
    </contour>
  </outline>
</glyph>
<glyph name="five" format="2">
  <advance width="600"/>
  <unicode hex="0035"/>
  <outline>
    <contour>
      <point x="240" y="-16" type="curve" smooth="yes"/>
      <point x="420" y="-16"/>
      <point x="556" y="121"/>
      <point x="556" y="298" type="curve" smooth="yes"/>
      <point x="556" y="409"/>
      <point x="490" y="474"/>
      <point x="376" y="474" type="curve" smooth="yes"/>
      <point x="302" y="474"/>
      <point x="241" y="440"/>
      <point x="195" y="386" type="curve"/>
      <point x="233" y="373" type="line"/>
      <point x="291" y="552" type="line"/>
      <point x="589" y="552" type="line"/>
      <point x="622" y="710" type="line"/>
      <point x="182" y="710" type="line"/>
      <point x="55" y="298" type="line"/>
      <point x="236" y="286" type="line"/>
      <point x="250" y="312"/>
      <point x="279" y="336"/>
      <point x="315" y="336" type="curve" smooth="yes"/>
      <point x="352" y="336"/>
      <point x="372" y="312"/>
      <point x="372" y="270" type="curve" smooth="yes"/>
      <point x="372" y="190"/>
      <point x="330" y="138"/>
      <point x="272" y="138" type="curve" smooth="yes"/>
      <point x="225" y="138"/>
      <point x="211" y="160"/>
      <point x="211" y="204" type="curve"/>
      <point x="26" y="194" type="line"/>
      <point x="26" y="68"/>
      <point x="82" y="-16"/>
    </contour>
  </outline>
</glyph>
<glyph name="six" format="2">
  <advance width="600"/>
  <unicode hex="0036"/>
  <outline>
    <contour>
      <point x="246" y="-16" type="curve" smooth="yes"/>
      <point x="434" y="-16"/>
      <point x="570" y="123"/>
      <point x="570" y="307" type="curve" smooth="yes"/>
      <point x="570" y="415"/>
      <point x="503" y="480"/>
      <point x="387" y="480" type="curve" smooth="yes"/>
      <point x="273" y="480"/>
      <point x="202" y="414"/>
      <point x="168" y="354" type="curve"/>
      <point x="229" y="350" type="line"/>
      <point x="261" y="499"/>
      <point x="315" y="572"/>
      <point x="393" y="572" type="curve" smooth="yes"/>
      <point x="431" y="572"/>
      <point x="444" y="554"/>
      <point x="444" y="530" type="curve"/>
      <point x="624" y="542" type="line"/>
      <point x="624" y="645"/>
      <point x="573" y="726"/>
      <point x="423" y="726" type="curve" smooth="yes"/>
      <point x="191" y="726"/>
      <point x="34" y="504"/>
      <point x="34" y="204" type="curve" smooth="yes"/>
      <point x="34" y="68"/>
      <point x="108" y="-16"/>
    </contour>
    <contour>
      <point x="277" y="142" type="curve" smooth="yes"/>
      <point x="236" y="142"/>
      <point x="214" y="171"/>
      <point x="214" y="214" type="curve" smooth="yes"/>
      <point x="214" y="282"/>
      <point x="258" y="332"/>
      <point x="321" y="332" type="curve" smooth="yes"/>
      <point x="368" y="332"/>
      <point x="390" y="311"/>
      <point x="390" y="268" type="curve" smooth="yes"/>
      <point x="390" y="194"/>
      <point x="344" y="142"/>
    </contour>
  </outline>
</glyph>
<glyph name="seven" format="2">
  <advance width="600"/>
  <unicode hex="0037"/>
  <outline>
    <contour>
      <point x="93" y="0" type="curve"/>
      <point x="281" y="0" type="line"/>
      <point x="333" y="246"/>
      <point x="422" y="387"/>
      <point x="612" y="560" type="curve"/>
      <point x="644" y="710" type="line"/>
      <point x="144" y="710" type="line"/>
      <point x="110" y="552" type="line"/>
      <point x="430" y="552" type="line"/>
      <point x="256" y="389"/>
      <point x="138" y="212"/>
    </contour>
  </outline>
</glyph>
<glyph name="eight" format="2">
  <advance width="600"/>
  <unicode hex="0038"/>
  <outline>
    <contour>
      <point x="238" y="-16" type="curve" smooth="yes"/>
      <point x="436" y="-16"/>
      <point x="553" y="90"/>
      <point x="553" y="237" type="curve" smooth="yes"/>
      <point x="553" y="321"/>
      <point x="502" y="373"/>
      <point x="409" y="390" type="curve"/>
      <point x="403" y="370" type="line"/>
      <point x="523" y="393"/>
      <point x="595" y="468"/>
      <point x="595" y="567" type="curve" smooth="yes"/>
      <point x="595" y="661"/>
      <point x="522" y="726"/>
      <point x="390" y="726" type="curve" smooth="yes"/>
      <point x="203" y="726"/>
      <point x="104" y="625"/>
      <point x="104" y="498" type="curve" smooth="yes"/>
      <point x="104" y="430"/>
      <point x="150" y="387"/>
      <point x="231" y="370" type="curve"/>
      <point x="233" y="390" type="line"/>
      <point x="98" y="367"/>
      <point x="14" y="270"/>
      <point x="14" y="148" type="curve" smooth="yes"/>
      <point x="14" y="42"/>
      <point x="89" y="-16"/>
    </contour>
    <contour>
      <point x="265" y="138" type="curve" smooth="yes"/>
      <point x="220" y="138"/>
      <point x="199" y="158"/>
      <point x="198" y="194" type="curve" smooth="yes"/>
      <point x="199" y="255"/>
      <point x="241" y="303"/>
      <point x="300" y="303" type="curve" smooth="yes"/>
      <point x="344" y="303"/>
      <point x="370" y="278"/>
      <point x="369" y="238" type="curve" smooth="yes"/>
      <point x="370" y="178"/>
      <point x="329" y="138"/>
    </contour>
    <contour>
      <point x="335" y="452" type="curve" smooth="yes"/>
      <point x="304" y="452"/>
      <point x="287" y="468"/>
      <point x="286" y="496" type="curve" smooth="yes"/>
      <point x="287" y="541"/>
      <point x="317" y="572"/>
      <point x="360" y="572" type="curve" smooth="yes"/>
      <point x="394" y="572"/>
      <point x="414" y="554"/>
      <point x="413" y="527" type="curve" smooth="yes"/>
      <point x="414" y="484"/>
      <point x="379" y="452"/>
    </contour>
  </outline>
</glyph>
<glyph name="equal" format="2">
  <advance width="600"/>
  <unicode hex="003D"/>
  <outline>
    <contour>
      <point x="87" y="348" type="line"/>
      <point x="547" y="348" type="line"/>
      <point x="575" y="482" type="line"/>
      <point x="115" y="482" type="line"/>
    </contour>
    <contour>
      <point x="33" y="95" type="line"/>
      <point x="493" y="95" type="line"/>
      <point x="521" y="229" type="line"/>
      <point x="61" y="229" type="line"/>
    </contour>
  </outline>
</glyph>
<glyph name="greater" format="2">
  <advance width="600"/>
  <unicode hex="003E"/>
  <outline>
    <contour>
      <point x="15" y="16" type="line"/>
      <point x="518" y="204" type="line"/>
      <point x="556" y="384" type="line"/>
      <point x="133" y="572" type="line"/>
      <point x="99" y="416" type="line"/>
      <point x="464" y="254" type="line"/>
      <point x="482" y="342" type="line"/>
      <point x="49" y="180" type="line"/>
    </contour>
  </outline>
</glyph>
<glyph name="at" format="2">
  <advance width="600"/>
  <unicode hex="0040"/>
  <outline>
    <contour>
      <point x="362" y="-88" type="curve"/>
      <point x="355" y="-13" type="line"/>
      <point x="305" y="-33"/>
      <point x="256" y="-44"/>
      <point x="208" y="-44" type="curve" smooth="yes"/>
      <point x="115" y="-44"/>
      <point x="78" y="-1"/>
      <point x="78" y="160" type="curve" smooth="yes"/>
      <point x="78" y="406"/>
      <point x="242" y="634"/>
      <point x="408" y="634" type="curve" smooth="yes"/>
      <point x="510" y="634"/>
      <point x="541" y="588"/>
      <point x="541" y="486" type="curve" smooth="yes"/>
      <point x="541" y="278"/>
      <point x="467" y="166"/>
      <point x="437" y="166" type="curve" smooth="yes"/>
      <point x="425" y="166"/>
      <point x="420" y="172"/>
      <point x="420" y="188" type="curve" smooth="yes"/>
      <point x="420" y="218"/>
      <point x="441" y="301"/>
      <point x="503" y="493" type="curve"/>
      <point x="405" y="493" type="line"/>
      <point x="380" y="408" type="line"/>
      <point x="401" y="434" type="line"/>
      <point x="401" y="481"/>
      <point x="372" y="502"/>
      <point x="333" y="502" type="curve" smooth="yes"/>
      <point x="229" y="502"/>
      <point x="134" y="337"/>
      <point x="134" y="180" type="curve" smooth="yes"/>
      <point x="134" y="115"/>
      <point x="159" y="80"/>
      <point x="210" y="80" type="curve" smooth="yes"/>
      <point x="272" y="80"/>
      <point x="332" y="137"/>
      <point x="352" y="192" type="curve"/>
      <point x="338" y="198" type="line"/>
      <point x="332" y="186"/>
      <point x="326" y="167"/>
      <point x="326" y="152" type="curve" smooth="yes"/>
      <point x="326" y="110"/>
      <point x="353" y="80"/>
      <point x="400" y="80" type="curve" smooth="yes"/>
      <point x="508" y="80"/>
      <point x="619" y="233"/>
      <point x="619" y="492" type="curve" smooth="yes"/>
      <point x="619" y="628"/>
      <point x="556" y="710"/>
      <point x="420" y="710" type="curve" smooth="yes"/>
      <point x="166" y="710"/>
      <point x="0" y="443"/>
      <point x="0" y="134" type="curve" smooth="yes"/>
      <point x="0" y="-41"/>
      <point x="70" y="-120"/>
      <point x="194" y="-120" type="curve" smooth="yes"/>
      <point x="255" y="-120"/>
      <point x="306" y="-109"/>
    </contour>
    <contour>
      <point x="269" y="166" type="curve" smooth="yes"/>
      <point x="256" y="166"/>
      <point x="250" y="178"/>
      <point x="250" y="202" type="curve" smooth="yes"/>
      <point x="250" y="290"/>
      <point x="306" y="423"/>
      <point x="340" y="423" type="curve" smooth="yes"/>
      <point x="354" y="423"/>
      <point x="361" y="412"/>
      <point x="361" y="389" type="curve" smooth="yes"/>
      <point x="361" y="317"/>
      <point x="311" y="166"/>
    </contour>
  </outline>
</glyph>
<glyph name="A" format="2">
  <advance width="600"/>
  <unicode hex="0041"/>
  <anchor x="243" y="0" name="bottom"/>
  <anchor x="529" y="0" name="ogonek"/>
  <anchor x="394" y="710" name="top"/>
  <outline>
    <contour>
      <point x="-43" y="0" type="line"/>
      <point x="137" y="0" type="line"/>
      <point x="346" y="476" type="line"/>
      <point x="353" y="0" type="line"/>
      <point x="529" y="0" type="line"/>
      <point x="500" y="710" type="line"/>
      <point x="288" y="710" type="line"/>
    </contour>
    <contour>
      <point x="128" y="117" type="line"/>
      <point x="408" y="117" type="line"/>
      <point x="400" y="268" type="line"/>
      <point x="200" y="268" type="line"/>
    </contour>
  </outline>
</glyph>
<glyph name="B" format="2">
  <advance width="600"/>
  <unicode hex="0042"/>
  <anchor x="233" y="0" name="bottom"/>
  <anchor x="368" y="710" name="top"/>
  <outline>
    <contour>
      <point x="-14" y="0" type="line"/>
      <point x="238" y="0" type="line" smooth="yes"/>
      <point x="410" y="0"/>
      <point x="543" y="72"/>
      <point x="543" y="224" type="curve" smooth="yes"/>
      <point x="543" y="302"/>
      <point x="494" y="363"/>
      <point x="368" y="370" type="curve"/>
      <point x="366" y="362" type="line"/>
      <point x="495" y="375"/>
      <point x="578" y="426"/>
      <point x="578" y="550" type="curve" smooth="yes"/>
      <point x="578" y="650"/>
      <point x="508" y="710"/>
      <point x="366" y="710" type="curve" smooth="yes"/>
      <point x="136" y="710" type="line"/>
    </contour>
    <contour>
      <point x="198" y="154" type="line"/>
      <point x="226" y="285" type="line"/>
      <point x="298" y="285" type="line" smooth="yes"/>
      <point x="339" y="285"/>
      <point x="359" y="264"/>
      <point x="359" y="228" type="curve" smooth="yes"/>
      <point x="359" y="183"/>
      <point x="328" y="156"/>
      <point x="270" y="155" type="curve" smooth="yes"/>
    </contour>
    <contour>
      <point x="258" y="433" type="line"/>
      <point x="284" y="556" type="line"/>
      <point x="330" y="556" type="line" smooth="yes"/>
      <point x="370" y="556"/>
      <point x="392" y="540"/>
      <point x="392" y="508" type="curve" smooth="yes"/>
      <point x="392" y="464"/>
      <point x="360" y="433"/>
      <point x="306" y="433" type="curve" smooth="yes"/>
    </contour>
  </outline>
</glyph>
<glyph name="C" format="2">
  <advance width="600"/>
  <unicode hex="0043"/>
  <anchor x="256" y="0" name="bottom"/>
  <anchor x="400" y="710" name="top"/>
  <outline>
    <contour>
      <point x="248" y="-16" type="curve" smooth="yes"/>
      <point x="396" y="-16"/>
      <point x="515" y="81"/>
      <point x="571" y="273" type="curve"/>
      <point x="392" y="280" type="line"/>
      <point x="366" y="186"/>
      <point x="322" y="138"/>
      <point x="281" y="138" type="curve" smooth="yes"/>
      <point x="240" y="138"/>
      <point x="220" y="170"/>
      <point x="220" y="240" type="curve" smooth="yes"/>
      <point x="220" y="426"/>
      <point x="297" y="572"/>
      <point x="371" y="572" type="curve" smooth="yes"/>
      <point x="413" y="572"/>
      <point x="426" y="542"/>
      <point x="426" y="436" type="curve"/>
      <point x="609" y="443" type="line"/>
      <point x="609" y="644"/>
      <point x="538" y="726"/>
      <point x="396" y="726" type="curve" smooth="yes"/>
      <point x="182" y="726"/>
      <point x="36" y="518"/>
      <point x="36" y="224" type="curve" smooth="yes"/>
      <point x="36" y="64"/>
      <point x="106" y="-16"/>
    </contour>
  </outline>
</glyph>
<glyph name="D" format="2">
  <advance width="600"/>
  <unicode hex="0044"/>
  <anchor x="229" y="0" name="bottom"/>
  <anchor x="184" y="355" name="center"/>
  <anchor x="320" y="710" name="top"/>
  <outline>
    <contour>
      <point x="-17" y="0" type="line"/>
      <point x="175" y="0" type="line" smooth="yes"/>
      <point x="414" y="0"/>
      <point x="588" y="191"/>
      <point x="588" y="467" type="curve" smooth="yes"/>
      <point x="588" y="625"/>
      <point x="498" y="710"/>
      <point x="326" y="710" type="curve" smooth="yes"/>
      <point x="134" y="710" type="line"/>
    </contour>
    <contour>
      <point x="197" y="158" type="line"/>
      <point x="280" y="552" type="line"/>
      <point x="301" y="552" type="line" smooth="yes"/>
      <point x="370" y="552"/>
      <point x="404" y="514"/>
      <point x="404" y="438" type="curve" smooth="yes"/>
      <point x="404" y="278"/>
      <point x="322" y="158"/>
      <point x="218" y="158" type="curve" smooth="yes"/>
    </contour>
  </outline>
</glyph>
<glyph name="E" format="2">
  <advance width="600"/>
  <unicode hex="0045"/>
  <anchor x="241" y="0" name="bottom"/>
  <anchor x="473" y="0" name="ogonek"/>
  <anchor x="392" y="711" name="top"/>
  <outline>
    <contour>
      <point x="14" y="0" type="line"/>
      <point x="473" y="0" type="line"/>
      <point x="506" y="158" type="line"/>
      <point x="227" y="158" type="line"/>
      <point x="253" y="279" type="line"/>
      <point x="512" y="279" type="line"/>
      <point x="545" y="433" type="line"/>
      <point x="286" y="433" type="line"/>
      <point x="311" y="552" type="line"/>
      <point x="582" y="552" type="line"/>
      <point x="615" y="710" type="line"/>
      <point x="164" y="710" type="line"/>
    </contour>
  </outline>
</glyph>
<glyph name="F" format="2">
  <advance width="600"/>
  <unicode hex="0046"/>
  <anchor x="193" y="0" name="bottom"/>
  <anchor x="388" y="710" name="top"/>
  <outline>
    <contour>
      <point x="13" y="0" type="line"/>
      <point x="193" y="0" type="line"/>
      <point x="324" y="620" type="line"/>
      <point x="241" y="552" type="line"/>
      <point x="590" y="552" type="line"/>
      <point x="624" y="710" type="line"/>
      <point x="164" y="710" type="line"/>
    </contour>
    <contour>
      <point x="234" y="271" type="line"/>
      <point x="513" y="271" type="line"/>
      <point x="545" y="425" type="line"/>
      <point x="267" y="425" type="line"/>
    </contour>
  </outline>
</glyph>
<glyph name="G" format="2">
  <advance width="600"/>
  <unicode hex="0047"/>
  <anchor x="251" y="0" name="bottom"/>
  <anchor x="403" y="710" name="top"/>
  <outline>
    <contour>
      <point x="236" y="-16" type="curve" smooth="yes"/>
      <point x="358" y="-16"/>
      <point x="444" y="72"/>
      <point x="464" y="174" type="curve"/>
      <point x="430" y="154" type="line"/>
      <point x="405" y="0" type="line"/>
      <point x="510" y="0" type="line"/>
      <point x="588" y="376" type="line"/>
      <point x="328" y="376" type="line"/>
      <point x="301" y="246" type="line"/>
      <point x="404" y="246" type="line"/>
      <point x="384" y="168"/>
      <point x="340" y="141"/>
      <point x="290" y="141" type="curve" smooth="yes"/>
      <point x="244" y="141"/>
      <point x="223" y="168"/>
      <point x="223" y="248" type="curve" smooth="yes"/>
      <point x="223" y="418"/>
      <point x="298" y="569"/>
      <point x="370" y="569" type="curve" smooth="yes"/>
      <point x="413" y="569"/>
      <point x="429" y="540"/>
      <point x="429" y="452" type="curve"/>
      <point x="611" y="462" type="line"/>
      <point x="611" y="640"/>
      <point x="545" y="726"/>
      <point x="400" y="726" type="curve" smooth="yes"/>
      <point x="196" y="726"/>
      <point x="39" y="528"/>
      <point x="39" y="228" type="curve" smooth="yes"/>
      <point x="39" y="68"/>
      <point x="112" y="-16"/>
    </contour>
  </outline>
</glyph>
<glyph name="H" format="2">
  <advance width="600"/>
  <unicode hex="0048"/>
  <anchor x="243" y="0" name="bottom"/>
  <anchor x="366" y="580" name="center"/>
  <anchor x="394" y="710" name="top"/>
  <outline>
    <contour>
      <point x="-17" y="0" type="line"/>
      <point x="163" y="0" type="line"/>
      <point x="234" y="335" type="line"/>
      <point x="163" y="278" type="line"/>
      <point x="441" y="278" type="line"/>
      <point x="394" y="335" type="line"/>
      <point x="323" y="0" type="line"/>
      <point x="503" y="0" type="line"/>
      <point x="654" y="710" type="line"/>
      <point x="474" y="710" type="line"/>
      <point x="404" y="379" type="line"/>
      <point x="475" y="436" type="line"/>
      <point x="197" y="436" type="line"/>
      <point x="244" y="379" type="line"/>
      <point x="314" y="710" type="line"/>
      <point x="134" y="710" type="line"/>
    </contour>
  </outline>
</glyph>
<glyph name="I" format="2">
  <advance width="600"/>
  <unicode hex="0049"/>
  <anchor x="243" y="0" name="bottom"/>
  <anchor x="473" y="0" name="ogonek"/>
  <anchor x="393" y="710" name="top"/>
  <outline>
    <contour>
      <point x="13" y="0" type="line"/>
      <point x="473" y="0" type="line"/>
      <point x="506" y="158" type="line"/>
      <point x="366" y="158" type="line"/>
      <point x="450" y="552" type="line"/>
      <point x="590" y="552" type="line"/>
      <point x="623" y="710" type="line"/>
      <point x="164" y="710" type="line"/>
      <point x="131" y="552" type="line"/>
      <point x="270" y="552" type="line"/>
      <point x="186" y="158" type="line"/>
      <point x="46" y="158" type="line"/>
    </contour>
  </outline>
</glyph>
<glyph name="J" format="2">
  <advance width="600"/>
  <unicode hex="004A"/>
  <anchor x="546" y="710" name="top"/>
  <outline>
    <contour>
      <point x="242" y="-16" type="curve" smooth="yes"/>
      <point x="416" y="-16"/>
      <point x="503" y="74"/>
      <point x="541" y="252" type="curve" smooth="yes"/>
      <point x="638" y="710" type="line"/>
      <point x="458" y="710" type="line"/>
      <point x="361" y="252" type="line" smooth="yes"/>
      <point x="343" y="166"/>
      <point x="316" y="138"/>
      <point x="274" y="138" type="curve" smooth="yes"/>
      <point x="243" y="138"/>
      <point x="229" y="156"/>
      <point x="229" y="194" type="curve" smooth="yes"/>
      <point x="229" y="220"/>
      <point x="234" y="251"/>
      <point x="238" y="274" type="curve"/>
      <point x="54" y="266" type="line"/>
      <point x="48" y="240"/>
      <point x="44" y="206"/>
      <point x="44" y="176" type="curve" smooth="yes"/>
      <point x="44" y="51"/>
      <point x="114" y="-16"/>
    </contour>
  </outline>
</glyph>
<glyph name="K" format="2">
  <advance width="600"/>
  <unicode hex="004B"/>
  <anchor x="218" y="0" name="bottom"/>
  <anchor x="363" y="710" name="top"/>
  <outline>
    <contour>
      <point x="178" y="162" type="line"/>
      <point x="658" y="710" type="line"/>
      <point x="444" y="710" type="line"/>
      <point x="238" y="444" type="line"/>
    </contour>
    <contour>
      <point x="-21" y="0" type="line"/>
      <point x="159" y="0" type="line"/>
      <point x="310" y="710" type="line"/>
      <point x="130" y="710" type="line"/>
    </contour>
    <contour>
      <point x="317" y="0" type="line"/>
      <point x="507" y="0" type="line"/>
      <point x="386" y="427" type="line"/>
      <point x="243" y="314" type="line"/>
    </contour>
  </outline>
</glyph>
<glyph name="L" format="2">
  <advance width="600"/>
  <unicode hex="004C"/>
  <anchor x="243" y="0" name="bottom"/>
  <anchor x="208" y="380" name="center"/>
  <anchor x="244" y="710" name="top"/>
  <anchor x="397" y="540" name="topright"/>
  <outline>
    <contour>
      <point x="14" y="0" type="line"/>
      <point x="483" y="0" type="line"/>
      <point x="516" y="158" type="line"/>
      <point x="81" y="158" type="line"/>
      <point x="202" y="41" type="line"/>
      <point x="344" y="710" type="line"/>
      <point x="164" y="710" type="line"/>
    </contour>
  </outline>
</glyph>
<glyph name="M" format="2">
  <advance width="600"/>
  <unicode hex="004D"/>
  <anchor x="243" y="0" name="bottom"/>
  <anchor x="394" y="710" name="top"/>
  <outline>
    <contour>
      <point x="220" y="110" type="line"/>
      <point x="312" y="110" type="line"/>
      <point x="463" y="450" type="line"/>
      <point x="440" y="456" type="line"/>
      <point x="343" y="0" type="line"/>
      <point x="503" y="0" type="line"/>
      <point x="654" y="710" type="line"/>
      <point x="472" y="710" type="line"/>
      <point x="299" y="350" type="line"/>
      <point x="335" y="350" type="line"/>
      <point x="312" y="710" type="line"/>
      <point x="134" y="710" type="line"/>
      <point x="-17" y="0" type="line"/>
      <point x="143" y="0" type="line"/>
      <point x="240" y="456" type="line"/>
      <point x="215" y="450" type="line"/>
    </contour>
  </outline>
</glyph>
<glyph name="N" format="2">
  <advance width="600"/>
  <unicode hex="004E"/>
  <anchor x="243" y="0" name="bottom"/>
  <anchor x="394" y="710" name="top"/>
  <outline>
    <contour>
      <point x="3" y="0" type="line"/>
      <point x="173" y="0" type="line"/>
      <point x="263" y="425" type="line"/>
      <point x="233" y="424" type="line"/>
      <point x="333" y="0" type="line"/>
      <point x="483" y="0" type="line"/>
      <point x="634" y="710" type="line"/>
      <point x="464" y="710" type="line"/>
      <point x="374" y="285" type="line"/>
      <point x="404" y="286" type="line"/>
      <point x="304" y="710" type="line"/>
      <point x="154" y="710" type="line"/>
    </contour>
  </outline>
</glyph>
<glyph name="O" format="2">
  <advance width="600"/>
  <unicode hex="004F"/>
  <anchor x="242" y="0" name="bottom"/>
  <anchor x="318" y="355" name="center"/>
  <anchor x="334" y="0" name="ogonek"/>
  <anchor x="393" y="710" name="top"/>
  <anchor x="454" y="710" name="topright"/>
  <outline>
    <contour>
      <point x="243" y="-16" type="curve" smooth="yes"/>
      <point x="491" y="-16"/>
      <point x="601" y="241"/>
      <point x="601" y="491" type="curve" smooth="yes"/>
      <point x="601" y="641"/>
      <point x="532" y="726"/>
      <point x="394" y="726" type="curve" smooth="yes"/>
      <point x="146" y="726"/>
      <point x="35" y="466"/>
      <point x="35" y="216" type="curve" smooth="yes"/>
      <point x="35" y="66"/>
      <point x="105" y="-16"/>
    </contour>
    <contour>
      <point x="276" y="138" type="curve" smooth="yes"/>
      <point x="235" y="138"/>
      <point x="219" y="161"/>
      <point x="219" y="225" type="curve" smooth="yes"/>
      <point x="219" y="415"/>
      <point x="282" y="572"/>
      <point x="360" y="572" type="curve" smooth="yes"/>
      <point x="400" y="572"/>
      <point x="417" y="548"/>
      <point x="417" y="484" type="curve" smooth="yes"/>
      <point x="417" y="294"/>
      <point x="356" y="138"/>
    </contour>
  </outline>
</glyph>
<glyph name="P" format="2">
  <advance width="600"/>
  <unicode hex="0050"/>
  <anchor x="228" y="0" name="bottom"/>
  <anchor x="378" y="710" name="top"/>
  <outline>
    <contour>
      <point x="0" y="0" type="line"/>
      <point x="180" y="0" type="line"/>
      <point x="231" y="240" type="line"/>
      <point x="287" y="240" type="line" smooth="yes"/>
      <point x="454" y="240"/>
      <point x="590" y="342"/>
      <point x="590" y="522" type="curve" smooth="yes"/>
      <point x="590" y="634"/>
      <point x="512" y="710"/>
      <point x="384" y="710" type="curve" smooth="yes"/>
      <point x="150" y="710" type="line"/>
    </contour>
    <contour>
      <point x="264" y="398" type="line"/>
      <point x="297" y="552" type="line"/>
      <point x="335" y="552" type="line" smooth="yes"/>
      <point x="386" y="552"/>
      <point x="406" y="531"/>
      <point x="406" y="494" type="curve" smooth="yes"/>
      <point x="406" y="426"/>
      <point x="365" y="398"/>
      <point x="302" y="398" type="curve" smooth="yes"/>
    </contour>
  </outline>
</glyph>
<glyph name="Q" format="2">
  <advance width="600"/>
  <unicode hex="0051"/>
  <anchor x="243" y="0" name="bottom"/>
  <anchor x="394" y="710" name="top"/>
  <outline>
    <contour>
      <point x="277" y="-120" type="line"/>
      <point x="377" y="-120" type="line"/>
      <point x="353" y="260" type="line"/>
      <point x="253" y="260" type="line"/>
    </contour>
    <contour>
      <point x="243" y="-16" type="curve" smooth="yes"/>
      <point x="491" y="-16"/>
      <point x="601" y="231"/>
      <point x="601" y="491" type="curve" smooth="yes"/>
      <point x="601" y="641"/>
      <point x="532" y="726"/>
      <point x="394" y="726" type="curve" smooth="yes"/>
      <point x="146" y="726"/>
      <point x="35" y="466"/>
      <point x="35" y="216" type="curve" smooth="yes"/>
      <point x="35" y="66"/>
      <point x="105" y="-16"/>
    </contour>
    <contour>
      <point x="282" y="138" type="curve" smooth="yes"/>
      <point x="235" y="138"/>
      <point x="219" y="161"/>
      <point x="219" y="225" type="curve" smooth="yes"/>
      <point x="219" y="415"/>
      <point x="282" y="572"/>
      <point x="360" y="572" type="curve" smooth="yes"/>
      <point x="400" y="572"/>
      <point x="417" y="548"/>
      <point x="417" y="474" type="curve" smooth="yes"/>
      <point x="417" y="260"/>
      <point x="380" y="138"/>
    </contour>
  </outline>
</glyph>
<glyph name="R" format="2">
  <advance width="600"/>
  <unicode hex="0052"/>
  <anchor x="234" y="0" name="bottom"/>
  <anchor x="378" y="710" name="top"/>
  <outline>
    <contour>
      <point x="-6" y="0" type="line"/>
      <point x="174" y="0" type="line"/>
      <point x="225" y="239" type="line"/>
      <point x="265" y="239" type="line" smooth="yes"/>
      <point x="314" y="239"/>
      <point x="333" y="223"/>
      <point x="333" y="182" type="curve" smooth="yes"/>
      <point x="333" y="168"/>
      <point x="331" y="148"/>
      <point x="328" y="130" type="curve" smooth="yes"/>
      <point x="310" y="0" type="line"/>
      <point x="492" y="0" type="line"/>
      <point x="508" y="123" type="line" smooth="yes"/>
      <point x="512" y="151"/>
      <point x="519" y="196"/>
      <point x="519" y="222" type="curve" smooth="yes"/>
      <point x="519" y="295"/>
      <point x="473" y="328"/>
      <point x="372" y="328" type="curve"/>
      <point x="373" y="314" type="line"/>
      <point x="509" y="325"/>
      <point x="589" y="423"/>
      <point x="589" y="547" type="curve" smooth="yes"/>
      <point x="589" y="649"/>
      <point x="519" y="710"/>
      <point x="382" y="710" type="curve" smooth="yes"/>
      <point x="145" y="710" type="line"/>
    </contour>
    <contour>
      <point x="258" y="397" type="line"/>
      <point x="291" y="552" type="line"/>
      <point x="341" y="552" type="line" smooth="yes"/>
      <point x="378" y="552"/>
      <point x="398" y="533"/>
      <point x="398" y="499" type="curve" smooth="yes"/>
      <point x="398" y="443"/>
      <point x="365" y="397"/>
      <point x="308" y="397" type="curve" smooth="yes"/>
    </contour>
  </outline>
</glyph>
<glyph name="S" format="2">
  <advance width="600"/>
  <unicode hex="0053"/>
  <anchor x="246" y="0" name="bottom"/>
  <anchor x="383" y="710" name="top"/>
  <outline>
    <contour>
      <point x="246" y="-16" type="curve" smooth="yes"/>
      <point x="456" y="-16"/>
      <point x="546" y="95"/>
      <point x="546" y="236" type="curve" smooth="yes"/>
      <point x="546" y="320"/>
      <point x="506" y="387"/>
      <point x="387" y="422" type="curve" smooth="yes"/>
      <point x="305" y="446"/>
      <point x="274" y="459"/>
      <point x="274" y="503" type="curve" smooth="yes"/>
      <point x="274" y="545"/>
      <point x="300" y="572"/>
      <point x="352" y="572" type="curve" smooth="yes"/>
      <point x="399" y="572"/>
      <point x="420" y="557"/>
      <point x="420" y="519" type="curve" smooth="yes"/>
      <point x="420" y="503"/>
      <point x="418" y="483"/>
      <point x="416" y="473" type="curve"/>
      <point x="592" y="480" type="line"/>
      <point x="596" y="498"/>
      <point x="599" y="525"/>
      <point x="599" y="554" type="curve" smooth="yes"/>
      <point x="599" y="653"/>
      <point x="526" y="726"/>
      <point x="380" y="726" type="curve" smooth="yes"/>
      <point x="182" y="726"/>
      <point x="96" y="617"/>
      <point x="96" y="481" type="curve" smooth="yes"/>
      <point x="96" y="373"/>
      <point x="154" y="324"/>
      <point x="264" y="296" type="curve" smooth="yes"/>
      <point x="344" y="276"/>
      <point x="368" y="254"/>
      <point x="368" y="210" type="curve" smooth="yes"/>
      <point x="368" y="162"/>
      <point x="340" y="138"/>
      <point x="284" y="138" type="curve" smooth="yes"/>
      <point x="234" y="138"/>
      <point x="207" y="151"/>
      <point x="207" y="198" type="curve" smooth="yes"/>
      <point x="207" y="214"/>
      <point x="210" y="243"/>
      <point x="212" y="257" type="curve"/>
      <point x="36" y="249" type="line"/>
      <point x="31" y="225"/>
      <point x="28" y="202"/>
      <point x="28" y="161" type="curve" smooth="yes"/>
      <point x="28" y="54"/>
      <point x="93" y="-16"/>
    </contour>
  </outline>
</glyph>
<glyph name="T" format="2">
  <advance width="600"/>
  <unicode hex="0054"/>
  <anchor x="243" y="0" name="bottom"/>
  <anchor x="309" y="312" name="center"/>
  <anchor x="394" y="710" name="top"/>
  <outline>
    <contour>
      <point x="153" y="0" type="line"/>
      <point x="333" y="0" type="line"/>
      <point x="450" y="552" type="line"/>
      <point x="620" y="552" type="line"/>
      <point x="654" y="710" type="line"/>
      <point x="134" y="710" type="line"/>
      <point x="100" y="552" type="line"/>
      <point x="270" y="552" type="line"/>
    </contour>
  </outline>
</glyph>
<glyph name="U" format="2">
  <advance width="600"/>
  <unicode hex="0055"/>
  <anchor x="242" y="0" name="bottom"/>
  <anchor x="338" y="0" name="ogonek"/>
  <anchor x="393" y="710" name="top"/>
  <anchor x="474" y="710" name="topright"/>
  <outline>
    <contour>
      <point x="239" y="-16" type="curve" smooth="yes"/>
      <point x="412" y="-16"/>
      <point x="506" y="66"/>
      <point x="544" y="244" type="curve" smooth="yes"/>
      <point x="644" y="710" type="line"/>
      <point x="464" y="710" type="line"/>
      <point x="360" y="224" type="line" smooth="yes"/>
      <point x="346" y="159"/>
      <point x="312" y="138"/>
      <point x="270" y="138" type="curve" smooth="yes"/>
      <point x="234" y="138"/>
      <point x="218" y="155"/>
      <point x="218" y="192" type="curve" smooth="yes"/>
      <point x="218" y="207"/>
      <point x="223" y="238"/>
      <point x="227" y="258" type="curve" smooth="yes"/>
      <point x="324" y="710" type="line"/>
      <point x="144" y="710" type="line"/>
      <point x="53" y="284" type="line" smooth="yes"/>
      <point x="47" y="254"/>
      <point x="34" y="202"/>
      <point x="34" y="164" type="curve" smooth="yes"/>
      <point x="34" y="45"/>
      <point x="107" y="-16"/>
    </contour>
  </outline>
</glyph>
<glyph name="V" format="2">
  <advance width="600"/>
  <unicode hex="0056"/>
  <anchor x="243" y="0" name="bottom"/>
  <anchor x="394" y="710" name="top"/>
  <outline>
    <contour>
      <point x="159" y="0" type="line"/>
      <point x="327" y="0" type="line"/>
      <point x="680" y="710" type="line"/>
      <point x="488" y="710" type="line"/>
      <point x="254" y="200" type="line"/>
      <point x="314" y="200" type="line"/>
      <point x="296" y="710" type="line"/>
      <point x="108" y="710" type="line"/>
    </contour>
  </outline>
</glyph>
<glyph name="W" format="2">
  <advance width="600"/>
  <unicode hex="0057"/>
  <anchor x="243" y="0" name="bottom"/>
  <anchor x="394" y="710" name="top"/>
  <outline>
    <contour>
      <point x="23" y="0" type="line"/>
      <point x="187" y="0" type="line"/>
      <point x="332" y="360" type="line"/>
      <point x="308" y="360" type="line"/>
      <point x="299" y="0" type="line"/>
      <point x="463" y="0" type="line"/>
      <point x="674" y="710" type="line"/>
      <point x="510" y="710" type="line"/>
      <point x="388" y="230" type="line"/>
      <point x="404" y="230" type="line"/>
      <point x="422" y="630" type="line"/>
      <point x="332" y="630" type="line"/>
      <point x="180" y="230" type="line"/>
      <point x="196" y="230" type="line"/>
      <point x="278" y="710" type="line"/>
      <point x="114" y="710" type="line"/>
    </contour>
  </outline>
</glyph>
<glyph name="X" format="2">
  <advance width="600"/>
  <unicode hex="0058"/>
  <anchor x="243" y="0" name="bottom"/>
  <anchor x="394" y="710" name="top"/>
  <outline>
    <contour>
      <point x="-29" y="0" type="line"/>
      <point x="167" y="0" type="line"/>
      <point x="292" y="230" type="line"/>
      <point x="329" y="0" type="line"/>
      <point x="517" y="0" type="line"/>
      <point x="443" y="352" type="line"/>
      <point x="664" y="710" type="line"/>
      <point x="468" y="710" type="line"/>
      <point x="346" y="486" type="line"/>
      <point x="308" y="710" type="line"/>
      <point x="120" y="710" type="line"/>
      <point x="195" y="362" type="line"/>
    </contour>
  </outline>
</glyph>
<glyph name="Y" format="2">
  <advance width="600"/>
  <unicode hex="0059"/>
  <anchor x="245" y="0" name="bottom"/>
  <anchor x="388" y="710" name="top"/>
  <outline>
    <contour>
      <point x="153" y="0" type="line"/>
      <point x="333" y="0" type="line"/>
      <point x="397" y="300" type="line"/>
      <point x="674" y="710" type="line"/>
      <point x="476" y="710" type="line"/>
      <point x="340" y="484" type="line"/>
      <point x="296" y="710" type="line"/>
      <point x="114" y="710" type="line"/>
      <point x="217" y="300" type="line"/>
    </contour>
  </outline>
</glyph>
<glyph name="Z" format="2">
  <advance width="600"/>
  <unicode hex="005A"/>
  <anchor x="241" y="0" name="bottom"/>
  <anchor x="391" y="710" name="top"/>
  <outline>
    <contour>
      <point x="-15" y="0" type="line"/>
      <point x="501" y="0" type="line"/>
      <point x="534" y="158" type="line"/>
      <point x="236" y="158" type="line"/>
      <point x="606" y="554" type="line"/>
      <point x="639" y="710" type="line"/>
      <point x="149" y="710" type="line"/>
      <point x="116" y="552" type="line"/>
      <point x="394" y="552" type="line"/>
      <point x="18" y="156" type="line"/>
    </contour>
  </outline>
</glyph>
<glyph name="backslash" format="2">
  <advance width="600"/>
  <unicode hex="005C"/>
  <outline>
    <contour>
      <point x="447" y="-110" type="line"/>
      <point x="334" y="750" type="line"/>
      <point x="174" y="750" type="line"/>
      <point x="287" y="-110" type="line"/>
    </contour>
  </outline>
</glyph>
<glyph name="bracketright" format="2">
  <advance width="600"/>
  <unicode hex="005D"/>
  <outline>
    <contour>
      <point x="20" y="-110" type="line"/>
      <point x="419" y="-110" type="line"/>
      <point x="601" y="750" type="line"/>
      <point x="202" y="750" type="line"/>
      <point x="171" y="600" type="line"/>
      <point x="392" y="600" type="line"/>
      <point x="272" y="40" type="line"/>
      <point x="51" y="40" type="line"/>
    </contour>
  </outline>
</glyph>
<glyph name="asciicircum" format="2">
  <advance width="600"/>
  <unicode hex="005E"/>
  <outline>
    <contour>
      <point x="122" y="373" type="line"/>
      <point x="252" y="373" type="line"/>
      <point x="395" y="650" type="line"/>
      <point x="354" y="650" type="line"/>
      <point x="398" y="373" type="line"/>
      <point x="522" y="373" type="line"/>
      <point x="469" y="710" type="line"/>
      <point x="304" y="710" type="line"/>
    </contour>
  </outline>
</glyph>
<glyph name="underscore" format="2">
  <advance width="600"/>
  <unicode hex="005F"/>
  <outline>
    <contour>
      <point x="-29" y="-150" type="line"/>
      <point x="451" y="-150" type="line"/>
      <point x="483" y="0" type="line"/>
      <point x="3" y="0" type="line"/>
    </contour>
  </outline>
</glyph>
<glyph name="grave" format="2">
  <advance width="600"/>
  <unicode hex="0060"/>
  <outline>
    <contour>
      <point x="279" y="500" type="line"/>
      <point x="449" y="500" type="line"/>
      <point x="420" y="740" type="line"/>
      <point x="220" y="740" type="line"/>
    </contour>
  </outline>
</glyph>
<glyph name="a" format="2">
  <advance width="600"/>
  <unicode hex="0061"/>
  <anchor x="239" y="0" name="bottom"/>
  <anchor x="524" y="0" name="ogonek"/>
  <anchor x="380" y="540" name="top"/>
  <outline>
    <contour>
      <point x="160" y="-12" type="curve" smooth="yes"/>
      <point x="273" y="-12"/>
      <point x="354" y="88"/>
      <point x="388" y="168" type="curve"/>
      <point x="368" y="172" type="line"/>
      <point x="356" y="148"/>
      <point x="340" y="88"/>
      <point x="340" y="56" type="curve" smooth="yes"/>
      <point x="340" y="20"/>
      <point x="355" y="0"/>
      <point x="408" y="0" type="curve" smooth="yes"/>
      <point x="524" y="0" type="line"/>
      <point x="552" y="120" type="line"/>
      <point x="512" y="120" type="line" smooth="yes"/>
      <point x="500" y="120"/>
      <point x="492" y="124"/>
      <point x="492" y="138" type="curve" smooth="yes"/>
      <point x="492" y="154"/>
      <point x="499" y="187"/>
      <point x="506" y="218" type="curve" smooth="yes"/>
      <point x="579" y="540" type="line"/>
      <point x="336" y="540" type="line" smooth="yes"/>
      <point x="135" y="540"/>
      <point x="25" y="377"/>
      <point x="25" y="168" type="curve" smooth="yes"/>
      <point x="25" y="46"/>
      <point x="77" y="-12"/>
    </contour>
    <contour>
      <point x="244" y="134" type="curve" smooth="yes"/>
      <point x="214" y="134"/>
      <point x="201" y="156"/>
      <point x="201" y="206" type="curve" smooth="yes"/>
      <point x="201" y="318"/>
      <point x="250" y="410"/>
      <point x="340" y="410" type="curve" smooth="yes"/>
      <point x="388" y="410" type="line"/>
      <point x="364" y="292" type="line" smooth="yes"/>
      <point x="340" y="174"/>
      <point x="298" y="134"/>
    </contour>
  </outline>
</glyph>
<glyph name="b" format="2">
  <advance width="600"/>
  <unicode hex="0062"/>
  <anchor x="228" y="0" name="bottom"/>
  <anchor x="343" y="540" name="top"/>
  <outline>
    <contour>
      <point x="290" y="-12" type="curve" smooth="yes"/>
      <point x="453" y="-12"/>
      <point x="572" y="147"/>
      <point x="572" y="362" type="curve" smooth="yes"/>
      <point x="572" y="482"/>
      <point x="523" y="552"/>
      <point x="418" y="552" type="curve" smooth="yes"/>
      <point x="330" y="552"/>
      <point x="266" y="506"/>
      <point x="225" y="430" type="curve"/>
      <point x="237" y="420" type="line"/>
      <point x="299" y="710" type="line"/>
      <point x="129" y="710" type="line"/>
      <point x="-22" y="0" type="line"/>
      <point x="143" y="0" type="line"/>
      <point x="178" y="145" type="line"/>
      <point x="155" y="131" type="line"/>
      <point x="154" y="40"/>
      <point x="210" y="-12"/>
    </contour>
    <contour>
      <point x="255" y="134" type="curve" smooth="yes"/>
      <point x="217" y="134"/>
      <point x="198" y="158"/>
      <point x="198" y="206" type="curve" smooth="yes"/>
      <point x="198" y="318"/>
      <point x="247" y="406"/>
      <point x="331" y="406" type="curve" smooth="yes"/>
      <point x="369" y="406"/>
      <point x="396" y="376"/>
      <point x="396" y="328" type="curve" smooth="yes"/>
      <point x="396" y="216"/>
      <point x="339" y="134"/>
    </contour>
  </outline>
</glyph>
<glyph name="c" format="2">
  <advance width="600"/>
  <unicode hex="0063"/>
  <anchor x="250" y="0" name="bottom"/>
  <anchor x="364" y="540" name="top"/>
  <outline>
    <contour>
      <point x="246" y="-12" type="curve" smooth="yes"/>
      <point x="396" y="-12"/>
      <point x="502" y="77"/>
      <point x="537" y="210" type="curve"/>
      <point x="373" y="218" type="line"/>
      <point x="358" y="164"/>
      <point x="325" y="134"/>
      <point x="279" y="134" type="curve" smooth="yes"/>
      <point x="244" y="134"/>
      <point x="221" y="163"/>
      <point x="221" y="218" type="curve" smooth="yes"/>
      <point x="221" y="326"/>
      <point x="276" y="406"/>
      <point x="336" y="406" type="curve" smooth="yes"/>
      <point x="376" y="406"/>
      <point x="395" y="381"/>
      <point x="395" y="324" type="curve"/>
      <point x="563" y="332" type="line"/>
      <point x="563" y="470"/>
      <point x="488" y="552"/>
      <point x="364" y="552" type="curve" smooth="yes"/>
      <point x="170" y="552"/>
      <point x="45" y="402"/>
      <point x="45" y="200" type="curve" smooth="yes"/>
      <point x="45" y="73"/>
      <point x="122" y="-12"/>
    </contour>
  </outline>
</glyph>
<glyph name="d" format="2">
  <advance width="600"/>
  <unicode hex="0064"/>
  <anchor x="256" y="0" name="bottom"/>
  <anchor x="498" y="622" name="center"/>
  <anchor x="371" y="540" name="top"/>
  <anchor x="621" y="540" name="topright"/>
  <outline>
    <contour>
      <point x="178" y="-12" type="curve" smooth="yes"/>
      <point x="263" y="-12"/>
      <point x="341" y="41"/>
      <point x="381" y="134" type="curve"/>
      <point x="368" y="156" type="line"/>
      <point x="341" y="0" type="line"/>
      <point x="507" y="0" type="line"/>
      <point x="658" y="710" type="line"/>
      <point x="488" y="710" type="line"/>
      <point x="420" y="395" type="line"/>
      <point x="439" y="414" type="line"/>
      <point x="445" y="501"/>
      <point x="391" y="552"/>
      <point x="298" y="552" type="curve" smooth="yes"/>
      <point x="149" y="552"/>
      <point x="27" y="386"/>
      <point x="27" y="172" type="curve" smooth="yes"/>
      <point x="27" y="56"/>
      <point x="79" y="-12"/>
    </contour>
    <contour>
      <point x="271" y="134" type="curve" smooth="yes"/>
      <point x="225" y="134"/>
      <point x="203" y="158"/>
      <point x="203" y="209" type="curve" smooth="yes"/>
      <point x="203" y="319"/>
      <point x="258" y="406"/>
      <point x="329" y="406" type="curve" smooth="yes"/>
      <point x="375" y="406"/>
      <point x="400" y="377"/>
      <point x="400" y="322" type="curve" smooth="yes"/>
      <point x="400" y="222"/>
      <point x="339" y="134"/>
    </contour>
  </outline>
</glyph>
<glyph name="e" format="2">
  <advance width="600"/>
  <unicode hex="0065"/>
  <anchor x="246" y="0" name="bottom"/>
  <anchor x="371" y="6" name="ogonek"/>
  <anchor x="356" y="539" name="top"/>
  <outline>
    <contour>
      <point x="247" y="-12" type="curve" smooth="yes"/>
      <point x="405" y="-12"/>
      <point x="487" y="56"/>
      <point x="533" y="164" type="curve"/>
      <point x="359" y="178" type="line"/>
      <point x="349" y="143"/>
      <point x="313" y="134"/>
      <point x="273" y="134" type="curve" smooth="yes"/>
      <point x="236" y="134"/>
      <point x="200" y="148"/>
      <point x="200" y="206" type="curve" smooth="yes"/>
      <point x="200" y="336"/>
      <point x="249" y="406"/>
      <point x="335" y="406" type="curve" smooth="yes"/>
      <point x="383" y="406"/>
      <point x="400" y="382"/>
      <point x="400" y="356" type="curve" smooth="yes"/>
      <point x="400" y="342"/>
      <point x="398" y="334"/>
      <point x="396" y="324" type="curve"/>
      <point x="202" y="324" type="line"/>
      <point x="180" y="220" type="line"/>
      <point x="552" y="220" type="line"/>
      <point x="562" y="254"/>
      <point x="570" y="302"/>
      <point x="570" y="352" type="curve" smooth="yes"/>
      <point x="570" y="469"/>
      <point x="498" y="552"/>
      <point x="359" y="552" type="curve" smooth="yes"/>
      <point x="155" y="552"/>
      <point x="30" y="400"/>
      <point x="30" y="192" type="curve" smooth="yes"/>
      <point x="30" y="70"/>
      <point x="95" y="-12"/>
    </contour>
  </outline>
</glyph>
<glyph name="f" format="2">
  <advance width="600"/>
  <unicode hex="0066"/>
  <anchor x="254" y="0" name="bottom"/>
  <anchor x="405" y="710" name="top"/>
  <outline>
    <contour>
      <point x="-39" y="-150" type="line"/>
      <point x="290" y="-150" type="line"/>
      <point x="438" y="544" type="line" smooth="yes"/>
      <point x="444" y="572"/>
      <point x="456" y="580"/>
      <point x="491" y="580" type="curve" smooth="yes"/>
      <point x="615" y="580" type="line"/>
      <point x="643" y="710" type="line"/>
      <point x="471" y="710" type="line" smooth="yes"/>
      <point x="354" y="710"/>
      <point x="292" y="661"/>
      <point x="268" y="546" type="curve" smooth="yes"/>
      <point x="134" y="-88" type="line"/>
      <point x="217" y="-20" type="line"/>
      <point x="-12" y="-20" type="line"/>
    </contour>
    <contour>
      <point x="80" y="410" type="line"/>
      <point x="579" y="410" type="line"/>
      <point x="607" y="540" type="line"/>
      <point x="108" y="540" type="line"/>
    </contour>
  </outline>
</glyph>
<glyph name="g" format="2">
  <advance width="600"/>
  <unicode hex="0067"/>
  <anchor x="211" y="-150" name="bottom"/>
  <anchor x="357" y="540" name="top"/>
  <outline>
    <contour>
      <point x="232" y="48" type="curve" smooth="yes"/>
      <point x="446" y="48"/>
      <point x="524" y="209"/>
      <point x="524" y="349" type="curve" smooth="yes"/>
      <point x="524" y="449"/>
      <point x="469" y="552"/>
      <point x="328" y="552" type="curve" smooth="yes"/>
      <point x="126" y="552"/>
      <point x="34" y="390"/>
      <point x="34" y="250" type="curve" smooth="yes"/>
      <point x="34" y="120"/>
      <point x="101" y="48"/>
    </contour>
    <contour>
      <point x="258" y="194" type="curve" smooth="yes"/>
      <point x="233" y="194"/>
      <point x="210" y="216"/>
      <point x="210" y="262" type="curve" smooth="yes"/>
      <point x="210" y="352"/>
      <point x="254" y="406"/>
      <point x="304" y="406" type="curve" smooth="yes"/>
      <point x="332" y="406"/>
      <point x="348" y="383"/>
      <point x="348" y="337" type="curve" smooth="yes"/>
      <point x="348" y="247"/>
      <point x="308" y="194"/>
    </contour>
    <contour>
      <point x="391" y="410" type="line"/>
      <point x="599" y="410" type="line"/>
      <point x="627" y="540" type="line"/>
      <point x="389" y="540" type="line"/>
    </contour>
    <contour>
      <point x="120" y="-150" type="curve" smooth="yes"/>
      <point x="481" y="-150" type="line"/>
      <point x="508" y="-20" type="line"/>
      <point x="183" y="-20" type="line" smooth="yes"/>
      <point x="157" y="-20"/>
      <point x="141" y="-10"/>
      <point x="141" y="10" type="curve" smooth="yes"/>
      <point x="141" y="40"/>
      <point x="168" y="69"/>
      <point x="200" y="93" type="curve"/>
      <point x="108" y="168" type="line"/>
      <point x="13" y="97"/>
      <point x="-33" y="25"/>
      <point x="-33" y="-42" type="curve" smooth="yes"/>
      <point x="-33" y="-110"/>
      <point x="13" y="-150"/>
    </contour>
  </outline>
</glyph>
<glyph name="h" format="2">
  <advance width="600"/>
  <unicode hex="0068"/>
  <anchor x="243" y="0" name="bottom"/>
  <anchor x="275" y="622" name="center"/>
  <anchor x="254" y="710" name="top"/>
  <outline>
    <contour>
      <point x="8" y="0" type="line"/>
      <point x="178" y="0" type="line"/>
      <point x="241" y="298" type="line" smooth="yes"/>
      <point x="258" y="378"/>
      <point x="292" y="410"/>
      <point x="340" y="410" type="curve" smooth="yes"/>
      <point x="369" y="410"/>
      <point x="382" y="390"/>
      <point x="382" y="366" type="curve" smooth="yes"/>
      <point x="382" y="343"/>
      <point x="374" y="304"/>
      <point x="368" y="278" type="curve" smooth="yes"/>
      <point x="308" y="0" type="line"/>
      <point x="478" y="0" type="line"/>
      <point x="536" y="270" type="line" smooth="yes"/>
      <point x="549" y="330"/>
      <point x="562" y="391"/>
      <point x="562" y="444" type="curve" smooth="yes"/>
      <point x="562" y="502"/>
      <point x="529" y="552"/>
      <point x="436" y="552" type="curve" smooth="yes"/>
      <point x="352" y="552"/>
      <point x="283" y="508"/>
      <point x="241" y="410" type="curve"/>
      <point x="265" y="410" type="line"/>
      <point x="330" y="710" type="line"/>
      <point x="158" y="710" type="line"/>
    </contour>
  </outline>
</glyph>
<glyph name="k" format="2">
  <advance width="600"/>
  <unicode hex="006B"/>
  <anchor x="241" y="0" name="bottom"/>
  <anchor x="229" y="710" name="top"/>
  <outline>
    <contour>
      <point x="-7" y="0" type="line"/>
      <point x="163" y="0" type="line"/>
      <point x="314" y="710" type="line"/>
      <point x="144" y="710" type="line"/>
    </contour>
    <contour>
      <point x="333" y="0" type="line"/>
      <point x="521" y="0" type="line"/>
      <point x="370" y="324" type="line"/>
      <point x="244" y="214" type="line"/>
    </contour>
    <contour>
      <point x="160" y="118" type="line"/>
      <point x="637" y="540" type="line"/>
      <point x="433" y="540" type="line"/>
      <point x="202" y="334" type="line"/>
    </contour>
  </outline>
</glyph>
<glyph name="l" format="2">
  <advance width="600"/>
  <unicode hex="006C"/>
  <anchor x="248" y="0" name="bottom"/>
  <anchor x="320" y="360" name="center"/>
  <anchor x="374" y="710" name="top"/>
  <anchor x="447" y="540" name="topright"/>
  <outline>
    <contour>
      <point x="312" y="0" type="curve" smooth="yes"/>
      <point x="513" y="0" type="line"/>
      <point x="540" y="130" type="line"/>
      <point x="413" y="130" type="line" smooth="yes"/>
      <point x="373" y="130"/>
      <point x="356" y="146"/>
      <point x="356" y="170" type="curve" smooth="yes"/>
      <point x="356" y="190"/>
      <point x="363" y="223"/>
      <point x="373" y="268" type="curve" smooth="yes"/>
      <point x="467" y="710" type="line"/>
      <point x="124" y="710" type="line"/>
      <point x="97" y="580" type="line"/>
      <point x="338" y="580" type="line"/>
      <point x="283" y="648" type="line"/>
      <point x="203" y="268" type="line" smooth="yes"/>
      <point x="190" y="207"/>
      <point x="178" y="152"/>
      <point x="178" y="107" type="curve" smooth="yes"/>
      <point x="178" y="35"/>
      <point x="215" y="0"/>
    </contour>
  </outline>
</glyph>
<glyph name="m" format="2">
  <advance width="600"/>
  <unicode hex="006D"/>
  <anchor x="244" y="0" name="bottom"/>
  <anchor x="383" y="540" name="top"/>
  <outline>
    <contour>
      <point x="-37" y="0" type="line"/>
      <point x="119" y="0" type="line"/>
      <point x="193" y="348" type="line" smooth="yes"/>
      <point x="203" y="393"/>
      <point x="215" y="410"/>
      <point x="236" y="410" type="curve" smooth="yes"/>
      <point x="247" y="410"/>
      <point x="253" y="405"/>
      <point x="253" y="388" type="curve" smooth="yes"/>
      <point x="253" y="379"/>
      <point x="251" y="366"/>
      <point x="247" y="348" type="curve" smooth="yes"/>
      <point x="173" y="0" type="line"/>
      <point x="313" y="0" type="line"/>
      <point x="387" y="348" type="line" smooth="yes"/>
      <point x="397" y="393"/>
      <point x="412" y="410"/>
      <point x="431" y="410" type="curve" smooth="yes"/>
      <point x="441" y="410"/>
      <point x="447" y="406"/>
      <point x="447" y="390" type="curve" smooth="yes"/>
      <point x="447" y="381"/>
      <point x="445" y="367"/>
      <point x="441" y="348" type="curve" smooth="yes"/>
      <point x="367" y="0" type="line"/>
      <point x="523" y="0" type="line"/>
      <point x="605" y="386" type="line" smooth="yes"/>
      <point x="611" y="413"/>
      <point x="614" y="437"/>
      <point x="614" y="458" type="curve" smooth="yes"/>
      <point x="614" y="520"/>
      <point x="587" y="552"/>
      <point x="531" y="552" type="curve" smooth="yes"/>
      <point x="467" y="552"/>
      <point x="409" y="508"/>
      <point x="373" y="414" type="curve"/>
      <point x="391" y="414" type="line"/>
      <point x="392" y="430"/>
      <point x="393" y="445"/>
      <point x="393" y="458" type="curve" smooth="yes"/>
      <point x="393" y="522"/>
      <point x="375" y="552"/>
      <point x="319" y="552" type="curve" smooth="yes"/>
      <point x="264" y="552"/>
      <point x="218" y="511"/>
      <point x="178" y="417" type="curve"/>
      <point x="190" y="413" type="line"/>
      <point x="211" y="540" type="line"/>
      <point x="78" y="540" type="line"/>
    </contour>
  </outline>
</glyph>
<glyph name="n" format="2">
  <advance width="600"/>
  <unicode hex="006E"/>
  <anchor x="240" y="0" name="bottom"/>
  <anchor x="355" y="540" name="top"/>
  <outline>
    <contour>
      <point x="3" y="0" type="line"/>
      <point x="173" y="0" type="line"/>
      <point x="238" y="306" type="line" smooth="yes"/>
      <point x="253" y="376"/>
      <point x="296" y="410"/>
      <point x="338" y="410" type="curve" smooth="yes"/>
      <point x="371" y="410"/>
      <point x="386" y="388"/>
      <point x="386" y="362" type="curve" smooth="yes"/>
      <point x="386" y="350"/>
      <point x="384" y="333"/>
      <point x="380" y="316" type="curve" smooth="yes"/>
      <point x="313" y="0" type="line"/>
      <point x="483" y="0" type="line"/>
      <point x="552" y="328" type="line" smooth="yes"/>
      <point x="560" y="364"/>
      <point x="566" y="399"/>
      <point x="566" y="428" type="curve" smooth="yes"/>
      <point x="566" y="506"/>
      <point x="526" y="552"/>
      <point x="440" y="552" type="curve" smooth="yes"/>
      <point x="348" y="552"/>
      <point x="272" y="502"/>
      <point x="230" y="390" type="curve"/>
      <point x="245" y="386" type="line"/>
      <point x="273" y="540" type="line"/>
      <point x="118" y="540" type="line"/>
    </contour>
  </outline>
</glyph>
<glyph name="o" format="2">
  <advance width="600"/>
  <unicode hex="006F"/>
  <anchor x="243" y="0" name="bottom"/>
  <anchor x="300" y="270" name="center"/>
  <anchor x="485" y="10" name="ogonek"/>
  <anchor x="355" y="540" name="top"/>
  <anchor x="417" y="540" name="topright"/>
  <outline>
    <contour>
      <point x="246" y="-12" type="curve" smooth="yes"/>
      <point x="470" y="-12"/>
      <point x="571" y="149"/>
      <point x="571" y="349" type="curve" smooth="yes"/>
      <point x="571" y="479"/>
      <point x="492" y="552"/>
      <point x="354" y="552" type="curve" smooth="yes"/>
      <point x="130" y="552"/>
      <point x="29" y="390"/>
      <point x="29" y="190" type="curve" smooth="yes"/>
      <point x="29" y="60"/>
      <point x="108" y="-12"/>
    </contour>
    <contour>
      <point x="272" y="134" type="curve" smooth="yes"/>
      <point x="230" y="134"/>
      <point x="207" y="156"/>
      <point x="207" y="212" type="curve" smooth="yes"/>
      <point x="207" y="322"/>
      <point x="259" y="406"/>
      <point x="328" y="406" type="curve" smooth="yes"/>
      <point x="370" y="406"/>
      <point x="393" y="383"/>
      <point x="393" y="327" type="curve" smooth="yes"/>
      <point x="393" y="217"/>
      <point x="340" y="134"/>
    </contour>
  </outline>
</glyph>
<glyph name="p" format="2">
  <advance width="600"/>
  <unicode hex="0070"/>
  <anchor x="257" y="0" name="bottom"/>
  <anchor x="372" y="540" name="top"/>
  <outline>
    <contour>
      <point x="-35" y="-150" type="line"/>
      <point x="135" y="-150" type="line"/>
      <point x="193" y="123" type="line"/>
      <point x="175" y="110" type="line"/>
      <point x="191" y="24"/>
      <point x="236" y="-12"/>
      <point x="323" y="-12" type="curve" smooth="yes"/>
      <point x="470" y="-12"/>
      <point x="596" y="164"/>
      <point x="596" y="369" type="curve" smooth="yes"/>
      <point x="596" y="486"/>
      <point x="541" y="552"/>
      <point x="443" y="552" type="curve" smooth="yes"/>
      <point x="353" y="552"/>
      <point x="290" y="504"/>
      <point x="245" y="420" type="curve"/>
      <point x="256" y="414" type="line"/>
      <point x="278" y="540" type="line"/>
      <point x="112" y="540" type="line"/>
    </contour>
    <contour>
      <point x="275" y="134" type="curve" smooth="yes"/>
      <point x="237" y="134"/>
      <point x="218" y="158"/>
      <point x="218" y="206" type="curve" smooth="yes"/>
      <point x="218" y="318"/>
      <point x="267" y="406"/>
      <point x="351" y="406" type="curve" smooth="yes"/>
      <point x="389" y="406"/>
      <point x="416" y="376"/>
      <point x="416" y="328" type="curve" smooth="yes"/>
      <point x="416" y="216"/>
      <point x="359" y="134"/>
    </contour>
  </outline>
</glyph>
<glyph name="q" format="2">
  <advance width="600"/>
  <unicode hex="0071"/>
  <anchor x="361" y="0" name="bottom"/>
  <anchor x="476" y="540" name="top"/>
  <outline>
    <contour>
      <point x="474" y="-150" type="line"/>
      <point x="621" y="540" type="line"/>
      <point x="455" y="540" type="line"/>
      <point x="423" y="414" type="line"/>
      <point x="437" y="420" type="line"/>
      <point x="427" y="504"/>
      <point x="385" y="552"/>
      <point x="295" y="552" type="curve" smooth="yes"/>
      <point x="149" y="552"/>
      <point x="26" y="378"/>
      <point x="26" y="171" type="curve" smooth="yes"/>
      <point x="26" y="53"/>
      <point x="79" y="-12"/>
      <point x="175" y="-12" type="curve" smooth="yes"/>
      <point x="262" y="-12"/>
      <point x="322" y="24"/>
      <point x="375" y="110" type="curve"/>
      <point x="362" y="123" type="line"/>
      <point x="304" y="-150" type="line"/>
    </contour>
    <contour>
      <point x="270" y="134" type="curve" smooth="yes"/>
      <point x="224" y="134"/>
      <point x="202" y="158"/>
      <point x="202" y="209" type="curve" smooth="yes"/>
      <point x="202" y="319"/>
      <point x="257" y="406"/>
      <point x="328" y="406" type="curve" smooth="yes"/>
      <point x="374" y="406"/>
      <point x="399" y="377"/>
      <point x="399" y="322" type="curve" smooth="yes"/>
      <point x="399" y="222"/>
      <point x="338" y="134"/>
    </contour>
  </outline>
</glyph>
<glyph name="r" format="2">
  <advance width="600"/>
  <unicode hex="0072"/>
  <anchor x="204" y="0" name="bottom"/>
  <anchor x="382" y="540" name="top"/>
  <outline>
    <contour>
      <point x="-12" y="0" type="line"/>
      <point x="440" y="0" type="line"/>
      <point x="467" y="130" type="line"/>
      <point x="307" y="130" type="line"/>
      <point x="343" y="300" type="line" smooth="yes"/>
      <point x="359" y="372"/>
      <point x="398" y="406"/>
      <point x="472" y="406" type="curve" smooth="yes"/>
      <point x="584" y="406" type="line"/>
      <point x="612" y="540" type="line"/>
      <point x="484" y="540" type="line" smooth="yes"/>
      <point x="390" y="540"/>
      <point x="342" y="485"/>
      <point x="312" y="383" type="curve"/>
      <point x="322" y="367" type="line"/>
      <point x="344" y="540" type="line"/>
      <point x="102" y="540" type="line"/>
      <point x="75" y="410" type="line"/>
      <point x="197" y="410" type="line"/>
      <point x="137" y="130" type="line"/>
      <point x="15" y="130" type="line"/>
    </contour>
  </outline>
</glyph>
<glyph name="s" format="2">
  <advance width="600"/>
  <unicode hex="0073"/>
  <anchor x="251" y="0" name="bottom"/>
  <anchor x="365" y="540" name="top"/>
  <outline>
    <contour>
      <point x="252" y="-12" type="curve" smooth="yes"/>
      <point x="436" y="-12"/>
      <point x="526" y="70"/>
      <point x="526" y="176" type="curve" smooth="yes"/>
      <point x="526" y="254"/>
      <point x="492" y="300"/>
      <point x="344" y="336" type="curve" smooth="yes"/>
      <point x="288" y="350"/>
      <point x="270" y="357"/>
      <point x="270" y="382" type="curve" smooth="yes"/>
      <point x="270" y="398"/>
      <point x="282" y="410"/>
      <point x="305" y="410" type="curve" smooth="yes"/>
      <point x="547" y="410" type="line"/>
      <point x="574" y="540" type="line"/>
      <point x="326" y="540" type="line" smooth="yes"/>
      <point x="158" y="540"/>
      <point x="102" y="470"/>
      <point x="102" y="368" type="curve" smooth="yes"/>
      <point x="102" y="284"/>
      <point x="144" y="242"/>
      <point x="264" y="214" type="curve" smooth="yes"/>
      <point x="340" y="196"/>
      <point x="356" y="188"/>
      <point x="356" y="160" type="curve" smooth="yes"/>
      <point x="356" y="130"/>
      <point x="329" y="120"/>
      <point x="274" y="120" type="curve" smooth="yes"/>
      <point x="220" y="120"/>
      <point x="200" y="136"/>
      <point x="196" y="174" type="curve"/>
      <point x="27" y="162" type="line"/>
      <point x="34" y="46"/>
      <point x="108" y="-12"/>
    </contour>
  </outline>
</glyph>
<glyph name="t" format="2">
  <advance width="600"/>
  <unicode hex="0074"/>
  <anchor x="272" y="0" name="bottom"/>
  <anchor x="281" y="278" name="center"/>
  <anchor x="337" y="540" name="top"/>
  <anchor x="427" y="682" name="topright"/>
  <outline>
    <contour>
      <point x="278" y="0" type="curve" smooth="yes"/>
      <point x="493" y="0" type="line"/>
      <point x="520" y="130" type="line"/>
      <point x="379" y="130" type="line" smooth="yes"/>
      <point x="339" y="130"/>
      <point x="322" y="146"/>
      <point x="322" y="170" type="curve" smooth="yes"/>
      <point x="322" y="190"/>
      <point x="329" y="223"/>
      <point x="339" y="268" type="curve" smooth="yes"/>
      <point x="425" y="667" type="line"/>
      <point x="255" y="667" type="line"/>
      <point x="169" y="268" type="line" smooth="yes"/>
      <point x="156" y="207"/>
      <point x="143" y="151"/>
      <point x="143" y="106" type="curve" smooth="yes"/>
      <point x="143" y="34"/>
      <point x="181" y="0"/>
    </contour>
    <contour>
      <point x="50" y="410" type="line"/>
      <point x="579" y="410" type="line"/>
      <point x="607" y="540" type="line"/>
      <point x="78" y="540" type="line"/>
    </contour>
  </outline>
</glyph>
<glyph name="u" format="2">
  <advance width="600"/>
  <unicode hex="0075"/>
  <anchor x="242" y="0" name="bottom"/>
  <anchor x="478" y="0" name="ogonek"/>
  <anchor x="357" y="540" name="top"/>
  <anchor x="423" y="540" name="topright"/>
  <outline>
    <contour>
      <point x="158" y="-12" type="curve" smooth="yes"/>
      <point x="267" y="-12"/>
      <point x="342" y="47"/>
      <point x="379" y="168" type="curve"/>
      <point x="357" y="170" type="line"/>
      <point x="328" y="0" type="line"/>
      <point x="478" y="0" type="line"/>
      <point x="593" y="540" type="line"/>
      <point x="423" y="540" type="line"/>
      <point x="361" y="246" type="line" smooth="yes"/>
      <point x="344" y="168"/>
      <point x="308" y="130"/>
      <point x="258" y="130" type="curve" smooth="yes"/>
      <point x="230" y="130"/>
      <point x="218" y="145"/>
      <point x="218" y="172" type="curve" smooth="yes"/>
      <point x="218" y="197"/>
      <point x="224" y="225"/>
      <point x="230" y="253" type="curve" smooth="yes"/>
      <point x="291" y="540" type="line"/>
      <point x="121" y="540" type="line"/>
      <point x="55" y="229" type="line" smooth="yes"/>
      <point x="47" y="192"/>
      <point x="40" y="156"/>
      <point x="40" y="114" type="curve" smooth="yes"/>
      <point x="40" y="37"/>
      <point x="84" y="-12"/>
    </contour>
  </outline>
</glyph>
<glyph name="v" format="2">
  <advance width="600"/>
  <unicode hex="0076"/>
  <anchor x="243" y="0" name="bottom"/>
  <anchor x="357" y="540" name="top"/>
  <outline>
    <contour>
      <point x="141" y="0" type="line"/>
      <point x="345" y="0" type="line"/>
      <point x="631" y="540" type="line"/>
      <point x="445" y="540" type="line"/>
      <point x="279" y="190" type="line"/>
      <point x="253" y="540" type="line"/>
      <point x="83" y="540" type="line"/>
    </contour>
  </outline>
</glyph>
<glyph name="w" format="2">
  <advance width="600"/>
  <unicode hex="0077"/>
  <anchor x="242" y="0" name="bottom"/>
  <anchor x="357" y="540" name="top"/>
  <outline>
    <contour>
      <point x="36" y="0" type="line"/>
      <point x="184" y="0" type="line"/>
      <point x="288" y="218" type="line"/>
      <point x="300" y="0" type="line"/>
      <point x="448" y="0" type="line"/>
      <point x="643" y="540" type="line"/>
      <point x="475" y="540" type="line"/>
      <point x="396" y="252" type="line"/>
      <point x="390" y="460" type="line"/>
      <point x="290" y="460" type="line"/>
      <point x="196" y="252" type="line"/>
      <point x="231" y="540" type="line"/>
      <point x="71" y="540" type="line"/>
    </contour>
  </outline>
</glyph>
<glyph name="x" format="2">
  <advance width="600"/>
  <unicode hex="0078"/>
  <anchor x="243" y="0" name="bottom"/>
  <anchor x="357" y="540" name="top"/>
  <outline>
    <contour>
      <point x="-47" y="0" type="line"/>
      <point x="137" y="0" type="line"/>
      <point x="279" y="162" type="line"/>
      <point x="359" y="0" type="line"/>
      <point x="533" y="0" type="line"/>
      <point x="395" y="272" type="line"/>
      <point x="638" y="540" type="line"/>
      <point x="454" y="540" type="line"/>
      <point x="324" y="392" type="line"/>
      <point x="249" y="540" type="line"/>
      <point x="75" y="540" type="line"/>
      <point x="209" y="280" type="line"/>
    </contour>
  </outline>
</glyph>
<glyph name="y" format="2">
  <advance width="600"/>
  <unicode hex="0079"/>
  <anchor x="448" y="0" name="bottom"/>
  <anchor x="356" y="540" name="top"/>
  <outline>
    <contour>
      <point x="-14" y="-150" type="line"/>
      <point x="114" y="-150" type="line" smooth="yes"/>
      <point x="204" y="-150"/>
      <point x="273" y="-122"/>
      <point x="321" y="-36" type="curve" smooth="yes"/>
      <point x="639" y="540" type="line"/>
      <point x="457" y="540" type="line"/>
      <point x="264" y="152" type="line"/>
      <point x="306" y="146" type="line"/>
      <point x="241" y="540" type="line"/>
      <point x="75" y="540" type="line"/>
      <point x="160" y="50" type="line"/>
      <point x="210" y="50" type="line"/>
      <point x="191" y="16" type="line" smooth="yes"/>
      <point x="175" y="-13"/>
      <point x="156" y="-20"/>
      <point x="123" y="-20" type="curve" smooth="yes"/>
      <point x="13" y="-20" type="line"/>
    </contour>
  </outline>
</glyph>
<glyph name="z" format="2">
  <advance width="600"/>
  <unicode hex="007A"/>
  <anchor x="245" y="0" name="bottom"/>
  <anchor x="359" y="540" name="top"/>
  <outline>
    <contour>
      <point x="106" y="0" type="line"/>
      <point x="558" y="402" type="line"/>
      <point x="587" y="540" type="line"/>
      <point x="127" y="540" type="line"/>
      <point x="100" y="410" type="line"/>
      <point x="370" y="410" type="line"/>
      <point x="14" y="100" type="line"/>
    </contour>
    <contour>
      <point x="440" y="-58" type="line"/>
      <point x="508" y="74" type="line"/>
      <point x="260" y="242" type="line"/>
      <point x="174" y="126" type="line"/>
    </contour>
  </outline>
</glyph>
<glyph name="braceleft" format="2">
  <advance width="600"/>
  <unicode hex="007B"/>
  <outline>
    <contour>
      <point x="320" y="-132" type="curve" smooth="yes"/>
      <point x="414" y="-132" type="line"/>
      <point x="446" y="18" type="line"/>
      <point x="392" y="18" type="line" smooth="yes"/>
      <point x="352" y="18"/>
      <point x="331" y="31"/>
      <point x="331" y="67" type="curve" smooth="yes"/>
      <point x="331" y="92"/>
      <point x="353" y="158"/>
      <point x="353" y="198" type="curve" smooth="yes"/>
      <point x="353" y="267"/>
      <point x="304" y="308"/>
      <point x="232" y="311" type="curve"/>
      <point x="235" y="321" type="line"/>
      <point x="319" y="325"/>
      <point x="392" y="367"/>
      <point x="414" y="469" type="curve" smooth="yes"/>
      <point x="428" y="534" type="line" smooth="yes"/>
      <point x="438" y="582"/>
      <point x="467" y="614"/>
      <point x="519" y="614" type="curve" smooth="yes"/>
      <point x="573" y="614" type="line"/>
      <point x="605" y="764" type="line"/>
      <point x="511" y="764" type="line" smooth="yes"/>
      <point x="371" y="764"/>
      <point x="289" y="681"/>
      <point x="264" y="564" type="curve" smooth="yes"/>
      <point x="247" y="481" type="line" smooth="yes"/>
      <point x="230" y="401"/>
      <point x="201" y="390"/>
      <point x="126" y="391" type="curve"/>
      <point x="95" y="241" type="line"/>
      <point x="155" y="241"/>
      <point x="181" y="234"/>
      <point x="181" y="192" type="curve" smooth="yes"/>
      <point x="181" y="142"/>
      <point x="153" y="63"/>
      <point x="153" y="11" type="curve" smooth="yes"/>
      <point x="153" y="-75"/>
      <point x="204" y="-132"/>
    </contour>
  </outline>
</glyph>
<glyph name="bar" format="2">
  <advance width="600"/>
  <unicode hex="007C"/>
  <outline>
    <contour>
      <point x="139" y="-110" type="line"/>
      <point x="299" y="-110" type="line"/>
      <point x="482" y="750" type="line"/>
      <point x="322" y="750" type="line"/>
    </contour>
  </outline>
</glyph>
<glyph name="asciitilde" format="2">
  <advance width="600"/>
  <unicode hex="007E"/>
  <outline>
    <contour>
      <point x="379" y="242" type="curve" smooth="yes"/>
      <point x="469" y="242"/>
      <point x="530" y="308"/>
      <point x="554" y="421" type="curve"/>
      <point x="429" y="421" type="line"/>
      <point x="420" y="377"/>
      <point x="407" y="356"/>
      <point x="385" y="356" type="curve" smooth="yes"/>
      <point x="369" y="356"/>
      <point x="360" y="362"/>
      <point x="345" y="382" type="curve" smooth="yes"/>
      <point x="321" y="414"/>
      <point x="293" y="424"/>
      <point x="246" y="424" type="curve" smooth="yes"/>
      <point x="156" y="424"/>
      <point x="96" y="357"/>
      <point x="73" y="245" type="curve"/>
      <point x="199" y="245" type="line"/>
      <point x="208" y="288"/>
      <point x="224" y="310"/>
      <point x="245" y="310" type="curve" smooth="yes"/>
      <point x="259" y="310"/>
      <point x="268" y="304"/>
      <point x="284" y="283" type="curve" smooth="yes"/>
      <point x="306" y="254"/>
      <point x="333" y="242"/>
    </contour>
  </outline>
</glyph>
<glyph name="cent" format="2">
  <advance width="600"/>
  <unicode hex="00A2"/>
  <anchor x="268" y="83" name="bottom"/>
  <anchor x="382" y="623" name="top"/>
  <outline>
    <contour>
      <point x="178" y="-12" type="line"/>
      <point x="254" y="-12" type="line"/>
      <point x="473" y="725" type="line"/>
      <point x="397" y="725" type="line"/>
    </contour>
    <component base="c" xOffset="18" yOffset="83"/>
  </outline>
</glyph>
<glyph name="sterling" format="2">
  <advance width="600"/>
  <unicode hex="00A3"/>
  <outline>
    <contour>
      <point x="-26" y="0" type="line"/>
      <point x="503" y="3" type="line"/>
      <point x="536" y="160" type="line"/>
      <point x="199" y="160" type="line"/>
      <point x="253" y="186"/>
      <point x="326" y="255"/>
      <point x="326" y="375" type="curve" smooth="yes"/>
      <point x="326" y="527"/>
      <point x="348" y="569"/>
      <point x="396" y="569" type="curve" smooth="yes"/>
      <point x="426" y="569"/>
      <point x="441" y="545"/>
      <point x="441" y="508" type="curve"/>
      <point x="622" y="515" type="line"/>
      <point x="622" y="637"/>
      <point x="561" y="726"/>
      <point x="430" y="726" type="curve" smooth="yes"/>
      <point x="216" y="726"/>
      <point x="152" y="628"/>
      <point x="152" y="374" type="curve" smooth="yes"/>
      <point x="152" y="216"/>
      <point x="87" y="164"/>
      <point x="2" y="132" type="curve"/>
    </contour>
    <contour>
      <point x="38" y="306" type="line"/>
      <point x="451" y="306" type="line"/>
      <point x="469" y="392" type="line"/>
      <point x="56" y="392" type="line"/>
    </contour>
  </outline>
</glyph>
<glyph name="currency" format="2">
  <advance width="600"/>
  <unicode hex="00A4"/>
  <outline>
    <contour>
      <point x="273" y="148" type="curve" smooth="yes"/>
      <point x="429" y="148"/>
      <point x="556" y="273"/>
      <point x="556" y="425" type="curve" smooth="yes"/>
      <point x="556" y="531"/>
      <point x="479" y="606"/>
      <point x="371" y="606" type="curve" smooth="yes"/>
      <point x="215" y="606"/>
      <point x="88" y="483"/>
      <point x="88" y="329" type="curve" smooth="yes"/>
      <point x="88" y="223"/>
      <point x="165" y="148"/>
    </contour>
    <contour>
      <point x="300" y="274" type="curve" smooth="yes"/>
      <point x="248" y="274"/>
      <point x="217" y="304"/>
      <point x="217" y="356" type="curve" smooth="yes"/>
      <point x="217" y="432"/>
      <point x="279" y="480"/>
      <point x="344" y="480" type="curve" smooth="yes"/>
      <point x="399" y="480"/>
      <point x="427" y="450"/>
      <point x="427" y="398" type="curve" smooth="yes"/>
      <point x="427" y="322"/>
      <point x="364" y="274"/>
    </contour>
    <contour>
      <point x="55" y="96" type="line"/>
      <point x="216" y="229" type="line"/>
      <point x="167" y="289" type="line"/>
      <point x="6" y="157" type="line"/>
    </contour>
    <contour>
      <point x="474" y="98" type="line"/>
      <point x="545" y="157" type="line"/>
      <point x="440" y="289" type="line"/>
      <point x="370" y="231" type="line"/>
    </contour>
    <contour>
      <point x="479" y="466" type="line"/>
      <point x="640" y="598" type="line"/>
      <point x="591" y="659" type="line"/>
      <point x="431" y="526" type="line"/>
    </contour>
    <contour>
      <point x="205" y="466" type="line"/>
      <point x="276" y="524" type="line"/>
      <point x="171" y="657" type="line"/>
      <point x="100" y="598" type="line"/>
    </contour>
  </outline>
</glyph>
<glyph name="yen" format="2">
  <advance width="600"/>
  <unicode hex="00A5"/>
  <anchor x="245" y="0" name="bottom"/>
  <anchor x="388" y="710" name="top"/>
  <outline>
    <contour>
      <point x="23" y="111" type="line"/>
      <point x="523" y="111" type="line"/>
      <point x="543" y="205" type="line"/>
      <point x="43" y="205" type="line"/>
    </contour>
    <contour>
      <point x="57" y="268" type="line"/>
      <point x="557" y="268" type="line"/>
      <point x="577" y="362" type="line"/>
      <point x="77" y="362" type="line"/>
    </contour>
    <component base="Y"/>
  </outline>
</glyph>
<glyph name="brokenbar" format="2">
  <advance width="600"/>
  <unicode hex="00A6"/>
  <outline>
    <contour>
      <point x="247" y="395" type="line"/>
      <point x="406" y="395" type="line"/>
      <point x="482" y="750" type="line"/>
      <point x="323" y="750" type="line"/>
    </contour>
    <contour>
      <point x="140" y="-110" type="line"/>
      <point x="299" y="-110" type="line"/>
      <point x="375" y="245" type="line"/>
      <point x="216" y="245" type="line"/>
    </contour>
  </outline>
</glyph>
<glyph name="section" format="2">
  <advance width="600"/>
  <unicode hex="00A7"/>
  <outline>
    <contour>
      <point x="244" y="-67" type="curve" smooth="yes"/>
      <point x="423" y="-67"/>
      <point x="524" y="12"/>
      <point x="524" y="120" type="curve" smooth="yes"/>
      <point x="524" y="160"/>
      <point x="508" y="193"/>
      <point x="469" y="215" type="curve"/>
      <point x="547" y="248"/>
      <point x="571" y="289"/>
      <point x="571" y="343" type="curve" smooth="yes"/>
      <point x="571" y="428"/>
      <point x="526" y="471"/>
      <point x="367" y="500" type="curve" smooth="yes"/>
      <point x="324" y="508"/>
      <point x="299" y="521"/>
      <point x="299" y="546" type="curve" smooth="yes"/>
      <point x="299" y="582"/>
      <point x="326" y="603"/>
      <point x="373" y="603" type="curve" smooth="yes"/>
      <point x="414" y="603"/>
      <point x="435" y="576"/>
      <point x="435" y="532" type="curve"/>
      <point x="616" y="538" type="line"/>
      <point x="616" y="663"/>
      <point x="551" y="726"/>
      <point x="403" y="726" type="curve" smooth="yes"/>
      <point x="217" y="726"/>
      <point x="111" y="657"/>
      <point x="110" y="528" type="curve" smooth="yes"/>
      <point x="110" y="495"/>
      <point x="128" y="467"/>
      <point x="165" y="444" type="curve"/>
      <point x="103" y="414"/>
      <point x="61" y="368"/>
      <point x="61" y="303" type="curve" smooth="yes"/>
      <point x="61" y="225"/>
      <point x="103" y="186"/>
      <point x="217" y="168" type="curve" smooth="yes"/>
      <point x="319" y="152"/>
      <point x="337" y="133"/>
      <point x="337" y="104" type="curve" smooth="yes"/>
      <point x="337" y="74"/>
      <point x="308" y="59"/>
      <point x="264" y="59" type="curve" smooth="yes"/>
      <point x="211" y="59"/>
      <point x="193" y="82"/>
      <point x="193" y="126" type="curve"/>
      <point x="7" y="117" type="line"/>
      <point x="7" y="-14"/>
      <point x="74" y="-67"/>
    </contour>
    <contour>
      <point x="308" y="274" type="curve" smooth="yes"/>
      <point x="258" y="274"/>
      <point x="238" y="295"/>
      <point x="238" y="323" type="curve" smooth="yes"/>
      <point x="238" y="360"/>
      <point x="265" y="387"/>
      <point x="325" y="387" type="curve" smooth="yes"/>
      <point x="373" y="387"/>
      <point x="400" y="366"/>
      <point x="400" y="338" type="curve" smooth="yes"/>
      <point x="400" y="296"/>
      <point x="373" y="274"/>
    </contour>
  </outline>
</glyph>
<glyph name="copyright" format="2">
  <advance width="600"/>
  <unicode hex="00A9"/>
  <outline>
    <contour>
      <point x="239" y="-12" type="curve" smooth="yes"/>
      <point x="463" y="-12"/>
      <point x="615" y="179"/>
      <point x="615" y="469" type="curve" smooth="yes"/>
      <point x="615" y="629"/>
      <point x="535" y="726"/>
      <point x="395" y="726" type="curve" smooth="yes"/>
      <point x="171" y="726"/>
      <point x="22" y="534"/>
      <point x="22" y="244" type="curve" smooth="yes"/>
      <point x="22" y="84"/>
      <point x="99" y="-12"/>
    </contour>
    <contour>
      <point x="256" y="68" type="curve" smooth="yes"/>
      <point x="154" y="68"/>
      <point x="106" y="117"/>
      <point x="106" y="265" type="curve" smooth="yes"/>
      <point x="106" y="495"/>
      <point x="218" y="646"/>
      <point x="378" y="646" type="curve" smooth="yes"/>
      <point x="481" y="646"/>
      <point x="531" y="595"/>
      <point x="531" y="447" type="curve" smooth="yes"/>
      <point x="531" y="217"/>
      <point x="416" y="68"/>
    </contour>
    <contour>
      <point x="286" y="164" type="curve" smooth="yes"/>
      <point x="382" y="164"/>
      <point x="452" y="225"/>
      <point x="481" y="317" type="curve"/>
      <point x="357" y="322" type="line"/>
      <point x="347" y="282"/>
      <point x="330" y="260"/>
      <point x="309" y="260" type="curve" smooth="yes"/>
      <point x="292" y="260"/>
      <point x="284" y="274"/>
      <point x="284" y="313" type="curve" smooth="yes"/>
      <point x="284" y="403"/>
      <point x="318" y="456"/>
      <point x="344" y="456" type="curve" smooth="yes"/>
      <point x="359" y="456"/>
      <point x="368" y="438"/>
      <point x="368" y="402" type="curve"/>
      <point x="492" y="407" type="line"/>
      <point x="492" y="501"/>
      <point x="444" y="552"/>
      <point x="354" y="552" type="curve" smooth="yes"/>
      <point x="236" y="552"/>
      <point x="148" y="449"/>
      <point x="148" y="300" type="curve" smooth="yes"/>
      <point x="148" y="220"/>
      <point x="196" y="164"/>
    </contour>
  </outline>
</glyph>
<glyph name="ordfeminine" format="2">
  <advance width="600"/>
  <unicode hex="00AA"/>
  <outline>
    <contour>
      <point x="256" y="376" type="curve" smooth="yes"/>
      <point x="356" y="376"/>
      <point x="402" y="452"/>
      <point x="418" y="496" type="curve"/>
      <point x="402" y="498" type="line"/>
      <point x="396" y="482"/>
      <point x="386" y="442"/>
      <point x="386" y="422" type="curve" smooth="yes"/>
      <point x="386" y="398"/>
      <point x="401" y="382"/>
      <point x="438" y="382" type="curve" smooth="yes"/>
      <point x="523" y="382" type="line"/>
      <point x="541" y="462" type="line"/>
      <point x="502" y="462" type="line" smooth="yes"/>
      <point x="492" y="462"/>
      <point x="488" y="464"/>
      <point x="488" y="473" type="curve" smooth="yes"/>
      <point x="488" y="483"/>
      <point x="492" y="501"/>
      <point x="496" y="520" type="curve" smooth="yes"/>
      <point x="542" y="722" type="line"/>
      <point x="380" y="722" type="line" smooth="yes"/>
      <point x="244" y="722"/>
      <point x="153" y="629"/>
      <point x="153" y="489" type="curve" smooth="yes"/>
      <point x="153" y="412"/>
      <point x="188" y="376"/>
    </contour>
    <contour>
      <point x="318" y="460" type="curve" smooth="yes"/>
      <point x="295" y="460"/>
      <point x="286" y="476"/>
      <point x="286" y="510" type="curve" smooth="yes"/>
      <point x="286" y="580"/>
      <point x="325" y="642"/>
      <point x="382" y="642" type="curve" smooth="yes"/>
      <point x="408" y="642" type="line"/>
      <point x="390" y="552" type="line" smooth="yes"/>
      <point x="376" y="484"/>
      <point x="342" y="460"/>
    </contour>
  </outline>
</glyph>
<glyph name="logicalnot" format="2">
  <advance width="600"/>
  <unicode hex="00AC"/>
  <outline>
    <contour>
      <point x="357" y="66" type="line"/>
      <point x="477" y="66" type="line"/>
      <point x="535" y="340" type="line"/>
      <point x="95" y="340" type="line"/>
      <point x="70" y="220" type="line"/>
      <point x="390" y="220" type="line"/>
    </contour>
  </outline>
</glyph>
<glyph name="registered" format="2">
  <advance width="600"/>
  <unicode hex="00AE"/>
  <outline>
    <contour>
      <point x="274" y="148" type="curve" smooth="yes"/>
      <point x="478" y="148"/>
      <point x="617" y="268"/>
      <point x="617" y="498" type="curve" smooth="yes"/>
      <point x="617" y="638"/>
      <point x="544" y="726"/>
      <point x="396" y="726" type="curve" smooth="yes"/>
      <point x="188" y="726"/>
      <point x="54" y="607"/>
      <point x="54" y="377" type="curve" smooth="yes"/>
      <point x="54" y="237"/>
      <point x="130" y="148"/>
    </contour>
    <contour>
      <point x="288" y="214" type="curve" smooth="yes"/>
      <point x="166" y="214"/>
      <point x="128" y="284"/>
      <point x="128" y="390" type="curve" smooth="yes"/>
      <point x="128" y="550"/>
      <point x="212" y="660"/>
      <point x="382" y="660" type="curve" smooth="yes"/>
      <point x="508" y="660"/>
      <point x="543" y="589"/>
      <point x="543" y="483" type="curve" smooth="yes"/>
      <point x="543" y="323"/>
      <point x="460" y="214"/>
    </contour>
    <contour>
      <point x="187" y="290" type="line"/>
      <point x="281" y="290" type="line"/>
      <point x="302" y="390" type="line"/>
      <point x="315" y="390" type="line"/>
      <point x="340" y="290" type="line"/>
      <point x="441" y="290" type="line"/>
      <point x="407" y="405" type="line"/>
      <point x="451" y="419"/>
      <point x="482" y="442"/>
      <point x="482" y="502" type="curve" smooth="yes"/>
      <point x="482" y="551"/>
      <point x="447" y="590"/>
      <point x="370" y="590" type="curve" smooth="yes"/>
      <point x="251" y="590" type="line"/>
    </contour>
    <contour>
      <point x="315" y="460" type="line"/>
      <point x="327" y="515" type="line"/>
      <point x="344" y="515" type="line" smooth="yes"/>
      <point x="369" y="515"/>
      <point x="380" y="510"/>
      <point x="380" y="490" type="curve" smooth="yes"/>
      <point x="380" y="469"/>
      <point x="364" y="460"/>
      <point x="334" y="460" type="curve" smooth="yes"/>
    </contour>
  </outline>
</glyph>
<glyph name="degree" format="2">
  <advance width="600"/>
  <unicode hex="00B0"/>
  <outline>
    <contour>
      <point x="317" y="346" type="curve" smooth="yes"/>
      <point x="455" y="346"/>
      <point x="551" y="437"/>
      <point x="551" y="577" type="curve" smooth="yes"/>
      <point x="551" y="675"/>
      <point x="488" y="726"/>
      <point x="398" y="726" type="curve" smooth="yes"/>
      <point x="260" y="726"/>
      <point x="163" y="637"/>
      <point x="163" y="497" type="curve" smooth="yes"/>
      <point x="163" y="399"/>
      <point x="227" y="346"/>
    </contour>
    <contour>
      <point x="343" y="470" type="curve" smooth="yes"/>
      <point x="312" y="470"/>
      <point x="290" y="491"/>
      <point x="290" y="522" type="curve" smooth="yes"/>
      <point x="290" y="572"/>
      <point x="327" y="602"/>
      <point x="371" y="602" type="curve" smooth="yes"/>
      <point x="403" y="602"/>
      <point x="425" y="581"/>
      <point x="425" y="551" type="curve" smooth="yes"/>
      <point x="425" y="501"/>
      <point x="387" y="470"/>
    </contour>
  </outline>
</glyph>
<glyph name="plusminus" format="2">
  <advance width="600"/>
  <unicode hex="00B1"/>
  <outline>
    <contour>
      <point x="3" y="0" type="line"/>
      <point x="483" y="0" type="line"/>
      <point x="510" y="128" type="line"/>
      <point x="30" y="128" type="line"/>
    </contour>
    <contour>
      <point x="205" y="172" type="line"/>
      <point x="355" y="172" type="line"/>
      <point x="448" y="610" type="line"/>
      <point x="298" y="610" type="line"/>
    </contour>
    <contour>
      <point x="71" y="320" type="line"/>
      <point x="551" y="320" type="line"/>
      <point x="581" y="462" type="line"/>
      <point x="101" y="462" type="line"/>
    </contour>
  </outline>
</glyph>
<glyph name="twosuperior" format="2">
  <advance width="600"/>
  <unicode hex="00B2"/>
  <outline>
    <contour>
      <point x="156" y="323" type="curve"/>
      <point x="452" y="323" type="line"/>
      <point x="473" y="423" type="line"/>
      <point x="299" y="423" type="line"/>
      <point x="301" y="429"/>
      <point x="308" y="437"/>
      <point x="342" y="452" type="curve" smooth="yes"/>
      <point x="392" y="474" type="line" smooth="yes"/>
      <point x="481" y="513"/>
      <point x="510" y="539"/>
      <point x="510" y="611" type="curve" smooth="yes"/>
      <point x="510" y="675"/>
      <point x="471" y="718"/>
      <point x="382" y="718" type="curve" smooth="yes"/>
      <point x="280" y="718"/>
      <point x="232" y="678"/>
      <point x="206" y="588" type="curve"/>
      <point x="311" y="582" type="line"/>
      <point x="321" y="616"/>
      <point x="338" y="630"/>
      <point x="368" y="630" type="curve" smooth="yes"/>
      <point x="388" y="630"/>
      <point x="400" y="618"/>
      <point x="400" y="598" type="curve" smooth="yes"/>
      <point x="400" y="572"/>
      <point x="387" y="564"/>
      <point x="352" y="548" type="curve" smooth="yes"/>
      <point x="298" y="523" type="line" smooth="yes"/>
      <point x="209" y="482"/>
      <point x="182" y="447"/>
    </contour>
  </outline>
</glyph>
<glyph name="threesuperior" format="2">
  <advance width="600"/>
  <unicode hex="00B3"/>
  <outline>
    <contour>
      <point x="308" y="315" type="curve" smooth="yes"/>
      <point x="438" y="315"/>
      <point x="497" y="372"/>
      <point x="497" y="452" type="curve" smooth="yes"/>
      <point x="497" y="488"/>
      <point x="479" y="514"/>
      <point x="421" y="522" type="curve"/>
      <point x="498" y="537"/>
      <point x="519" y="574"/>
      <point x="519" y="622" type="curve" smooth="yes"/>
      <point x="519" y="673"/>
      <point x="480" y="718"/>
      <point x="388" y="718" type="curve" smooth="yes"/>
      <point x="280" y="718"/>
      <point x="228" y="678"/>
      <point x="208" y="598" type="curve"/>
      <point x="327" y="592" type="line"/>
      <point x="335" y="618"/>
      <point x="348" y="630"/>
      <point x="370" y="630" type="curve" smooth="yes"/>
      <point x="387" y="630"/>
      <point x="395" y="615"/>
      <point x="395" y="597" type="curve" smooth="yes"/>
      <point x="395" y="569"/>
      <point x="379" y="555"/>
      <point x="357" y="555" type="curve" smooth="yes"/>
      <point x="321" y="555" type="line"/>
      <point x="305" y="479" type="line"/>
      <point x="341" y="479" type="line" smooth="yes"/>
      <point x="362" y="479"/>
      <point x="373" y="470"/>
      <point x="373" y="446" type="curve" smooth="yes"/>
      <point x="373" y="415"/>
      <point x="357" y="403"/>
      <point x="324" y="403" type="curve" smooth="yes"/>
      <point x="307" y="403"/>
      <point x="294" y="413"/>
      <point x="294" y="437" type="curve"/>
      <point x="173" y="433" type="line"/>
      <point x="173" y="341"/>
      <point x="214" y="315"/>
    </contour>
  </outline>
</glyph>
<glyph name="acute" format="2">
  <advance width="600"/>
  <unicode hex="00B4"/>
  <outline>
    <contour>
      <point x="227" y="500" type="line"/>
      <point x="397" y="500" type="line"/>
      <point x="522" y="740" type="line"/>
      <point x="322" y="740" type="line"/>
    </contour>
  </outline>
</glyph>
<glyph name="micro" format="2">
  <advance width="600"/>
  <unicode hex="00B5"/>
  <unicode hex="03BC"/>
  <outline>
    <contour>
      <point x="-25" y="-150" type="line"/>
      <point x="135" y="-150" type="line"/>
      <point x="172" y="27" type="line"/>
      <point x="182" y="-1"/>
      <point x="197" y="-12"/>
      <point x="218" y="-12" type="curve" smooth="yes"/>
      <point x="263" y="-12"/>
      <point x="315" y="39"/>
      <point x="343" y="87" type="curve"/>
      <point x="328" y="0" type="line"/>
      <point x="479" y="0" type="line"/>
      <point x="593" y="540" type="line"/>
      <point x="423" y="540" type="line"/>
      <point x="363" y="254" type="line" smooth="yes"/>
      <point x="344" y="165"/>
      <point x="308" y="130"/>
      <point x="258" y="130" type="curve" smooth="yes"/>
      <point x="231" y="130"/>
      <point x="218" y="142"/>
      <point x="218" y="177" type="curve" smooth="yes"/>
      <point x="218" y="191"/>
      <point x="221" y="211"/>
      <point x="226" y="234" type="curve" smooth="yes"/>
      <point x="291" y="540" type="line"/>
      <point x="121" y="540" type="line"/>
    </contour>
  </outline>
</glyph>
<glyph name="paragraph" format="2">
  <advance width="600"/>
  <unicode hex="00B6"/>
  <outline>
    <contour>
      <point x="163" y="0" type="line"/>
      <point x="303" y="0" type="line"/>
      <point x="424" y="570" type="line"/>
      <point x="484" y="570" type="line"/>
      <point x="363" y="0" type="line"/>
      <point x="503" y="0" type="line"/>
      <point x="653" y="710" type="line"/>
      <point x="348" y="710" type="line" smooth="yes"/>
      <point x="193" y="710"/>
      <point x="87" y="605"/>
      <point x="87" y="459" type="curve" smooth="yes"/>
      <point x="87" y="367"/>
      <point x="136" y="311"/>
      <point x="229" y="311" type="curve"/>
    </contour>
  </outline>
</glyph>
<glyph name="onesuperior" format="2">
  <advance width="600"/>
  <unicode hex="00B9"/>
  <outline>
    <contour>
      <point x="274" y="323" type="line"/>
      <point x="394" y="323" type="line"/>
      <point x="476" y="710" type="line"/>
      <point x="374" y="710" type="line"/>
      <point x="362" y="652"/>
      <point x="332" y="615"/>
      <point x="269" y="615" type="curve" smooth="yes"/>
      <point x="216" y="615" type="line"/>
      <point x="197" y="525" type="line"/>
      <point x="317" y="525" type="line"/>
    </contour>
  </outline>
</glyph>
<glyph name="ordmasculine" format="2">
  <advance width="600"/>
  <unicode hex="00BA"/>
  <outline>
    <contour>
      <point x="323" y="376" type="curve" smooth="yes"/>
      <point x="473" y="376"/>
      <point x="563" y="464"/>
      <point x="563" y="594" type="curve" smooth="yes"/>
      <point x="563" y="678"/>
      <point x="509" y="726"/>
      <point x="397" y="726" type="curve" smooth="yes"/>
      <point x="247" y="726"/>
      <point x="157" y="639"/>
      <point x="157" y="509" type="curve" smooth="yes"/>
      <point x="157" y="425"/>
      <point x="211" y="376"/>
    </contour>
    <contour>
      <point x="342" y="466" type="curve" smooth="yes"/>
      <point x="315" y="466"/>
      <point x="297" y="482"/>
      <point x="297" y="514" type="curve" smooth="yes"/>
      <point x="297" y="590"/>
      <point x="334" y="636"/>
      <point x="378" y="636" type="curve" smooth="yes"/>
      <point x="405" y="636"/>
      <point x="423" y="620"/>
      <point x="423" y="588" type="curve" smooth="yes"/>
      <point x="423" y="512"/>
      <point x="386" y="466"/>
    </contour>
  </outline>
</glyph>
<glyph name="threequarters" format="2">
  <advance width="600"/>
  <unicode hex="00BE"/>
  <outline>
    <contour>
      <point x="370" y="0" type="line"/>
      <point x="490" y="0" type="line"/>
      <point x="504" y="67" type="line"/>
      <point x="557" y="67" type="line"/>
      <point x="576" y="157" type="line"/>
      <point x="523" y="157" type="line"/>
      <point x="572" y="387" type="line"/>
      <point x="432" y="387" type="line"/>
      <point x="223" y="151" type="line"/>
      <point x="205" y="67" type="line"/>
      <point x="384" y="67" type="line"/>
    </contour>
    <contour>
      <point x="343" y="157" type="line"/>
      <point x="425" y="255" type="line"/>
      <point x="403" y="157" type="line"/>
    </contour>
    <component base="three.numr" xOffset="-138"/>
    <component base="fraction" xOffset="-4"/>
  </outline>
</glyph>
<glyph name="questiondown" format="2">
  <advance width="600"/>
  <unicode hex="00BF"/>
  <outline>
    <contour>
      <point x="225" y="-162" type="curve" smooth="yes"/>
      <point x="405" y="-162"/>
      <point x="478" y="-67"/>
      <point x="518" y="63" type="curve"/>
      <point x="345" y="71" type="line"/>
      <point x="327" y="15"/>
      <point x="298" y="-16"/>
      <point x="244" y="-16" type="curve" smooth="yes"/>
      <point x="184" y="-16"/>
      <point x="170" y="7"/>
      <point x="170" y="39" type="curve" smooth="yes"/>
      <point x="170" y="81"/>
      <point x="188" y="104"/>
      <point x="250" y="132" type="curve" smooth="yes"/>
      <point x="319" y="163"/>
      <point x="361" y="198"/>
      <point x="389" y="310" type="curve"/>
      <point x="240" y="310" type="line"/>
      <point x="223" y="261"/>
      <point x="198" y="238"/>
      <point x="155" y="220" type="curve" smooth="yes"/>
      <point x="40" y="170"/>
      <point x="-9" y="126"/>
      <point x="-9" y="18" type="curve" smooth="yes"/>
      <point x="-9" y="-84"/>
      <point x="59" y="-162"/>
    </contour>
    <component base="period" xScale="-1.0" yScale="-1.0" xOffset="606" yOffset="552"/>
  </outline>
</glyph>
<glyph name="AE" format="2">
  <advance width="600"/>
  <unicode hex="00C6"/>
  <anchor x="246" y="0" name="bottom"/>
  <anchor x="410" y="710" name="top"/>
  <outline>
    <contour>
      <point x="-43" y="0" type="line"/>
      <point x="137" y="0" type="line"/>
      <point x="353" y="554" type="line"/>
      <point x="367" y="554" type="line"/>
      <point x="248" y="0" type="line"/>
      <point x="529" y="0" type="line"/>
      <point x="562" y="158" type="line"/>
      <point x="443" y="158" type="line"/>
      <point x="469" y="279" type="line"/>
      <point x="576" y="279" type="line"/>
      <point x="609" y="433" type="line"/>
      <point x="502" y="433" type="line"/>
      <point x="527" y="552" type="line"/>
      <point x="641" y="552" type="line"/>
      <point x="674" y="710" type="line"/>
      <point x="250" y="710" type="line"/>
    </contour>
    <contour>
      <point x="148" y="118" type="line"/>
      <point x="316" y="118" type="line"/>
      <point x="348" y="268" type="line"/>
      <point x="215" y="268" type="line"/>
    </contour>
  </outline>
</glyph>
<glyph name="multiply" format="2">
  <advance width="600"/>
  <unicode hex="00D7"/>
  <outline>
    <contour>
      <point x="117" y="34" type="line"/>
      <point x="577" y="414" type="line"/>
      <point x="488" y="528" type="line"/>
      <point x="28" y="148" type="line"/>
    </contour>
    <contour>
      <point x="390" y="40" type="line"/>
      <point x="513" y="142" type="line"/>
      <point x="215" y="522" type="line"/>
      <point x="92" y="420" type="line"/>
    </contour>
  </outline>
</glyph>
<glyph name="Thorn" format="2">
  <advance width="600"/>
  <unicode hex="00DE"/>
  <outline>
    <contour>
      <point x="99" y="148" type="line"/>
      <point x="260" y="148" type="line" smooth="yes"/>
      <point x="466" y="148"/>
      <point x="580" y="230"/>
      <point x="580" y="398" type="curve" smooth="yes"/>
      <point x="580" y="520"/>
      <point x="497" y="582"/>
      <point x="357" y="582" type="curve" smooth="yes"/>
      <point x="210" y="582" type="line"/>
      <point x="176" y="425" type="line"/>
      <point x="316" y="425" type="line" smooth="yes"/>
      <point x="351" y="425"/>
      <point x="379" y="412"/>
      <point x="379" y="374" type="curve" smooth="yes"/>
      <point x="379" y="318"/>
      <point x="345" y="306"/>
      <point x="294" y="306" type="curve" smooth="yes"/>
      <point x="133" y="306" type="line"/>
    </contour>
    <contour>
      <point x="-16" y="0" type="line"/>
      <point x="180" y="0" type="line"/>
      <point x="330" y="710" type="line"/>
      <point x="134" y="710" type="line"/>
    </contour>
  </outline>
</glyph>
<glyph name="germandbls" format="2">
  <advance width="600"/>
  <unicode hex="00DF"/>
  <outline>
    <contour>
      <point x="-27" y="0" type="line"/>
      <point x="143" y="0" type="line"/>
      <point x="236" y="437" type="line" smooth="yes"/>
      <point x="254" y="523"/>
      <point x="294" y="564"/>
      <point x="350" y="564" type="curve" smooth="yes"/>
      <point x="388" y="564"/>
      <point x="408" y="546"/>
      <point x="408" y="510" type="curve" smooth="yes"/>
      <point x="408" y="460"/>
      <point x="372" y="440"/>
      <point x="334" y="440" type="curve" smooth="yes"/>
      <point x="296" y="440" type="line"/>
      <point x="264" y="290" type="line"/>
      <point x="315" y="290" type="line" smooth="yes"/>
      <point x="364" y="290"/>
      <point x="388" y="274"/>
      <point x="388" y="234" type="curve" smooth="yes"/>
      <point x="388" y="176"/>
      <point x="344" y="156"/>
      <point x="291" y="156" type="curve" smooth="yes"/>
      <point x="227" y="156" type="line"/>
      <point x="193" y="0" type="line"/>
      <point x="268" y="0" type="line" smooth="yes"/>
      <point x="452" y="0"/>
      <point x="556" y="92"/>
      <point x="556" y="234" type="curve" smooth="yes"/>
      <point x="556" y="314"/>
      <point x="504" y="374"/>
      <point x="364" y="380" type="curve"/>
      <point x="360" y="356" type="line"/>
      <point x="483" y="364"/>
      <point x="583" y="428"/>
      <point x="583" y="546" type="curve" smooth="yes"/>
      <point x="583" y="647"/>
      <point x="520" y="720"/>
      <point x="380" y="720" type="curve" smooth="yes"/>
      <point x="206" y="720"/>
      <point x="106" y="623"/>
      <point x="66" y="437" type="curve" smooth="yes"/>
    </contour>
  </outline>
</glyph>
<glyph name="ae" format="2">
  <advance width="600"/>
  <unicode hex="00E6"/>
  <anchor x="243" y="0" name="bottom"/>
  <anchor x="357" y="540" name="top"/>
  <outline>
    <contour>
      <point x="347" y="-12" type="curve" smooth="yes"/>
      <point x="435" y="-12"/>
      <point x="511" y="44"/>
      <point x="555" y="169" type="curve"/>
      <point x="422" y="184" type="line"/>
      <point x="411" y="139"/>
      <point x="398" y="131"/>
      <point x="381" y="131" type="curve" smooth="yes"/>
      <point x="366" y="131"/>
      <point x="356" y="142"/>
      <point x="356" y="166" type="curve" smooth="yes"/>
      <point x="356" y="183"/>
      <point x="359" y="204"/>
      <point x="363" y="220" type="curve"/>
      <point x="568" y="220" type="line"/>
      <point x="582" y="267"/>
      <point x="593" y="342"/>
      <point x="593" y="388" type="curve" smooth="yes"/>
      <point x="593" y="504"/>
      <point x="540" y="552"/>
      <point x="467" y="552" type="curve" smooth="yes"/>
      <point x="292" y="552"/>
      <point x="233" y="302"/>
      <point x="233" y="161" type="curve" smooth="yes"/>
      <point x="233" y="52"/>
      <point x="261" y="-12"/>
    </contour>
    <contour>
      <point x="104" y="-12" type="curve" smooth="yes"/>
      <point x="174" y="-12"/>
      <point x="228" y="32"/>
      <point x="261" y="92" type="curve"/>
      <point x="364" y="326" type="line"/>
      <point x="371" y="357"/>
      <point x="374" y="386"/>
      <point x="374" y="411" type="curve" smooth="yes"/>
      <point x="374" y="503"/>
      <point x="330" y="552"/>
      <point x="250" y="552" type="curve" smooth="yes"/>
      <point x="153" y="552"/>
      <point x="83" y="489"/>
      <point x="41" y="370" type="curve"/>
      <point x="174" y="365" type="line"/>
      <point x="187" y="402"/>
      <point x="200" y="424"/>
      <point x="223" y="424" type="curve" smooth="yes"/>
      <point x="239" y="424"/>
      <point x="247" y="415"/>
      <point x="247" y="390" type="curve" smooth="yes"/>
      <point x="247" y="376"/>
      <point x="245" y="356"/>
      <point x="239" y="330" type="curve"/>
      <point x="176" y="314" type="line" smooth="yes"/>
      <point x="56" y="283"/>
      <point x="-5" y="216"/>
      <point x="-5" y="104" type="curve" smooth="yes"/>
      <point x="-5" y="18"/>
      <point x="46" y="-12"/>
    </contour>
    <contour>
      <point x="154" y="108" type="curve" smooth="yes"/>
      <point x="135" y="108"/>
      <point x="124" y="120"/>
      <point x="124" y="139" type="curve" smooth="yes"/>
      <point x="124" y="171"/>
      <point x="140" y="205"/>
      <point x="175" y="214" type="curve" smooth="yes"/>
      <point x="216" y="224" type="line"/>
      <point x="209" y="190" type="line" smooth="yes"/>
      <point x="195" y="126"/>
      <point x="182" y="108"/>
    </contour>
    <contour>
      <point x="388" y="323" type="line"/>
      <point x="404" y="395"/>
      <point x="422" y="413"/>
      <point x="439" y="413" type="curve" smooth="yes"/>
      <point x="452" y="413"/>
      <point x="459" y="401"/>
      <point x="459" y="382" type="curve" smooth="yes"/>
      <point x="459" y="362"/>
      <point x="456" y="337"/>
      <point x="453" y="323" type="curve"/>
    </contour>
  </outline>
</glyph>
<glyph name="eth" format="2">
  <advance width="600"/>
  <unicode hex="00F0"/>
  <outline>
    <contour>
      <point x="197" y="492" type="line"/>
      <point x="562" y="640" type="line"/>
      <point x="550" y="712" type="line"/>
      <point x="187" y="563" type="line"/>
    </contour>
    <contour>
      <point x="239" y="-11" type="curve" smooth="yes"/>
      <point x="436" y="-11"/>
      <point x="563" y="138"/>
      <point x="563" y="394" type="curve" smooth="yes"/>
      <point x="563" y="584"/>
      <point x="469" y="697"/>
      <point x="221" y="722" type="curve"/>
      <point x="161" y="605" type="line"/>
      <point x="361" y="585"/>
      <point x="408" y="502"/>
      <point x="408" y="402" type="curve"/>
      <point x="442" y="416" type="line"/>
      <point x="414" y="450"/>
      <point x="367" y="474"/>
      <point x="312" y="474" type="curve" smooth="yes"/>
      <point x="142" y="474"/>
      <point x="36" y="341"/>
      <point x="36" y="173" type="curve" smooth="yes"/>
      <point x="36" y="60"/>
      <point x="112" y="-11"/>
    </contour>
    <contour>
      <point x="267" y="119" type="curve" smooth="yes"/>
      <point x="233" y="119"/>
      <point x="212" y="147"/>
      <point x="212" y="194" type="curve" smooth="yes"/>
      <point x="212" y="276"/>
      <point x="252" y="344"/>
      <point x="315" y="344" type="curve" smooth="yes"/>
      <point x="353" y="344"/>
      <point x="372" y="314"/>
      <point x="372" y="270" type="curve" smooth="yes"/>
      <point x="372" y="190"/>
      <point x="326" y="119"/>
    </contour>
  </outline>
</glyph>
<glyph name="divide" format="2">
  <advance width="600"/>
  <unicode hex="00F7"/>
  <outline>
    <contour>
      <point x="241" y="-11" type="curve" smooth="yes"/>
      <point x="305" y="-11"/>
      <point x="357" y="40"/>
      <point x="357" y="106" type="curve" smooth="yes"/>
      <point x="357" y="148"/>
      <point x="329" y="172"/>
      <point x="281" y="172" type="curve" smooth="yes"/>
      <point x="217" y="172"/>
      <point x="165" y="121"/>
      <point x="165" y="55" type="curve" smooth="yes"/>
      <point x="165" y="13"/>
      <point x="193" y="-11"/>
    </contour>
    <contour>
      <point x="38" y="212" type="line"/>
      <point x="537" y="212" type="line"/>
      <point x="567" y="350" type="line"/>
      <point x="68" y="350" type="line"/>
    </contour>
    <contour>
      <point x="326" y="389" type="curve" smooth="yes"/>
      <point x="390" y="389"/>
      <point x="442" y="440"/>
      <point x="442" y="506" type="curve" smooth="yes"/>
      <point x="442" y="548"/>
      <point x="414" y="572"/>
      <point x="366" y="572" type="curve" smooth="yes"/>
      <point x="302" y="572"/>
      <point x="250" y="521"/>
      <point x="250" y="455" type="curve" smooth="yes"/>
      <point x="250" y="413"/>
      <point x="278" y="389"/>
    </contour>
  </outline>
</glyph>
<glyph name="thorn" format="2">
  <advance width="600"/>
  <unicode hex="00FE"/>
  <anchor x="234" y="0" name="bottom"/>
  <anchor x="349" y="540" name="top"/>
  <outline>
    <contour>
      <point x="-49" y="-150" type="line"/>
      <point x="121" y="-150" type="line"/>
      <point x="185" y="146" type="line"/>
      <point x="163" y="134" type="line"/>
      <point x="162" y="41"/>
      <point x="217" y="-12"/>
      <point x="291" y="-12" type="curve" smooth="yes"/>
      <point x="449" y="-12"/>
      <point x="567" y="149"/>
      <point x="567" y="362" type="curve" smooth="yes"/>
      <point x="567" y="482"/>
      <point x="519" y="552"/>
      <point x="413" y="552" type="curve" smooth="yes"/>
      <point x="324" y="552"/>
      <point x="260" y="490"/>
      <point x="231" y="428" type="curve"/>
      <point x="237" y="396" type="line"/>
      <point x="305" y="710" type="line"/>
      <point x="135" y="710" type="line"/>
    </contour>
    <contour>
      <point x="261" y="127" type="curve" smooth="yes"/>
      <point x="225" y="127"/>
      <point x="204" y="155"/>
      <point x="204" y="206" type="curve" smooth="yes"/>
      <point x="204" y="312"/>
      <point x="257" y="413"/>
      <point x="329" y="413" type="curve" smooth="yes"/>
      <point x="370" y="413"/>
      <point x="391" y="381"/>
      <point x="391" y="328" type="curve" smooth="yes"/>
      <point x="391" y="219"/>
      <point x="331" y="127"/>
    </contour>
  </outline>
</glyph>
<glyph name="dcaron" format="2">
  <advance width="600"/>
  <unicode hex="010F"/>
  <outline>
    <contour>
      <point x="117" y="-12" type="curve" smooth="yes"/>
      <point x="189" y="-12"/>
      <point x="246" y="58"/>
      <point x="276" y="134" type="curve"/>
      <point x="267" y="156" type="line"/>
      <point x="237" y="0" type="line"/>
      <point x="377" y="0" type="line"/>
      <point x="528" y="710" type="line"/>
      <point x="378" y="710" type="line"/>
      <point x="314" y="395" type="line"/>
      <point x="327" y="403" type="line"/>
      <point x="340" y="495"/>
      <point x="302" y="552"/>
      <point x="230" y="552" type="curve" smooth="yes"/>
      <point x="93" y="552"/>
      <point x="13" y="368"/>
      <point x="13" y="158" type="curve" smooth="yes"/>
      <point x="13" y="38"/>
      <point x="48" y="-12"/>
    </contour>
    <contour>
      <point x="218" y="134" type="curve" smooth="yes"/>
      <point x="195" y="134"/>
      <point x="183" y="154"/>
      <point x="183" y="194" type="curve" smooth="yes"/>
      <point x="183" y="298"/>
      <point x="219" y="406"/>
      <point x="258" y="406" type="curve" smooth="yes"/>
      <point x="283" y="406"/>
      <point x="292" y="382"/>
      <point x="292" y="334" type="curve" smooth="yes"/>
      <point x="292" y="233"/>
      <point x="256" y="134"/>
    </contour>
    <contour>
      <point x="487" y="403" type="line"/>
      <point x="597" y="403" type="line"/>
      <point x="694" y="710" type="line"/>
      <point x="574" y="710" type="line"/>
    </contour>
  </outline>
</glyph>
<glyph name="idotless" format="2">
  <advance width="600"/>
  <unicode hex="0131"/>
  <anchor x="250" y="0" name="bottom"/>
  <anchor x="523" y="0" name="ogonek"/>
  <anchor x="361" y="540" name="top"/>
  <outline>
    <contour>
      <point x="328" y="0" type="curve" smooth="yes"/>
      <point x="523" y="0" type="line"/>
      <point x="550" y="130" type="line"/>
      <point x="424" y="130" type="line" smooth="yes"/>
      <point x="384" y="130"/>
      <point x="372" y="144"/>
      <point x="372" y="168" type="curve" smooth="yes"/>
      <point x="372" y="188"/>
      <point x="381" y="230"/>
      <point x="389" y="268" type="curve" smooth="yes"/>
      <point x="447" y="540" type="line"/>
      <point x="97" y="540" type="line"/>
      <point x="70" y="410" type="line"/>
      <point x="318" y="410" type="line"/>
      <point x="263" y="478" type="line"/>
      <point x="219" y="268" type="line" smooth="yes"/>
      <point x="206" y="207"/>
      <point x="194" y="153"/>
      <point x="194" y="108" type="curve" smooth="yes"/>
      <point x="194" y="36"/>
      <point x="231" y="0"/>
    </contour>
  </outline>
</glyph>
<glyph name="Eng" format="2">
  <advance width="600"/>
  <unicode hex="014A"/>
  <anchor x="211" y="-150" name="bottom"/>
  <anchor x="394" y="710" name="top"/>
  <outline>
    <contour>
      <point x="180" y="-150" type="line"/>
      <point x="300" y="-150" type="line" smooth="yes"/>
      <point x="400" y="-150"/>
      <point x="463" y="-92"/>
      <point x="481" y="-6" type="curve" smooth="yes"/>
      <point x="634" y="710" type="line"/>
      <point x="464" y="710" type="line"/>
      <point x="374" y="284" type="line"/>
      <point x="404" y="285" type="line"/>
      <point x="304" y="710" type="line"/>
      <point x="154" y="710" type="line"/>
      <point x="3" y="0" type="line"/>
      <point x="173" y="0" type="line"/>
      <point x="263" y="425" type="line"/>
      <point x="233" y="424" type="line"/>
      <point x="334" y="0" type="line"/>
      <point x="340" y="0" type="line"/>
      <point x="339" y="-4" type="line" smooth="yes"/>
      <point x="336" y="-16"/>
      <point x="330" y="-20"/>
      <point x="314" y="-20" type="curve" smooth="yes"/>
      <point x="208" y="-20" type="line"/>
    </contour>
  </outline>
</glyph>
<glyph name="eng" format="2">
  <advance width="600"/>
  <unicode hex="014B"/>
  <anchor x="211" y="-150" name="bottom"/>
  <anchor x="357" y="540" name="top"/>
  <outline>
    <contour>
      <point x="197" y="-150" type="line"/>
      <point x="300" y="-150" type="line" smooth="yes"/>
      <point x="404" y="-150"/>
      <point x="465" y="-90"/>
      <point x="483" y="0" type="curve" smooth="yes"/>
      <point x="552" y="328" type="line" smooth="yes"/>
      <point x="560" y="364"/>
      <point x="566" y="399"/>
      <point x="566" y="428" type="curve" smooth="yes"/>
      <point x="566" y="506"/>
      <point x="526" y="552"/>
      <point x="440" y="552" type="curve" smooth="yes"/>
      <point x="364" y="552"/>
      <point x="300" y="518"/>
      <point x="256" y="444" type="curve"/>
      <point x="273" y="540" type="line"/>
      <point x="118" y="540" type="line"/>
      <point x="3" y="0" type="line"/>
      <point x="173" y="0" type="line"/>
      <point x="238" y="306" type="line" smooth="yes"/>
      <point x="253" y="376"/>
      <point x="296" y="410"/>
      <point x="338" y="410" type="curve" smooth="yes"/>
      <point x="371" y="410"/>
      <point x="386" y="388"/>
      <point x="386" y="362" type="curve" smooth="yes"/>
      <point x="386" y="350"/>
      <point x="384" y="333"/>
      <point x="380" y="316" type="curve" smooth="yes"/>
      <point x="315" y="11" type="line" smooth="yes"/>
      <point x="310" y="-13"/>
      <point x="299" y="-20"/>
      <point x="274" y="-20" type="curve" smooth="yes"/>
      <point x="225" y="-20" type="line"/>
    </contour>
  </outline>
</glyph>
<glyph name="OE" format="2">
  <advance width="600"/>
  <unicode hex="0152"/>
  <anchor x="238" y="0" name="bottom"/>
  <anchor x="389" y="710" name="top"/>
  <outline>
    <contour>
      <point x="154" y="-16" type="curve" smooth="yes"/>
      <point x="296" y="-16"/>
      <point x="440" y="254"/>
      <point x="440" y="515" type="curve" smooth="yes"/>
      <point x="440" y="638"/>
      <point x="401" y="726"/>
      <point x="316" y="726" type="curve" smooth="yes"/>
      <point x="134" y="726"/>
      <point x="14" y="450"/>
      <point x="14" y="180" type="curve" smooth="yes"/>
      <point x="14" y="47"/>
      <point x="64" y="-16"/>
    </contour>
    <contour>
      <point x="207" y="138" type="curve" smooth="yes"/>
      <point x="191" y="138"/>
      <point x="182" y="151"/>
      <point x="182" y="181" type="curve" smooth="yes"/>
      <point x="182" y="341"/>
      <point x="251" y="572"/>
      <point x="295" y="572" type="curve" smooth="yes"/>
      <point x="311" y="572"/>
      <point x="320" y="559"/>
      <point x="320" y="529" type="curve" smooth="yes"/>
      <point x="320" y="369"/>
      <point x="251" y="138"/>
    </contour>
    <contour>
      <point x="252" y="0" type="line"/>
      <point x="530" y="0" type="line"/>
      <point x="564" y="158" type="line"/>
      <point x="425" y="158" type="line"/>
      <point x="451" y="279" type="line"/>
      <point x="570" y="279" type="line"/>
      <point x="602" y="433" type="line"/>
      <point x="483" y="433" type="line"/>
      <point x="509" y="552" type="line"/>
      <point x="640" y="552" type="line"/>
      <point x="673" y="710" type="line"/>
      <point x="403" y="710" type="line"/>
    </contour>
  </outline>
</glyph>
<glyph name="oe" format="2">
  <advance width="600"/>
  <unicode hex="0153"/>
  <outline>
    <contour>
      <point x="353" y="-12" type="curve" smooth="yes"/>
      <point x="441" y="-12"/>
      <point x="517" y="44"/>
      <point x="561" y="169" type="curve"/>
      <point x="428" y="184" type="line"/>
      <point x="417" y="139"/>
      <point x="404" y="131"/>
      <point x="387" y="131" type="curve" smooth="yes"/>
      <point x="372" y="131"/>
      <point x="362" y="142"/>
      <point x="362" y="166" type="curve" smooth="yes"/>
      <point x="362" y="183"/>
      <point x="365" y="204"/>
      <point x="369" y="220" type="curve"/>
      <point x="574" y="220" type="line"/>
      <point x="588" y="267"/>
      <point x="599" y="342"/>
      <point x="599" y="388" type="curve" smooth="yes"/>
      <point x="599" y="504"/>
      <point x="546" y="552"/>
      <point x="473" y="552" type="curve" smooth="yes"/>
      <point x="298" y="552"/>
      <point x="239" y="302"/>
      <point x="239" y="161" type="curve" smooth="yes"/>
      <point x="239" y="52"/>
      <point x="267" y="-12"/>
    </contour>
    <contour>
      <point x="124" y="-12" type="curve" smooth="yes"/>
      <point x="288" y="-12"/>
      <point x="382" y="230"/>
      <point x="382" y="365" type="curve" smooth="yes"/>
      <point x="382" y="482"/>
      <point x="326" y="552"/>
      <point x="249" y="552" type="curve" smooth="yes"/>
      <point x="76" y="552"/>
      <point x="2" y="322"/>
      <point x="2" y="142" type="curve" smooth="yes"/>
      <point x="2" y="35"/>
      <point x="39" y="-12"/>
    </contour>
    <contour>
      <point x="170" y="134" type="curve" smooth="yes"/>
      <point x="161" y="134"/>
      <point x="154" y="142"/>
      <point x="154" y="163" type="curve" smooth="yes"/>
      <point x="154" y="241"/>
      <point x="199" y="413"/>
      <point x="236" y="413" type="curve" smooth="yes"/>
      <point x="246" y="413"/>
      <point x="253" y="403"/>
      <point x="253" y="382" type="curve" smooth="yes"/>
      <point x="253" y="304"/>
      <point x="206" y="134"/>
    </contour>
    <contour>
      <point x="394" y="323" type="line"/>
      <point x="410" y="395"/>
      <point x="428" y="413"/>
      <point x="445" y="413" type="curve" smooth="yes"/>
      <point x="458" y="413"/>
      <point x="465" y="401"/>
      <point x="465" y="382" type="curve" smooth="yes"/>
      <point x="465" y="362"/>
      <point x="462" y="337"/>
      <point x="459" y="323" type="curve"/>
    </contour>
  </outline>
</glyph>
<glyph name="tcaron" format="2">
  <advance width="600"/>
  <unicode hex="0165"/>
  <anchor x="272" y="0" name="bottom"/>
  <anchor x="281" y="278" name="center"/>
  <anchor x="337" y="540" name="top"/>
  <anchor x="427" y="682" name="topright"/>
  <outline>
    <contour>
      <point x="491" y="567" type="line"/>
      <point x="607" y="567" type="line"/>
      <point x="663" y="824" type="line"/>
      <point x="519" y="824" type="line"/>
    </contour>
    <component base="t"/>
  </outline>
</glyph>
<glyph name="Schwa" format="2">
  <advance width="600"/>
  <unicode hex="018F"/>
  <outline>
    <contour>
      <point x="455" y="271" type="line"/>
      <point x="494" y="413" type="line"/>
      <point x="56" y="413" type="line"/>
      <point x="42" y="365"/>
      <point x="31" y="294"/>
      <point x="31" y="246" type="curve" smooth="yes"/>
      <point x="31" y="72"/>
      <point x="87" y="-16"/>
      <point x="237" y="-16" type="curve" smooth="yes"/>
      <point x="460" y="-16"/>
      <point x="598" y="171"/>
      <point x="598" y="457" type="curve" smooth="yes"/>
      <point x="598" y="631"/>
      <point x="520" y="726"/>
      <point x="372" y="726" type="curve" smooth="yes"/>
      <point x="220" y="726"/>
      <point x="131" y="643"/>
      <point x="73" y="495" type="curve"/>
      <point x="255" y="486" type="line"/>
      <point x="280" y="539"/>
      <point x="308" y="573"/>
      <point x="344" y="573" type="curve" smooth="yes"/>
      <point x="394" y="573"/>
      <point x="414" y="530"/>
      <point x="414" y="447" type="curve" smooth="yes"/>
      <point x="414" y="243"/>
      <point x="339" y="138"/>
      <point x="263" y="138" type="curve" smooth="yes"/>
      <point x="223" y="138"/>
      <point x="206" y="175"/>
      <point x="206" y="233" type="curve" smooth="yes"/>
      <point x="206" y="245"/>
      <point x="208" y="262"/>
      <point x="210" y="271" type="curve"/>
    </contour>
  </outline>
</glyph>
<glyph name="florin" format="2">
  <advance width="600"/>
  <unicode hex="0192"/>
  <outline>
    <contour>
      <point x="19" y="0" type="line"/>
      <point x="160" y="-1" type="line" smooth="yes"/>
      <point x="255" y="-2"/>
      <point x="327" y="57"/>
      <point x="346" y="147" type="curve" smooth="yes"/>
      <point x="423" y="502" type="line" smooth="yes"/>
      <point x="431" y="540"/>
      <point x="449" y="556"/>
      <point x="491" y="556" type="curve" smooth="yes"/>
      <point x="593" y="556" type="line"/>
      <point x="609" y="710" type="line"/>
      <point x="437" y="710" type="line" smooth="yes"/>
      <point x="331" y="710"/>
      <point x="271" y="649"/>
      <point x="252" y="562" type="curve" smooth="yes"/>
      <point x="176" y="207" type="line" smooth="yes"/>
      <point x="168" y="173"/>
      <point x="144" y="152"/>
      <point x="114" y="152" type="curve" smooth="yes"/>
      <point x="35" y="152" type="line"/>
    </contour>
    <contour>
      <point x="81" y="356" type="line"/>
      <point x="557" y="356" type="line"/>
      <point x="587" y="493" type="line"/>
      <point x="111" y="493" type="line"/>
    </contour>
  </outline>
</glyph>
<glyph name="Uhorn" format="2">
  <advance width="600"/>
  <unicode hex="01AF"/>
  <anchor x="202" y="0" name="bottom"/>
  <anchor x="340" y="710" name="top"/>
  <outline>
    <contour>
      <point x="199" y="-16" type="curve" smooth="yes"/>
      <point x="372" y="-16"/>
      <point x="466" y="66"/>
      <point x="504" y="244" type="curve" smooth="yes"/>
      <point x="604" y="710" type="line"/>
      <point x="424" y="710" type="line"/>
      <point x="320" y="224" type="line" smooth="yes"/>
      <point x="306" y="159"/>
      <point x="272" y="138"/>
      <point x="230" y="138" type="curve" smooth="yes"/>
      <point x="194" y="138"/>
      <point x="178" y="155"/>
      <point x="178" y="192" type="curve" smooth="yes"/>
      <point x="178" y="207"/>
      <point x="183" y="238"/>
      <point x="187" y="258" type="curve" smooth="yes"/>
      <point x="284" y="710" type="line"/>
      <point x="104" y="710" type="line"/>
      <point x="13" y="284" type="line" smooth="yes"/>
      <point x="7" y="254"/>
      <point x="-6" y="202"/>
      <point x="-6" y="164" type="curve" smooth="yes"/>
      <point x="-6" y="45"/>
      <point x="67" y="-16"/>
    </contour>
    <contour>
      <point x="435" y="630" type="line"/>
      <point x="486" y="630" type="line" smooth="yes"/>
      <point x="651" y="630"/>
      <point x="701" y="717"/>
      <point x="701" y="826" type="curve" smooth="yes"/>
      <point x="701" y="841"/>
      <point x="700" y="859"/>
      <point x="698" y="868" type="curve"/>
      <point x="555" y="868" type="line"/>
      <point x="556" y="863"/>
      <point x="557" y="844"/>
      <point x="557" y="824" type="curve" smooth="yes"/>
      <point x="557" y="755"/>
      <point x="536" y="710"/>
      <point x="475" y="710" type="curve" smooth="yes"/>
      <point x="444" y="710" type="line"/>
    </contour>
  </outline>
</glyph>
<glyph name="uhorn" format="2">
  <advance width="600"/>
  <unicode hex="01B0"/>
  <anchor x="198" y="0" name="bottom"/>
  <anchor x="290" y="540" name="top"/>
  <outline>
    <contour>
      <point x="114" y="-12" type="curve" smooth="yes"/>
      <point x="223" y="-12"/>
      <point x="298" y="47"/>
      <point x="335" y="168" type="curve"/>
      <point x="313" y="170" type="line"/>
      <point x="284" y="0" type="line"/>
      <point x="434" y="0" type="line"/>
      <point x="549" y="540" type="line"/>
      <point x="379" y="540" type="line"/>
      <point x="317" y="246" type="line" smooth="yes"/>
      <point x="300" y="168"/>
      <point x="264" y="130"/>
      <point x="214" y="130" type="curve" smooth="yes"/>
      <point x="186" y="130"/>
      <point x="174" y="145"/>
      <point x="174" y="172" type="curve" smooth="yes"/>
      <point x="174" y="197"/>
      <point x="180" y="225"/>
      <point x="186" y="253" type="curve" smooth="yes"/>
      <point x="247" y="540" type="line"/>
      <point x="77" y="540" type="line"/>
      <point x="11" y="229" type="line" smooth="yes"/>
      <point x="3" y="192"/>
      <point x="-4" y="156"/>
      <point x="-4" y="114" type="curve" smooth="yes"/>
      <point x="-4" y="37"/>
      <point x="40" y="-12"/>
    </contour>
    <contour>
      <point x="369" y="460" type="line"/>
      <point x="440" y="460" type="line" smooth="yes"/>
      <point x="605" y="460"/>
      <point x="655" y="547"/>
      <point x="655" y="656" type="curve" smooth="yes"/>
      <point x="655" y="671"/>
      <point x="654" y="689"/>
      <point x="652" y="698" type="curve"/>
      <point x="509" y="698" type="line"/>
      <point x="510" y="693"/>
      <point x="511" y="674"/>
      <point x="511" y="654" type="curve" smooth="yes"/>
      <point x="511" y="585"/>
      <point x="490" y="540"/>
      <point x="429" y="540" type="curve" smooth="yes"/>
      <point x="378" y="540" type="line"/>
    </contour>
  </outline>
</glyph>
<glyph name="Ezh" format="2">
  <advance width="600"/>
  <unicode hex="01B7"/>
  <anchor x="287" y="710" name="top"/>
  <outline>
    <contour>
      <point x="280" y="-16" type="curve" smooth="yes"/>
      <point x="458" y="-16"/>
      <point x="572" y="73"/>
      <point x="572" y="209" type="curve" smooth="yes"/>
      <point x="572" y="308"/>
      <point x="506" y="382"/>
      <point x="402" y="405" type="curve"/>
      <point x="561" y="560" type="line"/>
      <point x="561" y="710" type="line"/>
      <point x="29" y="710" type="line"/>
      <point x="29" y="579" type="line"/>
      <point x="385" y="579" type="line"/>
      <point x="227" y="421" type="line"/>
      <point x="227" y="304" type="line"/>
      <point x="281" y="305" type="line" smooth="yes"/>
      <point x="364" y="306"/>
      <point x="417" y="268"/>
      <point x="417" y="209" type="curve" smooth="yes"/>
      <point x="417" y="152"/>
      <point x="363" y="115"/>
      <point x="280" y="115" type="curve" smooth="yes"/>
      <point x="198" y="115"/>
      <point x="105" y="163"/>
      <point x="28" y="241" type="curve"/>
      <point x="28" y="83" type="line"/>
      <point x="87" y="22"/>
      <point x="180" y="-16"/>
    </contour>
  </outline>
</glyph>
<glyph name="Gstroke" format="2">
  <advance width="600"/>
  <unicode hex="01E4"/>
  <anchor x="236" y="0" name="bottom"/>
  <anchor x="376" y="710" name="top"/>
  <outline>
    <contour>
      <point x="267" y="182" type="line"/>
      <point x="561" y="182" type="line"/>
      <point x="577" y="256" type="line"/>
      <point x="283" y="256" type="line"/>
    </contour>
    <contour>
      <point x="236" y="-16" type="curve" smooth="yes"/>
      <point x="404" y="-16"/>
      <point x="506" y="56"/>
      <point x="554" y="308" type="curve" smooth="yes"/>
      <point x="567" y="376" type="line"/>
      <point x="304" y="376" type="line"/>
      <point x="288" y="290" type="line"/>
      <point x="393" y="290" type="line"/>
      <point x="371" y="166"/>
      <point x="326" y="141"/>
      <point x="269" y="141" type="curve" smooth="yes"/>
      <point x="232" y="141"/>
      <point x="214" y="173"/>
      <point x="214" y="235" type="curve" smooth="yes"/>
      <point x="214" y="425"/>
      <point x="278" y="572"/>
      <point x="350" y="572" type="curve" smooth="yes"/>
      <point x="397" y="572"/>
      <point x="407" y="537"/>
      <point x="407" y="452" type="curve"/>
      <point x="591" y="462" type="line"/>
      <point x="591" y="642"/>
      <point x="533" y="726"/>
      <point x="375" y="726" type="curve" smooth="yes"/>
      <point x="161" y="726"/>
      <point x="30" y="518"/>
      <point x="30" y="226" type="curve" smooth="yes"/>
      <point x="30" y="64"/>
      <point x="105" y="-16"/>
    </contour>
  </outline>
</glyph>
<glyph name="gstroke" format="2">
  <advance width="600"/>
  <unicode hex="01E5"/>
  <anchor x="211" y="-150" name="bottom"/>
  <anchor x="357" y="540" name="top"/>
  <outline>
    <contour>
      <point x="263" y="240" type="line"/>
      <point x="583" y="240" type="line"/>
      <point x="605" y="340" type="line"/>
      <point x="285" y="340" type="line"/>
    </contour>
    <component base="g"/>
  </outline>
</glyph>
<glyph name="jdotless" format="2">
  <advance width="600"/>
  <unicode hex="0237"/>
  <anchor x="222" y="-150" name="bottom"/>
  <anchor x="466" y="540" name="top"/>
  <outline>
    <contour>
      <point x="11" y="-150" type="line"/>
      <point x="167" y="-150" type="line" smooth="yes"/>
      <point x="347" y="-150"/>
      <point x="425" y="-87"/>
      <point x="457" y="66" type="curve" smooth="yes"/>
      <point x="557" y="540" type="line"/>
      <point x="168" y="540" type="line"/>
      <point x="141" y="410" type="line"/>
      <point x="428" y="410" type="line"/>
      <point x="373" y="478" type="line"/>
      <point x="287" y="70" type="line" smooth="yes"/>
      <point x="274" y="8"/>
      <point x="240" y="-20"/>
      <point x="178" y="-20" type="curve" smooth="yes"/>
      <point x="38" y="-20" type="line"/>
    </contour>
  </outline>
</glyph>
<glyph name="verticallinemod" format="2">
  <advance width="600"/>
  <unicode hex="02C8"/>
  <outline>
    <contour>
      <point x="287" y="427" type="line"/>
      <point x="382" y="427" type="line"/>
      <point x="435" y="621" type="line"/>
      <point x="454" y="710" type="line"/>
      <point x="334" y="710" type="line"/>
      <point x="315" y="621" type="line"/>
    </contour>
  </outline>
</glyph>
<glyph name="gravecomb" format="2">
  <advance width="600"/>
  <unicode hex="0300"/>
  <anchor x="399" y="540" name="_top"/>
  <anchor x="443" y="754" name="top"/>
  <outline>
    <contour>
      <point x="338" y="590" type="line"/>
      <point x="488" y="590" type="line"/>
      <point x="462" y="750" type="line"/>
      <point x="282" y="750" type="line"/>
    </contour>
  </outline>
</glyph>
<glyph name="acutecomb" format="2">
  <advance width="600"/>
  <unicode hex="0301"/>
  <anchor x="312" y="540" name="_top"/>
  <anchor x="356" y="744" name="top"/>
  <outline>
    <contour>
      <point x="248" y="590" type="line"/>
      <point x="398" y="590" type="line"/>
      <point x="522" y="750" type="line"/>
      <point x="342" y="750" type="line"/>
    </contour>
  </outline>
</glyph>
<glyph name="circumflexcomb" format="2">
  <advance width="600"/>
  <unicode hex="0302"/>
  <anchor x="357" y="540" name="_top"/>
  <anchor x="402" y="753" name="top"/>
  <outline>
    <contour>
      <point x="197" y="587" type="line"/>
      <point x="319" y="587" type="line"/>
      <point x="408" y="694" type="line"/>
      <point x="380" y="694" type="line"/>
      <point x="423" y="587" type="line"/>
      <point x="537" y="587" type="line"/>
      <point x="472" y="753" type="line"/>
      <point x="332" y="753" type="line"/>
    </contour>
  </outline>
</glyph>
<glyph name="tildecomb" format="2">
  <advance width="600"/>
  <unicode hex="0303"/>
  <anchor x="358" y="540" name="_top"/>
  <anchor x="402" y="750" name="top"/>
  <outline>
    <contour>
      <point x="432" y="594" type="curve" smooth="yes"/>
      <point x="500" y="594"/>
      <point x="546" y="634"/>
      <point x="572" y="750" type="curve"/>
      <point x="494" y="750" type="line"/>
      <point x="482" y="708"/>
      <point x="467" y="694"/>
      <point x="448" y="694" type="curve" smooth="yes"/>
      <point x="434" y="694"/>
      <point x="425" y="700"/>
      <point x="412" y="712" type="curve" smooth="yes"/>
      <point x="389" y="732"/>
      <point x="368" y="742"/>
      <point x="334" y="742" type="curve" smooth="yes"/>
      <point x="269" y="742"/>
      <point x="224" y="704"/>
      <point x="198" y="588" type="curve"/>
      <point x="276" y="588" type="line"/>
      <point x="286" y="628"/>
      <point x="302" y="642"/>
      <point x="320" y="642" type="curve" smooth="yes"/>
      <point x="336" y="642"/>
      <point x="345" y="636"/>
      <point x="358" y="624" type="curve" smooth="yes"/>
      <point x="379" y="605"/>
      <point x="399" y="594"/>
    </contour>
  </outline>
</glyph>
<glyph name="macroncomb" format="2">
  <advance width="600"/>
  <unicode hex="0304"/>
  <anchor x="357" y="540" name="_top"/>
  <anchor x="395" y="718" name="top"/>
  <outline>
    <contour>
      <point x="220" y="598" type="line"/>
      <point x="520" y="598" type="line"/>
      <point x="545" y="718" type="line"/>
      <point x="245" y="718" type="line"/>
    </contour>
  </outline>
</glyph>
<glyph name="brevecomb" format="2">
  <advance width="600"/>
  <unicode hex="0306"/>
  <anchor x="358" y="540" name="_top"/>
  <anchor x="401" y="744" name="top"/>
  <outline>
    <contour>
      <point x="374" y="584" type="curve" smooth="yes"/>
      <point x="476" y="584"/>
      <point x="543" y="636"/>
      <point x="569" y="744" type="curve"/>
      <point x="471" y="744" type="line"/>
      <point x="457" y="694"/>
      <point x="433" y="680"/>
      <point x="385" y="680" type="curve" smooth="yes"/>
      <point x="348" y="680"/>
      <point x="331" y="694"/>
      <point x="331" y="744" type="curve"/>
      <point x="233" y="744" type="line"/>
      <point x="233" y="624"/>
      <point x="284" y="584"/>
    </contour>
  </outline>
</glyph>
<glyph name="dotaccentcomb" format="2">
  <advance width="600"/>
  <unicode hex="0307"/>
  <anchor x="358" y="540" name="_top"/>
  <anchor x="395" y="716" name="top"/>
  <outline>
    <contour>
      <point x="284" y="594" type="line"/>
      <point x="454" y="594" type="line"/>
      <point x="482" y="726" type="line"/>
      <point x="312" y="726" type="line"/>
    </contour>
  </outline>
</glyph>
<glyph name="hookabovecomb" format="2">
  <advance width="600"/>
  <unicode hex="0309"/>
  <anchor x="359" y="540" name="_top"/>
  <anchor x="406" y="765" name="top"/>
  <outline>
    <contour>
      <point x="423" y="587" type="line"/>
      <point x="457" y="615"/>
      <point x="483" y="656"/>
      <point x="483" y="702" type="curve" smooth="yes"/>
      <point x="483" y="740"/>
      <point x="458" y="765"/>
      <point x="389" y="765" type="curve" smooth="yes"/>
      <point x="351" y="765"/>
      <point x="322" y="761"/>
      <point x="312" y="759" type="curve"/>
      <point x="293" y="673" type="line"/>
      <point x="306" y="677"/>
      <point x="323" y="679"/>
      <point x="337" y="679" type="curve" smooth="yes"/>
      <point x="357" y="679"/>
      <point x="365" y="673"/>
      <point x="365" y="660" type="curve" smooth="yes"/>
      <point x="365" y="640"/>
      <point x="335" y="607"/>
      <point x="313" y="587" type="curve"/>
    </contour>
  </outline>
</glyph>
<glyph name="ringcomb" format="2">
  <advance width="600"/>
  <unicode hex="030A"/>
  <anchor x="357" y="540" name="_top"/>
  <anchor x="410" y="790" name="top"/>
  <outline>
    <contour>
      <point x="364" y="574" type="curve" smooth="yes"/>
      <point x="444" y="574"/>
      <point x="501" y="630"/>
      <point x="501" y="706" type="curve" smooth="yes"/>
      <point x="501" y="760"/>
      <point x="465" y="790"/>
      <point x="411" y="790" type="curve" smooth="yes"/>
      <point x="331" y="790"/>
      <point x="274" y="734"/>
      <point x="274" y="658" type="curve" smooth="yes"/>
      <point x="274" y="604"/>
      <point x="310" y="574"/>
    </contour>
    <contour>
      <point x="380" y="642" type="curve" smooth="yes"/>
      <point x="360" y="642"/>
      <point x="350" y="652"/>
      <point x="350" y="670" type="curve" smooth="yes"/>
      <point x="350" y="702"/>
      <point x="371" y="722"/>
      <point x="395" y="722" type="curve" smooth="yes"/>
      <point x="415" y="722"/>
      <point x="425" y="712"/>
      <point x="425" y="690" type="curve" smooth="yes"/>
      <point x="425" y="663"/>
      <point x="404" y="642"/>
    </contour>
  </outline>
</glyph>
<glyph name="horncomb" format="2">
  <advance width="600"/>
  <unicode hex="031B"/>
  <anchor x="228" y="540" name="_topright"/>
  <outline>
    <contour>
      <point x="219" y="460" type="line"/>
      <point x="290" y="460" type="line" smooth="yes"/>
      <point x="455" y="460"/>
      <point x="505" y="547"/>
      <point x="505" y="656" type="curve" smooth="yes"/>
      <point x="505" y="671"/>
      <point x="504" y="689"/>
      <point x="502" y="698" type="curve"/>
      <point x="359" y="698" type="line"/>
      <point x="360" y="693"/>
      <point x="361" y="674"/>
      <point x="361" y="654" type="curve" smooth="yes"/>
      <point x="361" y="585"/>
      <point x="340" y="540"/>
      <point x="279" y="540" type="curve" smooth="yes"/>
      <point x="228" y="540" type="line"/>
    </contour>
  </outline>
</glyph>
<glyph name="dotbelowcomb" format="2">
  <advance width="600"/>
  <unicode hex="0323"/>
  <anchor x="243" y="0" name="_bottom"/>
  <anchor x="209" y="-160" name="bottom"/>
  <outline>
    <contour>
      <point x="131" y="-160" type="line"/>
      <point x="287" y="-160" type="line"/>
      <point x="313" y="-38" type="line"/>
      <point x="157" y="-38" type="line"/>
    </contour>
  </outline>
</glyph>
<glyph name="commaaccentcomb" format="2">
  <advance width="600"/>
  <unicode hex="0326"/>
  <anchor x="252" y="0" name="_bottom"/>
  <anchor x="199" y="-250" name="bottom"/>
  <outline>
    <contour>
      <point x="105" y="-262" type="line"/>
      <point x="191" y="-262" type="line"/>
      <point x="291" y="-158" type="line"/>
      <point x="315" y="-46" type="line"/>
      <point x="169" y="-46" type="line"/>
      <point x="142" y="-172" type="line"/>
      <point x="190" y="-172" type="line"/>
    </contour>
  </outline>
</glyph>
<glyph name="cedillacomb" format="2">
  <advance width="600"/>
  <unicode hex="0327"/>
  <anchor x="244" y="0" name="_bottom"/>
  <outline>
    <contour>
      <point x="191" y="-240" type="curve" smooth="yes"/>
      <point x="293" y="-240"/>
      <point x="354" y="-184"/>
      <point x="353" y="-104" type="curve" smooth="yes"/>
      <point x="353" y="-66"/>
      <point x="332" y="-35"/>
      <point x="276" y="-28" type="curve"/>
      <point x="308" y="10" type="line"/>
      <point x="207" y="10" type="line"/>
      <point x="166" y="-42" type="line"/>
      <point x="206" y="-86" type="line"/>
      <point x="244" y="-86"/>
      <point x="254" y="-98"/>
      <point x="254" y="-116" type="curve" smooth="yes"/>
      <point x="254" y="-144"/>
      <point x="235" y="-156"/>
      <point x="205" y="-156" type="curve" smooth="yes"/>
      <point x="175" y="-156"/>
      <point x="162" y="-143"/>
      <point x="157" y="-120" type="curve"/>
      <point x="74" y="-154" type="line"/>
      <point x="83" y="-206"/>
      <point x="122" y="-240"/>
    </contour>
  </outline>
</glyph>
<glyph name="ogonekcomb" format="2">
  <advance width="600"/>
  <unicode hex="0328"/>
  <anchor x="324" y="0" name="_ogonek"/>
  <outline>
    <contour>
      <point x="192" y="-222" type="curve" smooth="yes"/>
      <point x="252" y="-222"/>
      <point x="296" y="-205"/>
      <point x="320" y="-190" type="curve"/>
      <point x="312" y="-103" type="line"/>
      <point x="300" y="-110"/>
      <point x="281" y="-118"/>
      <point x="265" y="-118" type="curve" smooth="yes"/>
      <point x="252" y="-118"/>
      <point x="242" y="-112"/>
      <point x="242" y="-101" type="curve" smooth="yes"/>
      <point x="242" y="-84"/>
      <point x="258" y="-66"/>
      <point x="285" y="-39" type="curve" smooth="yes"/>
      <point x="324" y="0" type="line"/>
      <point x="212" y="22" type="line"/>
      <point x="160" y="-26" type="line" smooth="yes"/>
      <point x="118" y="-64"/>
      <point x="97" y="-100"/>
      <point x="97" y="-146" type="curve" smooth="yes"/>
      <point x="97" y="-192"/>
      <point x="132" y="-222"/>
    </contour>
  </outline>
</glyph>
<glyph name="strokeshortcomb" format="2">
  <advance width="600"/>
  <unicode hex="0335"/>
  <anchor x="308" y="307" name="_center"/>
  <outline>
    <contour>
      <point x="117" y="257" type="line"/>
      <point x="477" y="257" type="line"/>
      <point x="498" y="357" type="line"/>
      <point x="138" y="357" type="line"/>
    </contour>
  </outline>
</glyph>
<glyph name="strokelongcomb" format="2">
  <advance width="600"/>
  <unicode hex="0336"/>
  <anchor x="356" y="535" name="_center"/>
  <outline>
    <contour>
      <point x="52" y="469" type="line"/>
      <point x="632" y="469" type="line"/>
      <point x="660" y="601" type="line"/>
      <point x="80" y="601" type="line"/>
    </contour>
  </outline>
</glyph>
<glyph name="slashshortcomb" format="2">
  <advance width="600"/>
  <unicode hex="0337"/>
  <anchor x="327" y="397" name="_center"/>
  <outline>
    <contour>
      <point x="93" y="271" type="line"/>
      <point x="536" y="391" type="line"/>
      <point x="562" y="521" type="line"/>
      <point x="118" y="401" type="line"/>
    </contour>
  </outline>
</glyph>
<glyph name="slashlongcomb" format="2">
  <advance width="600"/>
  <unicode hex="0338"/>
  <anchor x="300" y="268" name="_center"/>
  <outline>
    <contour>
      <point x="-1" y="-16" type="line"/>
      <point x="119" y="-16" type="line"/>
      <point x="600" y="552" type="line"/>
      <point x="480" y="552" type="line"/>
    </contour>
  </outline>
</glyph>
<glyph name="Lambda" format="2">
  <advance width="600"/>
  <unicode hex="039B"/>
  <outline>
    <contour>
      <point x="-37" y="0" type="line"/>
      <point x="121" y="0" type="line"/>
      <point x="346" y="469" type="line"/>
      <point x="365" y="0" type="line"/>
      <point x="523" y="0" type="line"/>
      <point x="468" y="710" type="line"/>
      <point x="316" y="710" type="line"/>
    </contour>
  </outline>
</glyph>
<glyph name="Omega" format="2">
  <advance width="600"/>
  <unicode hex="03A9"/>
  <outline>
    <contour>
      <point x="-17" y="0" type="line"/>
      <point x="211" y="0" type="line"/>
      <point x="239" y="133" type="line"/>
      <point x="206" y="145"/>
      <point x="183" y="207"/>
      <point x="183" y="304" type="curve" smooth="yes"/>
      <point x="183" y="444"/>
      <point x="255" y="595"/>
      <point x="363" y="595" type="curve" smooth="yes"/>
      <point x="433" y="595"/>
      <point x="458" y="543"/>
      <point x="458" y="458" type="curve" smooth="yes"/>
      <point x="458" y="286"/>
      <point x="382" y="163"/>
      <point x="302" y="133" type="curve"/>
      <point x="274" y="0" type="line"/>
      <point x="520" y="0" type="line"/>
      <point x="547" y="128" type="line"/>
      <point x="407" y="128" type="line"/>
      <point x="537" y="178"/>
      <point x="618" y="308"/>
      <point x="618" y="488" type="curve" smooth="yes"/>
      <point x="618" y="629"/>
      <point x="539" y="726"/>
      <point x="389" y="726" type="curve" smooth="yes"/>
      <point x="159" y="726"/>
      <point x="39" y="528"/>
      <point x="39" y="328" type="curve" smooth="yes"/>
      <point x="39" y="228"/>
      <point x="74" y="174"/>
      <point x="140" y="128" type="curve"/>
      <point x="10" y="128" type="line"/>
    </contour>
  </outline>
</glyph>
<glyph name="lambda" format="2">
  <advance width="600"/>
  <unicode hex="03BB"/>
  <outline>
    <contour>
      <point x="464" y="0" type="curve" smooth="yes"/>
      <point x="527" y="0" type="line"/>
      <point x="556" y="136" type="line"/>
      <point x="527" y="136" type="line" smooth="yes"/>
      <point x="492" y="136"/>
      <point x="475" y="151"/>
      <point x="465" y="204" type="curve" smooth="yes"/>
      <point x="397" y="562" type="line" smooth="yes"/>
      <point x="374" y="685"/>
      <point x="341" y="710"/>
      <point x="225" y="710" type="curve" smooth="yes"/>
      <point x="162" y="710" type="line"/>
      <point x="133" y="574" type="line"/>
      <point x="178" y="574" type="line" smooth="yes"/>
      <point x="220" y="574"/>
      <point x="233" y="563"/>
      <point x="244" y="506" type="curve" smooth="yes"/>
      <point x="314" y="148" type="line" smooth="yes"/>
      <point x="339" y="22"/>
      <point x="377" y="0"/>
    </contour>
    <contour>
      <point x="-41" y="0" type="line"/>
      <point x="143" y="0" type="line"/>
      <point x="412" y="459" type="line"/>
      <point x="266" y="502" type="line"/>
    </contour>
  </outline>
</glyph>
<glyph name="pi" format="2">
  <advance width="600"/>
  <unicode hex="03C0"/>
  <outline>
    <contour>
      <point x="445" y="0" type="curve" smooth="yes"/>
      <point x="522" y="0" type="line"/>
      <point x="549" y="127" type="line"/>
      <point x="507" y="127" type="line" smooth="yes"/>
      <point x="479" y="127"/>
      <point x="465" y="138"/>
      <point x="465" y="166" type="curve" smooth="yes"/>
      <point x="465" y="186"/>
      <point x="473" y="220"/>
      <point x="479" y="248" type="curve" smooth="yes"/>
      <point x="531" y="491" type="line"/>
      <point x="395" y="491" type="line"/>
      <point x="346" y="256" type="line" smooth="yes"/>
      <point x="336" y="206"/>
      <point x="324" y="150"/>
      <point x="324" y="110" type="curve" smooth="yes"/>
      <point x="324" y="50"/>
      <point x="356" y="0"/>
    </contour>
    <contour>
      <point x="59" y="0" type="line"/>
      <point x="195" y="0" type="line"/>
      <point x="299" y="490" type="line"/>
      <point x="163" y="490" type="line"/>
    </contour>
    <contour>
      <point x="53" y="424" type="line"/>
      <point x="612" y="424" type="line"/>
      <point x="637" y="540" type="line"/>
      <point x="78" y="540" type="line"/>
    </contour>
  </outline>
</glyph>
<glyph name="Dje-cy" format="2">
  <advance width="600"/>
  <unicode hex="0402"/>
  <outline>
    <contour>
      <point x="338" y="-16" type="curve" smooth="yes"/>
      <point x="489" y="-16"/>
      <point x="584" y="104"/>
      <point x="584" y="290" type="curve" smooth="yes"/>
      <point x="584" y="394"/>
      <point x="527" y="453"/>
      <point x="430" y="453" type="curve" smooth="yes"/>
      <point x="365" y="453"/>
      <point x="304" y="429"/>
      <point x="272" y="400" type="curve"/>
      <point x="303" y="356" type="line"/>
      <point x="372" y="680" type="line"/>
      <point x="202" y="680" type="line"/>
      <point x="57" y="0" type="line"/>
      <point x="227" y="0" type="line"/>
      <point x="285" y="270" type="line"/>
      <point x="303" y="282"/>
      <point x="336" y="295"/>
      <point x="364" y="295" type="curve" smooth="yes"/>
      <point x="395" y="295"/>
      <point x="414" y="279"/>
      <point x="414" y="240" type="curve" smooth="yes"/>
      <point x="414" y="174"/>
      <point x="377" y="140"/>
      <point x="331" y="140" type="curve" smooth="yes"/>
      <point x="319" y="140"/>
      <point x="309" y="141"/>
      <point x="298" y="143" type="curve"/>
      <point x="264" y="-13" type="line"/>
      <point x="278" y="-15"/>
      <point x="312" y="-16"/>
    </contour>
    <contour>
      <point x="71" y="552" type="line"/>
      <point x="571" y="552" type="line"/>
      <point x="604" y="710" type="line"/>
      <point x="104" y="710" type="line"/>
    </contour>
  </outline>
</glyph>
<glyph name="E-cy" format="2">
  <advance width="600"/>
  <unicode hex="0404"/>
  <anchor x="256" y="0" name="bottom"/>
  <anchor x="394" y="710" name="top"/>
  <outline>
    <contour>
      <point x="97" y="285" type="line"/>
      <point x="351" y="285" type="line"/>
      <point x="381" y="425" type="line"/>
      <point x="127" y="425" type="line"/>
    </contour>
    <component base="C"/>
  </outline>
</glyph>
<glyph name="Lje-cy" format="2">
  <advance width="600"/>
  <unicode hex="0409"/>
  <outline>
    <contour>
      <point x="-51" y="0" type="line"/>
      <point x="-11" y="0" type="line" smooth="yes"/>
      <point x="89" y="0"/>
      <point x="144" y="44"/>
      <point x="180" y="186" type="curve" smooth="yes"/>
      <point x="272" y="552" type="line"/>
      <point x="385" y="552" type="line"/>
      <point x="487" y="710" type="line"/>
      <point x="170" y="710" type="line"/>
      <point x="44" y="212" type="line" smooth="yes"/>
      <point x="33" y="170"/>
      <point x="15" y="157"/>
      <point x="-11" y="157" type="curve" smooth="yes"/>
      <point x="-18" y="157" type="line"/>
    </contour>
    <contour>
      <point x="197" y="0" type="line"/>
      <point x="355" y="0" type="line" smooth="yes"/>
      <point x="494" y="0"/>
      <point x="599" y="154"/>
      <point x="599" y="346" type="curve" smooth="yes"/>
      <point x="599" y="458"/>
      <point x="549" y="505"/>
      <point x="462" y="505" type="curve" smooth="yes"/>
      <point x="444" y="505" type="line"/>
      <point x="487" y="710" type="line"/>
      <point x="343" y="690" type="line"/>
    </contour>
    <contour>
      <point x="370" y="157" type="line"/>
      <point x="411" y="348" type="line"/>
      <point x="424" y="348" type="line" smooth="yes"/>
      <point x="440" y="348"/>
      <point x="455" y="336"/>
      <point x="455" y="306" type="curve" smooth="yes"/>
      <point x="455" y="219"/>
      <point x="418" y="157"/>
      <point x="382" y="157" type="curve" smooth="yes"/>
    </contour>
  </outline>
</glyph>
<glyph name="Nje-cy" format="2">
  <advance width="600"/>
  <unicode hex="040A"/>
  <outline>
    <contour>
      <point x="-46" y="0" type="line"/>
      <point x="104" y="0" type="line"/>
      <point x="175" y="335" type="line"/>
      <point x="134" y="279" type="line"/>
      <point x="342" y="279" type="line"/>
      <point x="375" y="436" type="line"/>
      <point x="167" y="436" type="line"/>
      <point x="184" y="379" type="line"/>
      <point x="254" y="710" type="line"/>
      <point x="104" y="710" type="line"/>
    </contour>
    <contour>
      <point x="188" y="0" type="line"/>
      <point x="356" y="0" type="line" smooth="yes"/>
      <point x="494" y="0"/>
      <point x="593" y="135"/>
      <point x="593" y="310" type="curve" smooth="yes"/>
      <point x="593" y="420"/>
      <point x="537" y="468"/>
      <point x="455" y="468" type="curve" smooth="yes"/>
      <point x="437" y="468" type="line"/>
      <point x="488" y="710" type="line"/>
      <point x="338" y="710" type="line"/>
    </contour>
    <contour>
      <point x="371" y="158" type="line"/>
      <point x="404" y="311" type="line"/>
      <point x="420" y="311" type="line" smooth="yes"/>
      <point x="441" y="311"/>
      <point x="453" y="303"/>
      <point x="453" y="274" type="curve" smooth="yes"/>
      <point x="453" y="196"/>
      <point x="419" y="158"/>
      <point x="387" y="158" type="curve" smooth="yes"/>
    </contour>
  </outline>
</glyph>
<glyph name="Tshe-cy" format="2">
  <advance width="600"/>
  <unicode hex="040B"/>
  <outline>
    <contour>
      <point x="61" y="553" type="line"/>
      <point x="561" y="553" type="line"/>
      <point x="594" y="710" type="line"/>
      <point x="94" y="710" type="line"/>
    </contour>
    <contour>
      <point x="54" y="0" type="line"/>
      <point x="234" y="0" type="line"/>
      <point x="297" y="299" type="line"/>
      <point x="314" y="315"/>
      <point x="342" y="326"/>
      <point x="366" y="326" type="curve" smooth="yes"/>
      <point x="388" y="326"/>
      <point x="402" y="316"/>
      <point x="402" y="291" type="curve" smooth="yes"/>
      <point x="402" y="268"/>
      <point x="395" y="242"/>
      <point x="387" y="206" type="curve" smooth="yes"/>
      <point x="343" y="0" type="line"/>
      <point x="523" y="0" type="line"/>
      <point x="569" y="221" type="line" smooth="yes"/>
      <point x="579" y="267"/>
      <point x="585" y="310"/>
      <point x="585" y="344" type="curve" smooth="yes"/>
      <point x="585" y="440"/>
      <point x="521" y="483"/>
      <point x="444" y="483" type="curve" smooth="yes"/>
      <point x="357" y="483"/>
      <point x="309" y="450"/>
      <point x="279" y="428" type="curve"/>
      <point x="314" y="378" type="line"/>
      <point x="373" y="658" type="line"/>
      <point x="193" y="658" type="line"/>
    </contour>
  </outline>
</glyph>
<glyph name="Dzhe-cy" format="2">
  <advance width="600"/>
  <unicode hex="040F"/>
  <outline>
    <contour>
      <point x="-17" y="0" type="line"/>
      <point x="503" y="0" type="line"/>
      <point x="654" y="710" type="line"/>
      <point x="474" y="710" type="line"/>
      <point x="357" y="158" type="line"/>
      <point x="197" y="158" type="line"/>
      <point x="314" y="710" type="line"/>
      <point x="134" y="710" type="line"/>
    </contour>
    <contour>
      <point x="122" y="-150" type="line"/>
      <point x="302" y="-150" type="line"/>
      <point x="340" y="32" type="line"/>
      <point x="160" y="32" type="line"/>
    </contour>
  </outline>
</glyph>
<glyph name="Be-cy" format="2">
  <advance width="600"/>
  <unicode hex="0411"/>
  <outline>
    <contour>
      <point x="-17" y="0" type="line"/>
      <point x="242" y="0" type="line" smooth="yes"/>
      <point x="445" y="0"/>
      <point x="562" y="98"/>
      <point x="562" y="268" type="curve" smooth="yes"/>
      <point x="562" y="370"/>
      <point x="491" y="463"/>
      <point x="342" y="463" type="curve" smooth="yes"/>
      <point x="261" y="463" type="line"/>
      <point x="301" y="647" type="line"/>
      <point x="212" y="553" type="line"/>
      <point x="546" y="553" type="line"/>
      <point x="579" y="710" type="line"/>
      <point x="134" y="710" type="line"/>
    </contour>
    <contour>
      <point x="196" y="157" type="line"/>
      <point x="228" y="306" type="line"/>
      <point x="300" y="306" type="line" smooth="yes"/>
      <point x="355" y="306"/>
      <point x="378" y="284"/>
      <point x="378" y="247" type="curve" smooth="yes"/>
      <point x="378" y="181"/>
      <point x="338" y="157"/>
      <point x="260" y="157" type="curve" smooth="yes"/>
    </contour>
  </outline>
</glyph>
<glyph name="Ge-cy" format="2">
  <advance width="600"/>
  <unicode hex="0413"/>
  <anchor x="394" y="710" name="top"/>
  <outline>
    <contour>
      <point x="24" y="0" type="line"/>
      <point x="204" y="0" type="line"/>
      <point x="321" y="552" type="line"/>
      <point x="620" y="552" type="line"/>
      <point x="653" y="710" type="line"/>
      <point x="174" y="710" type="line"/>
    </contour>
  </outline>
</glyph>
<glyph name="De-cy" format="2">
  <advance width="600"/>
  <unicode hex="0414"/>
  <outline>
    <contour>
      <point x="-79" y="-150" type="line"/>
      <point x="101" y="-150" type="line"/>
      <point x="132" y="0" type="line"/>
      <point x="352" y="0" type="line"/>
      <point x="321" y="-150" type="line"/>
      <point x="501" y="-150" type="line"/>
      <point x="566" y="158" type="line"/>
      <point x="516" y="158" type="line"/>
      <point x="633" y="710" type="line"/>
      <point x="251" y="710" type="line"/>
      <point x="116" y="288" type="line" smooth="yes"/>
      <point x="98" y="232"/>
      <point x="63" y="182"/>
      <point x="34" y="158" type="curve"/>
      <point x="-14" y="158" type="line"/>
    </contour>
    <contour>
      <point x="215" y="158" type="line"/>
      <point x="242" y="187"/>
      <point x="262" y="218"/>
      <point x="281" y="278" type="curve" smooth="yes"/>
      <point x="368" y="553" type="line"/>
      <point x="420" y="553" type="line"/>
      <point x="336" y="158" type="line"/>
    </contour>
  </outline>
</glyph>
<glyph name="Zhe-cy" format="2">
  <advance width="600"/>
  <unicode hex="0416"/>
  <outline>
    <contour>
      <point x="379" y="0" type="line"/>
      <point x="539" y="0" type="line"/>
      <point x="536" y="355" type="line"/>
      <point x="685" y="710" type="line"/>
      <point x="525" y="710" type="line"/>
      <point x="392" y="355" type="line"/>
    </contour>
    <contour>
      <point x="167" y="0" type="line"/>
      <point x="319" y="0" type="line"/>
      <point x="469" y="710" type="line"/>
      <point x="317" y="710" type="line"/>
    </contour>
    <contour>
      <point x="107" y="0" type="line"/>
      <point x="244" y="355" type="line"/>
      <point x="261" y="710" type="line"/>
      <point x="101" y="710" type="line"/>
      <point x="100" y="355" type="line"/>
      <point x="-53" y="0" type="line"/>
    </contour>
  </outline>
</glyph>
<glyph name="Ze-cy" format="2">
  <advance width="600"/>
  <unicode hex="0417"/>
  <outline>
    <contour>
      <point x="244" y="-16" type="curve" smooth="yes"/>
      <point x="454" y="-16"/>
      <point x="558" y="99"/>
      <point x="558" y="241" type="curve" smooth="yes"/>
      <point x="558" y="329"/>
      <point x="493" y="374"/>
      <point x="399" y="374" type="curve"/>
      <point x="396" y="360" type="line"/>
      <point x="519" y="360"/>
      <point x="617" y="422"/>
      <point x="617" y="548" type="curve" smooth="yes"/>
      <point x="617" y="642"/>
      <point x="558" y="726"/>
      <point x="399" y="726" type="curve" smooth="yes"/>
      <point x="209" y="726"/>
      <point x="122" y="635"/>
      <point x="79" y="499" type="curve"/>
      <point x="253" y="490" type="line"/>
      <point x="267" y="540"/>
      <point x="296" y="572"/>
      <point x="361" y="572" type="curve" smooth="yes"/>
      <point x="411" y="572"/>
      <point x="437" y="544"/>
      <point x="437" y="506" type="curve" smooth="yes"/>
      <point x="437" y="454"/>
      <point x="396" y="428"/>
      <point x="345" y="428" type="curve" smooth="yes"/>
      <point x="264" y="428" type="line"/>
      <point x="236" y="298" type="line"/>
      <point x="317" y="298" type="line" smooth="yes"/>
      <point x="349" y="298"/>
      <point x="378" y="277"/>
      <point x="378" y="238" type="curve" smooth="yes"/>
      <point x="378" y="173"/>
      <point x="338" y="138"/>
      <point x="278" y="138" type="curve" smooth="yes"/>
      <point x="224" y="138"/>
      <point x="197" y="164"/>
      <point x="197" y="230" type="curve"/>
      <point x="21" y="225" type="line"/>
      <point x="21" y="69"/>
      <point x="96" y="-16"/>
    </contour>
  </outline>
</glyph>
<glyph name="Ii-cy" format="2">
  <advance width="600"/>
  <unicode hex="0418"/>
  <anchor x="396" y="710" name="top"/>
  <outline>
    <contour>
      <point x="4" y="0" type="line"/>
      <point x="154" y="0" type="line"/>
      <point x="434" y="422" type="line"/>
      <point x="403" y="426" type="line"/>
      <point x="313" y="0" type="line"/>
      <point x="483" y="0" type="line"/>
      <point x="633" y="710" type="line"/>
      <point x="483" y="710" type="line"/>
      <point x="203" y="288" type="line"/>
      <point x="234" y="284" type="line"/>
      <point x="324" y="710" type="line"/>
      <point x="154" y="710" type="line"/>
    </contour>
  </outline>
</glyph>
<glyph name="Ka-cy" format="2">
  <advance width="600"/>
  <unicode hex="041A"/>
  <anchor x="383" y="710" name="top"/>
  <outline>
    <contour>
      <point x="321" y="0" type="line"/>
      <point x="523" y="0" type="line"/>
      <point x="386" y="354" type="line"/>
      <point x="663" y="710" type="line"/>
      <point x="457" y="710" type="line"/>
      <point x="216" y="356" type="line"/>
    </contour>
    <contour>
      <point x="-16" y="0" type="line"/>
      <point x="164" y="0" type="line"/>
      <point x="314" y="710" type="line"/>
      <point x="134" y="710" type="line"/>
    </contour>
  </outline>
</glyph>
<glyph name="El-cy" format="2">
  <advance width="600"/>
  <unicode hex="041B"/>
  <outline>
    <contour>
      <point x="-37" y="0" type="line"/>
      <point x="9" y="0" type="line" smooth="yes"/>
      <point x="137" y="0"/>
      <point x="195" y="44"/>
      <point x="244" y="206" type="curve" smooth="yes"/>
      <point x="351" y="552" type="line"/>
      <point x="440" y="552" type="line"/>
      <point x="323" y="0" type="line"/>
      <point x="503" y="0" type="line"/>
      <point x="653" y="710" type="line"/>
      <point x="228" y="710" type="line"/>
      <point x="79" y="222" type="line" smooth="yes"/>
      <point x="63" y="170"/>
      <point x="43" y="157"/>
      <point x="13" y="157" type="curve" smooth="yes"/>
      <point x="-4" y="157" type="line"/>
    </contour>
  </outline>
</glyph>
<glyph name="Pe-cy" format="2">
  <advance width="600"/>
  <unicode hex="041F"/>
  <outline>
    <contour>
      <point x="-17" y="0" type="line"/>
      <point x="163" y="0" type="line"/>
      <point x="280" y="552" type="line"/>
      <point x="440" y="552" type="line"/>
      <point x="323" y="0" type="line"/>
      <point x="503" y="0" type="line"/>
      <point x="654" y="710" type="line"/>
      <point x="134" y="710" type="line"/>
    </contour>
  </outline>
</glyph>
<glyph name="U-cy" format="2">
  <advance width="600"/>
  <unicode hex="0423"/>
  <anchor x="394" y="710" name="top"/>
  <outline>
    <contour>
      <point x="34" y="0" type="line"/>
      <point x="154" y="0" type="line" smooth="yes"/>
      <point x="247" y="0"/>
      <point x="302" y="35"/>
      <point x="349" y="120" type="curve" smooth="yes"/>
      <point x="674" y="710" type="line"/>
      <point x="492" y="710" type="line"/>
      <point x="224" y="190" type="line" smooth="yes"/>
      <point x="204" y="152"/>
      <point x="184" y="146"/>
      <point x="145" y="146" type="curve" smooth="yes"/>
      <point x="65" y="146" type="line"/>
    </contour>
    <contour>
      <point x="190" y="226" type="line"/>
      <point x="256" y="226" type="line"/>
      <point x="330" y="360" type="line"/>
      <point x="292" y="710" type="line"/>
      <point x="114" y="710" type="line"/>
    </contour>
  </outline>
</glyph>
<glyph name="Ef-cy" format="2">
  <advance width="600"/>
  <unicode hex="0424"/>
  <outline>
    <contour>
      <point x="183" y="73" type="curve" smooth="yes"/>
      <point x="333" y="73" type="line" smooth="yes"/>
      <point x="511" y="73"/>
      <point x="625" y="240"/>
      <point x="625" y="456" type="curve" smooth="yes"/>
      <point x="625" y="574"/>
      <point x="563" y="637"/>
      <point x="453" y="637" type="curve" smooth="yes"/>
      <point x="303" y="637" type="line" smooth="yes"/>
      <point x="125" y="637"/>
      <point x="11" y="470"/>
      <point x="11" y="254" type="curve" smooth="yes"/>
      <point x="11" y="136"/>
      <point x="73" y="73"/>
    </contour>
    <contour>
      <point x="366" y="230" type="curve" smooth="yes"/>
      <point x="216" y="230" type="line" smooth="yes"/>
      <point x="183" y="230"/>
      <point x="169" y="249"/>
      <point x="169" y="291" type="curve" smooth="yes"/>
      <point x="169" y="411"/>
      <point x="218" y="480"/>
      <point x="270" y="480" type="curve" smooth="yes"/>
      <point x="420" y="480" type="line" smooth="yes"/>
      <point x="453" y="480"/>
      <point x="467" y="461"/>
      <point x="467" y="419" type="curve" smooth="yes"/>
      <point x="467" y="299"/>
      <point x="418" y="230"/>
    </contour>
    <contour>
      <point x="164" y="-16" type="line"/>
      <point x="314" y="-16" type="line"/>
      <point x="472" y="726" type="line"/>
      <point x="322" y="726" type="line"/>
    </contour>
  </outline>
</glyph>
<glyph name="Tse-cy" format="2">
  <advance width="600"/>
  <unicode hex="0426"/>
  <outline>
    <contour>
      <point x="-27" y="0" type="line"/>
      <point x="472" y="0" type="line"/>
      <point x="623" y="710" type="line"/>
      <point x="443" y="710" type="line"/>
      <point x="326" y="158" type="line"/>
      <point x="187" y="158" type="line"/>
      <point x="304" y="710" type="line"/>
      <point x="124" y="710" type="line"/>
    </contour>
    <contour>
      <point x="311" y="-150" type="line"/>
      <point x="491" y="-150" type="line"/>
      <point x="556" y="158" type="line"/>
      <point x="339" y="158" type="line"/>
      <point x="305" y="0" type="line"/>
      <point x="342" y="0" type="line"/>
    </contour>
  </outline>
</glyph>
<glyph name="Che-cy" format="2">
  <advance width="600"/>
  <unicode hex="0427"/>
  <outline>
    <contour>
      <point x="313" y="0" type="line"/>
      <point x="493" y="0" type="line"/>
      <point x="643" y="710" type="line"/>
      <point x="463" y="710" type="line"/>
      <point x="402" y="423" type="line"/>
      <point x="373" y="397"/>
      <point x="341" y="386"/>
      <point x="297" y="386" type="curve" smooth="yes"/>
      <point x="270" y="386"/>
      <point x="247" y="396"/>
      <point x="247" y="426" type="curve" smooth="yes"/>
      <point x="247" y="444"/>
      <point x="252" y="468"/>
      <point x="260" y="504" type="curve" smooth="yes"/>
      <point x="304" y="710" type="line"/>
      <point x="124" y="710" type="line"/>
      <point x="78" y="489" type="line" smooth="yes"/>
      <point x="68" y="443"/>
      <point x="62" y="400"/>
      <point x="62" y="366" type="curve" smooth="yes"/>
      <point x="62" y="270"/>
      <point x="126" y="226"/>
      <point x="230" y="226" type="curve" smooth="yes"/>
      <point x="311" y="226"/>
      <point x="388" y="250"/>
      <point x="418" y="282" type="curve"/>
      <point x="383" y="332" type="line"/>
    </contour>
  </outline>
</glyph>
<glyph name="Sha-cy" format="2">
  <advance width="600"/>
  <unicode hex="0428"/>
  <outline>
    <contour>
      <point x="-37" y="0" type="line"/>
      <point x="523" y="0" type="line"/>
      <point x="674" y="710" type="line"/>
      <point x="522" y="710" type="line"/>
      <point x="405" y="158" type="line"/>
      <point x="343" y="158" type="line"/>
      <point x="460" y="710" type="line"/>
      <point x="328" y="710" type="line"/>
      <point x="211" y="158" type="line"/>
      <point x="149" y="158" type="line"/>
      <point x="266" y="710" type="line"/>
      <point x="114" y="710" type="line"/>
    </contour>
  </outline>
</glyph>
<glyph name="Shcha-cy" format="2">
  <advance width="600"/>
  <unicode hex="0429"/>
  <outline>
    <contour>
      <point x="-43" y="0" type="line"/>
      <point x="493" y="0" type="line"/>
      <point x="644" y="710" type="line"/>
      <point x="499" y="710" type="line"/>
      <point x="382" y="158" type="line"/>
      <point x="322" y="158" type="line"/>
      <point x="439" y="710" type="line"/>
      <point x="313" y="710" type="line"/>
      <point x="196" y="158" type="line"/>
      <point x="137" y="158" type="line"/>
      <point x="254" y="710" type="line"/>
      <point x="108" y="710" type="line"/>
    </contour>
    <contour>
      <point x="341" y="-150" type="line"/>
      <point x="501" y="-150" type="line"/>
      <point x="566" y="158" type="line"/>
      <point x="399" y="158" type="line"/>
      <point x="325" y="0" type="line"/>
      <point x="372" y="0" type="line"/>
    </contour>
  </outline>
</glyph>
<glyph name="Hardsign-cy" format="2">
  <advance width="600"/>
  <unicode hex="042A"/>
  <outline>
    <contour>
      <point x="70" y="552" type="line"/>
      <point x="224" y="552" type="line"/>
      <point x="176" y="647" type="line"/>
      <point x="39" y="0" type="line"/>
      <point x="262" y="0" type="line" smooth="yes"/>
      <point x="455" y="0"/>
      <point x="576" y="108"/>
      <point x="576" y="294" type="curve" smooth="yes"/>
      <point x="576" y="414"/>
      <point x="501" y="505"/>
      <point x="362" y="505" type="curve" smooth="yes"/>
      <point x="326" y="505" type="line"/>
      <point x="370" y="710" type="line"/>
      <point x="104" y="710" type="line"/>
    </contour>
    <contour>
      <point x="252" y="156" type="line"/>
      <point x="293" y="349" type="line"/>
      <point x="320" y="349" type="line" smooth="yes"/>
      <point x="370" y="349"/>
      <point x="392" y="327"/>
      <point x="392" y="270" type="curve" smooth="yes"/>
      <point x="392" y="196"/>
      <point x="358" y="156"/>
      <point x="280" y="156" type="curve" smooth="yes"/>
    </contour>
  </outline>
</glyph>
<glyph name="Yeru-cy" format="2">
  <advance width="600"/>
  <unicode hex="042B"/>
  <outline>
    <contour>
      <point x="375" y="0" type="line"/>
      <point x="533" y="0" type="line"/>
      <point x="684" y="710" type="line"/>
      <point x="526" y="710" type="line"/>
    </contour>
    <contour>
      <point x="-47" y="0" type="line"/>
      <point x="137" y="0" type="line" smooth="yes"/>
      <point x="310" y="0"/>
      <point x="402" y="149"/>
      <point x="402" y="308" type="curve" smooth="yes"/>
      <point x="402" y="433"/>
      <point x="342" y="505"/>
      <point x="240" y="505" type="curve" smooth="yes"/>
      <point x="218" y="505" type="line"/>
      <point x="262" y="710" type="line"/>
      <point x="104" y="710" type="line"/>
    </contour>
    <contour>
      <point x="144" y="156" type="line"/>
      <point x="185" y="349" type="line"/>
      <point x="195" y="349" type="line" smooth="yes"/>
      <point x="225" y="349"/>
      <point x="242" y="329"/>
      <point x="242" y="282" type="curve" smooth="yes"/>
      <point x="242" y="206"/>
      <point x="213" y="156"/>
      <point x="155" y="156" type="curve" smooth="yes"/>
    </contour>
  </outline>
</glyph>
<glyph name="Softsign-cy" format="2">
  <advance width="600"/>
  <unicode hex="042C"/>
  <outline>
    <contour>
      <point x="-17" y="0" type="line"/>
      <point x="242" y="0" type="line" smooth="yes"/>
      <point x="445" y="0"/>
      <point x="566" y="108"/>
      <point x="566" y="294" type="curve" smooth="yes"/>
      <point x="566" y="414"/>
      <point x="491" y="505"/>
      <point x="342" y="505" type="curve" smooth="yes"/>
      <point x="270" y="505" type="line"/>
      <point x="314" y="710" type="line"/>
      <point x="134" y="710" type="line"/>
    </contour>
    <contour>
      <point x="196" y="156" type="line"/>
      <point x="237" y="349" type="line"/>
      <point x="300" y="349" type="line" smooth="yes"/>
      <point x="355" y="349"/>
      <point x="382" y="327"/>
      <point x="382" y="270" type="curve" smooth="yes"/>
      <point x="382" y="196"/>
      <point x="338" y="156"/>
      <point x="260" y="156" type="curve" smooth="yes"/>
    </contour>
  </outline>
</glyph>
<glyph name="Yu-cy" format="2">
  <advance width="600"/>
  <unicode hex="042E"/>
  <outline>
    <contour>
      <point x="340" y="-16" type="curve" smooth="yes"/>
      <point x="540" y="-16"/>
      <point x="630" y="330"/>
      <point x="630" y="550" type="curve" smooth="yes"/>
      <point x="630" y="671"/>
      <point x="585" y="726"/>
      <point x="492" y="726" type="curve" smooth="yes"/>
      <point x="292" y="726"/>
      <point x="203" y="380"/>
      <point x="203" y="160" type="curve" smooth="yes"/>
      <point x="203" y="39"/>
      <point x="248" y="-16"/>
    </contour>
    <contour>
      <point x="-47" y="0" type="line"/>
      <point x="113" y="0" type="line"/>
      <point x="264" y="710" type="line"/>
      <point x="104" y="710" type="line"/>
    </contour>
    <contour>
      <point x="142" y="278" type="line"/>
      <point x="269" y="278" type="line"/>
      <point x="303" y="436" type="line"/>
      <point x="176" y="436" type="line"/>
    </contour>
    <contour>
      <point x="369" y="124" type="curve" smooth="yes"/>
      <point x="356" y="124"/>
      <point x="349" y="133"/>
      <point x="349" y="165" type="curve" smooth="yes"/>
      <point x="349" y="315"/>
      <point x="413" y="586"/>
      <point x="463" y="586" type="curve" smooth="yes"/>
      <point x="476" y="586"/>
      <point x="485" y="576"/>
      <point x="485" y="543" type="curve" smooth="yes"/>
      <point x="485" y="393"/>
      <point x="419" y="124"/>
    </contour>
  </outline>
</glyph>
<glyph name="Ya-cy" format="2">
  <advance width="600"/>
  <unicode hex="042F"/>
  <outline>
    <contour>
      <point x="333" y="0" type="line"/>
      <point x="513" y="0" type="line"/>
      <point x="663" y="710" type="line"/>
      <point x="415" y="710" type="line" smooth="yes"/>
      <point x="184" y="710"/>
      <point x="74" y="588"/>
      <point x="74" y="414" type="curve" smooth="yes"/>
      <point x="74" y="287"/>
      <point x="184" y="216"/>
      <point x="310" y="216" type="curve" smooth="yes"/>
      <point x="378" y="216" type="line"/>
    </contour>
    <contour>
      <point x="-27" y="0" type="line"/>
      <point x="169" y="0" type="line"/>
      <point x="349" y="258" type="line"/>
      <point x="192" y="294" type="line"/>
    </contour>
    <contour>
      <point x="344" y="373" type="line" smooth="yes"/>
      <point x="289" y="373"/>
      <point x="258" y="392"/>
      <point x="258" y="441" type="curve" smooth="yes"/>
      <point x="258" y="504"/>
      <point x="295" y="553"/>
      <point x="382" y="553" type="curve" smooth="yes"/>
      <point x="450" y="553" type="line"/>
      <point x="412" y="373" type="line"/>
    </contour>
  </outline>
</glyph>
<glyph name="be-cy" format="2">
  <advance width="600"/>
  <unicode hex="0431"/>
  <outline>
    <contour>
      <point x="249" y="-12" type="curve" smooth="yes"/>
      <point x="447" y="-12"/>
      <point x="568" y="110"/>
      <point x="568" y="290" type="curve" smooth="yes"/>
      <point x="568" y="405"/>
      <point x="502" y="472"/>
      <point x="387" y="472" type="curve" smooth="yes"/>
      <point x="283" y="472"/>
      <point x="215" y="420"/>
      <point x="190" y="350" type="curve"/>
      <point x="224" y="350" type="line"/>
      <point x="244" y="470"/>
      <point x="268" y="520"/>
      <point x="398" y="532" type="curve" smooth="yes"/>
      <point x="550" y="546"/>
      <point x="616" y="600"/>
      <point x="630" y="710" type="curve"/>
      <point x="444" y="710" type="line"/>
      <point x="439" y="688"/>
      <point x="425" y="678"/>
      <point x="383" y="674" type="curve" smooth="yes"/>
      <point x="123" y="650"/>
      <point x="34" y="474"/>
      <point x="34" y="194" type="curve" smooth="yes"/>
      <point x="34" y="48"/>
      <point x="114" y="-12"/>
    </contour>
    <contour>
      <point x="278" y="127" type="curve" smooth="yes"/>
      <point x="234" y="127"/>
      <point x="210" y="150"/>
      <point x="210" y="194" type="curve" smooth="yes"/>
      <point x="210" y="272"/>
      <point x="258" y="333"/>
      <point x="324" y="333" type="curve" smooth="yes"/>
      <point x="368" y="333"/>
      <point x="392" y="309"/>
      <point x="392" y="264" type="curve" smooth="yes"/>
      <point x="392" y="185"/>
      <point x="346" y="127"/>
    </contour>
  </outline>
</glyph>
<glyph name="ve-cy" format="2">
  <advance width="600"/>
  <unicode hex="0432"/>
  <outline>
    <contour>
      <point x="7" y="0" type="line"/>
      <point x="288" y="0" type="line" smooth="yes"/>
      <point x="433" y="0"/>
      <point x="530" y="48"/>
      <point x="530" y="168" type="curve" smooth="yes"/>
      <point x="530" y="234"/>
      <point x="490" y="273"/>
      <point x="396" y="280" type="curve"/>
      <point x="396" y="278" type="line"/>
      <point x="495" y="287"/>
      <point x="551" y="336"/>
      <point x="551" y="418" type="curve" smooth="yes"/>
      <point x="551" y="493"/>
      <point x="508" y="540"/>
      <point x="383" y="540" type="curve" smooth="yes"/>
      <point x="121" y="540" type="line"/>
    </contour>
    <contour>
      <point x="205" y="130" type="line"/>
      <point x="225" y="224" type="line"/>
      <point x="310" y="224" type="line" smooth="yes"/>
      <point x="339" y="224"/>
      <point x="354" y="210"/>
      <point x="354" y="184" type="curve" smooth="yes"/>
      <point x="354" y="148"/>
      <point x="326" y="130"/>
      <point x="290" y="130" type="curve" smooth="yes"/>
    </contour>
    <contour>
      <point x="246" y="324" type="line"/>
      <point x="265" y="410" type="line"/>
      <point x="329" y="410" type="line" smooth="yes"/>
      <point x="359" y="410"/>
      <point x="372" y="397"/>
      <point x="372" y="376" type="curve" smooth="yes"/>
      <point x="372" y="343"/>
      <point x="349" y="324"/>
      <point x="310" y="324" type="curve" smooth="yes"/>
    </contour>
  </outline>
</glyph>
<glyph name="ge-cy" format="2">
  <advance width="600"/>
  <unicode hex="0433"/>
  <anchor x="357" y="540" name="top"/>
  <outline>
    <contour>
      <point x="43" y="0" type="line"/>
      <point x="213" y="0" type="line"/>
      <point x="318" y="498" type="line"/>
      <point x="210" y="400" type="line"/>
      <point x="558" y="400" type="line"/>
      <point x="587" y="540" type="line"/>
      <point x="157" y="540" type="line"/>
    </contour>
  </outline>
</glyph>
<glyph name="de-cy" format="2">
  <advance width="600"/>
  <unicode hex="0434"/>
  <outline>
    <contour>
      <point x="-1" y="106" type="curve"/>
      <point x="121" y="70" type="line"/>
      <point x="165" y="96"/>
      <point x="235" y="144"/>
      <point x="274" y="274" type="curve" smooth="yes"/>
      <point x="313" y="400" type="line"/>
      <point x="387" y="400" type="line"/>
      <point x="311" y="40" type="line"/>
      <point x="481" y="40" type="line"/>
      <point x="587" y="540" type="line"/>
      <point x="201" y="540" type="line"/>
      <point x="123" y="288" type="line" smooth="yes"/>
      <point x="84" y="160"/>
      <point x="33" y="126"/>
    </contour>
    <contour>
      <point x="-69" y="-100" type="line"/>
      <point x="91" y="-100" type="line"/>
      <point x="112" y="0" type="line"/>
      <point x="372" y="0" type="line"/>
      <point x="351" y="-100" type="line"/>
      <point x="511" y="-100" type="line"/>
      <point x="562" y="140" type="line"/>
      <point x="-18" y="140" type="line"/>
    </contour>
  </outline>
</glyph>
<glyph name="zhe-cy" format="2">
  <advance width="600"/>
  <unicode hex="0436"/>
  <outline>
    <contour>
      <point x="173" y="0" type="line"/>
      <point x="313" y="0" type="line"/>
      <point x="427" y="540" type="line"/>
      <point x="287" y="540" type="line"/>
    </contour>
    <contour>
      <point x="389" y="0" type="line"/>
      <point x="543" y="0" type="line"/>
      <point x="498" y="264" type="line"/>
      <point x="655" y="540" type="line"/>
      <point x="499" y="540" type="line"/>
      <point x="358" y="264" type="line"/>
    </contour>
    <contour>
      <point x="99" y="0" type="line"/>
      <point x="240" y="264" type="line"/>
      <point x="213" y="540" type="line"/>
      <point x="59" y="540" type="line"/>
      <point x="100" y="264" type="line"/>
      <point x="-57" y="0" type="line"/>
    </contour>
  </outline>
</glyph>
<glyph name="ze-cy" format="2">
  <advance width="600"/>
  <unicode hex="0437"/>
  <outline>
    <contour>
      <point x="248" y="-12" type="curve" smooth="yes"/>
      <point x="395" y="-12"/>
      <point x="515" y="38"/>
      <point x="515" y="176" type="curve" smooth="yes"/>
      <point x="515" y="246"/>
      <point x="471" y="278"/>
      <point x="369" y="286" type="curve"/>
      <point x="367" y="272" type="line"/>
      <point x="475" y="282"/>
      <point x="547" y="325"/>
      <point x="547" y="410" type="curve" smooth="yes"/>
      <point x="547" y="499"/>
      <point x="480" y="552"/>
      <point x="352" y="552" type="curve" smooth="yes"/>
      <point x="182" y="552"/>
      <point x="119" y="490"/>
      <point x="84" y="384" type="curve"/>
      <point x="254" y="380" type="line"/>
      <point x="262" y="405"/>
      <point x="284" y="418"/>
      <point x="320" y="418" type="curve" smooth="yes"/>
      <point x="360" y="418"/>
      <point x="372" y="402"/>
      <point x="372" y="378" type="curve" smooth="yes"/>
      <point x="372" y="353"/>
      <point x="356" y="328"/>
      <point x="316" y="328" type="curve" smooth="yes"/>
      <point x="246" y="328" type="line"/>
      <point x="224" y="222" type="line"/>
      <point x="294" y="222" type="line" smooth="yes"/>
      <point x="323" y="222"/>
      <point x="340" y="208"/>
      <point x="340" y="180" type="curve" smooth="yes"/>
      <point x="340" y="144"/>
      <point x="316" y="122"/>
      <point x="274" y="122" type="curve" smooth="yes"/>
      <point x="236" y="122"/>
      <point x="213" y="136"/>
      <point x="213" y="182" type="curve"/>
      <point x="43" y="178" type="line"/>
      <point x="43" y="62"/>
      <point x="112" y="-12"/>
    </contour>
  </outline>
</glyph>
